<svg xmlns="http://www.w3.org/2000/svg" xmlns:xlink="http://www.w3.org/1999/xlink" width="78" height="78" viewBox="0 0 78 78">
  <defs>
    <clipPath id="clip-path">
      <rect id="Rectángulo_401275" data-name="Rectángulo 401275" width="40.105" height="51.479" fill="#fff"/>
    </clipPath>
  </defs>
  <g id="Grupo_1099073" data-name="Grupo 1099073" transform="translate(389 11154)">
    <circle id="Elipse_11497" data-name="Elipse 11497" cx="39" cy="39" r="39" transform="translate(-389 -11154)" fill="#b8aa52"/>
    <g id="Grupo_1099075" data-name="Grupo 1099075" transform="translate(-368.871 -11140.64)">
      <g id="Grupo_1099074" data-name="Grupo 1099074" clip-path="url(#clip-path)">
        <path id="Trazado_874211" data-name="Trazado 874211" d="M14.732,33.718a.8.8,0,0,1-.69-.393L8.587,24.1l-1.327.983a.8.8,0,0,1-1.2-.291L.082,12.6a.8.8,0,0,1,.243-1L6.257,7.215a.8.8,0,0,1,1.25.437l2.465,9.21,1.606-1.187a.8.8,0,0,1,1.267.517l2.678,16.6a.8.8,0,0,1-.79.928M8.824,22.132a.8.8,0,0,1,.689.393l3.753,6.344L11.472,17.744l-1.494,1.1a.8.8,0,0,1-1.25-.437L6.264,9.2,1.814,12.49,7.079,23.229l1.268-.94a.8.8,0,0,1,.477-.157" transform="translate(0 -5.174)" fill="#fff"/>
        <path id="Trazado_874212" data-name="Trazado 874212" d="M61.594,27.646c-.027,0-.055,0-.082,0a.8.8,0,0,1-.716-.729l-.907-10.674-1.623.309a.8.8,0,0,1-.951-.782L57.228,2.177a.8.8,0,0,1,.652-.792L65.128.014a.8.8,0,0,1,.936.936l-1.781,9.366,1.962-.371a.8.8,0,0,1,.916,1.015l-4.8,16.113a.8.8,0,0,1-.767.572m-.983-13.161a.8.8,0,0,1,.8.733l.624,7.345,3.217-10.8-1.825.345a.8.8,0,0,1-.936-.936L64.27,1.806,58.834,2.835l.077,11.96,1.551-.3a.815.815,0,0,1,.15-.014" transform="translate(-41.951 0)" fill="#fff"/>
        <path id="Trazado_874213" data-name="Trazado 874213" d="M90.224,35.18a.8.8,0,0,1-.748-1.086L93.3,24.085l-1.6-.426a.8.8,0,0,1-.517-1.117l5.825-12.278a.8.8,0,0,1,.931-.43l7.123,1.914A.8.8,0,0,1,105.5,13l-5.673,7.662,1.928.518a.8.8,0,0,1,.384,1.313L90.816,34.918a.8.8,0,0,1-.592.261m2.819-12.82,1.525.407a.8.8,0,0,1,.541,1.06l-2.629,6.887,7.589-8.33L98.276,21.9a.8.8,0,0,1-.436-1.25l5.673-7.663L98.17,11.553Z" transform="translate(-65.552 -7.188)" fill="#fff"/>
        <path id="Trazado_874214" data-name="Trazado 874214" d="M16.368,108.388a4.07,4.07,0,0,1-2.98-.918c-1.073-1.07-.643-2.607-.412-3.432.028-.1.064-.228.082-.31a1.669,1.669,0,0,0-.307-.426,3.894,3.894,0,0,1-.928-1.671,2.773,2.773,0,0,1,.024-1.434,1.554,1.554,0,0,0,.065-.51c-.093,0-.215,0-.306.007a1.889,1.889,0,0,1-2.117-1.108c-.423-1.121.414-2.34,1.3-3.63.717-1.043,1.529-2.225,1.416-3.036-.575-4.125.263-7.441,2.493-9.856a.8.8,0,1,1,1.177,1.086c-1.888,2.045-2.589,4.921-2.083,8.548.2,1.427-.8,2.881-1.682,4.164-.468.681-1.25,1.82-1.123,2.158a.233.233,0,0,0,.03.06,2.034,2.034,0,0,0,.518.014,1.6,1.6,0,0,1,1.942,1.229,2.843,2.843,0,0,1-.069,1.235,1.237,1.237,0,0,0-.036.669,2.334,2.334,0,0,0,.594,1.033,2.615,2.615,0,0,1,.683,1.218,2.093,2.093,0,0,1-.131.993c-.162.581-.408,1.459,0,1.867.36.359,1.8,1.025,7.369-.548a.8.8,0,0,1,.435,1.541,23.164,23.164,0,0,1-5.955,1.058" transform="translate(-6.873 -59.968)" fill="#fff"/>
        <path id="Trazado_874215" data-name="Trazado 874215" d="M103.82,121.934a.8.8,0,0,1-.778-.614,19.538,19.538,0,0,1,.66-12.226,31.786,31.786,0,0,0,1.395-5.681,12.47,12.47,0,0,0-.684-6.207.8.8,0,1,1,1.491-.585,14.072,14.072,0,0,1,.781,7.006,33.1,33.1,0,0,1-1.456,5.951c-1.027,3.234-1.914,6.028-.629,11.366a.8.8,0,0,1-.779.989" transform="translate(-75.035 -70.455)" fill="#fff"/>
        <path id="Trazado_874216" data-name="Trazado 874216" d="M44.985,178.987a.822.822,0,0,1-.137-.011.8.8,0,0,1-.654-.925,12.118,12.118,0,0,0-.032-3.2.8.8,0,1,1,1.588-.207,13.447,13.447,0,0,1,.023,3.681.8.8,0,0,1-.788.665" transform="translate(-32.368 -127.508)" fill="#fff"/>
      </g>
    </g>
  </g>
</svg>
