<svg xmlns="http://www.w3.org/2000/svg" xmlns:xlink="http://www.w3.org/1999/xlink" width="78" height="78" viewBox="0 0 78 78">
  <defs>
    <clipPath id="clip-path">
      <rect id="Rectángulo_401278" data-name="Rectángulo 401278" width="50.015" height="50.893" fill="#fff"/>
    </clipPath>
  </defs>
  <g id="Grupo_1099079" data-name="Grupo 1099079" transform="translate(389 11154)">
    <circle id="Elipse_11497" data-name="Elipse 11497" cx="39" cy="39" r="39" transform="translate(-389 -11154)" fill="#b8aa52"/>
    <g id="Grupo_1099084" data-name="Grupo 1099084" transform="translate(-372.987 -11139.966)">
      <g id="Grupo_1099083" data-name="Grupo 1099083" clip-path="url(#clip-path)">
        <path id="Trazado_874237" data-name="Trazado 874237" d="M86.633,106a15.072,15.072,0,1,1,6.043-1.273A15.095,15.095,0,0,1,86.633,106m-.041-28.5a13.432,13.432,0,1,0,12.316,8.027A13.358,13.358,0,0,0,86.593,77.5" transform="translate(-51.972 -55.108)" fill="#fff"/>
        <path id="Trazado_874238" data-name="Trazado 874238" d="M118.627,149.836a8.884,8.884,0,0,1-3.226-.61.821.821,0,0,1,.6-1.53,7.251,7.251,0,0,0,9.378-4.122.821.821,0,1,1,1.529.6,8.9,8.9,0,0,1-8.277,5.665" transform="translate(-83.457 -103.926)" fill="#fff"/>
        <path id="Trazado_874239" data-name="Trazado 874239" d="M97.833,132.969a1.787,1.787,0,0,1-1.127-.456,4.013,4.013,0,0,1-1.319-3,1.57,1.57,0,0,1,.86-1.449c.913-.4,2.019.317,2.63,1.707a3.739,3.739,0,0,1,.339,1.642,1.57,1.57,0,0,1-.86,1.449,1.287,1.287,0,0,1-.522.109m-.79-3.095a2.457,2.457,0,0,0,.185.619,2.424,2.424,0,0,0,.331.555,2.625,2.625,0,0,0-.516-1.173" transform="translate(-69.294 -92.954)" fill="#fff"/>
        <path id="Trazado_874240" data-name="Trazado 874240" d="M143.026,113.108a1.786,1.786,0,0,1-1.127-.456,4.014,4.014,0,0,1-1.32-3,1.57,1.57,0,0,1,.86-1.449c.913-.4,2.019.317,2.63,1.707a3.739,3.739,0,0,1,.339,1.642,1.569,1.569,0,0,1-.86,1.449,1.289,1.289,0,0,1-.522.109m-.79-3.095a2.616,2.616,0,0,0,.516,1.173,2.619,2.619,0,0,0-.516-1.173" transform="translate(-102.126 -78.525)" fill="#fff"/>
        <path id="Trazado_874241" data-name="Trazado 874241" d="M16.964,30.152A15.075,15.075,0,1,1,31.756,17.995a.821.821,0,0,1-1.61-.32A13.423,13.423,0,1,0,18.215,28.452a.821.821,0,0,1,.153,1.634q-.7.066-1.4.066" transform="translate(-1.371 0)" fill="#fff"/>
        <path id="Trazado_874242" data-name="Trazado 874242" d="M38.1,76.268a.821.821,0,0,1-.729-.443A7.251,7.251,0,0,0,27.6,72.732a.82.82,0,1,1-.756-1.456,8.9,8.9,0,0,1,11.978,3.794.821.821,0,0,1-.728,1.2" transform="translate(-19.183 -51.056)" fill="#fff"/>
        <path id="Trazado_874243" data-name="Trazado 874243" d="M29.455,39.5a1.283,1.283,0,0,1-.389-.06,1.57,1.57,0,0,1-1.01-1.349,3.744,3.744,0,0,1,.161-1.669c.459-1.448,1.481-2.28,2.432-1.979s1.307,1.57.849,3.018h0a3.743,3.743,0,0,1-.829,1.458,1.718,1.718,0,0,1-1.213.581m.6-3.17a2.628,2.628,0,0,0-.387,1.222,2.611,2.611,0,0,0,.387-1.222m.665.883h0Z" transform="translate(-20.356 -24.977)" fill="#fff"/>
        <path id="Trazado_874244" data-name="Trazado 874244" d="M76.516,54.4a1.284,1.284,0,0,1-.389-.06,1.569,1.569,0,0,1-1.01-1.349,3.745,3.745,0,0,1,.161-1.669c.459-1.448,1.481-2.279,2.432-1.979s1.307,1.57.849,3.018a3.741,3.741,0,0,1-.829,1.458,1.718,1.718,0,0,1-1.214.581m.6-3.169a2.628,2.628,0,0,0-.387,1.222,2.444,2.444,0,0,0,.269-.587h0a2.448,2.448,0,0,0,.118-.635" transform="translate(-54.546 -35.805)" fill="#fff"/>
        <path id="Trazado_874245" data-name="Trazado 874245" d="M126.473,28.611c-.025,0-.049,0-.074,0a.82.82,0,0,1-.745-.89c.444-5-.871-9.3-3.7-12.109-2.539-2.517-6.134-3.628-10.4-3.213a.821.821,0,1,1-.159-1.633c4.763-.464,8.813.808,11.71,3.681,3.185,3.158,4.67,7.923,4.182,13.42a.82.82,0,0,1-.816.748" transform="translate(-80.39 -7.751)" fill="#fff"/>
        <path id="Trazado_874246" data-name="Trazado 874246" d="M157.2,61.285a.821.821,0,0,1-.623-.287l-3.428-4a.821.821,0,0,1,1.246-1.068l2.783,3.247,2.494-3.118a.821.821,0,0,1,1.282,1.025l-3.113,3.892a.822.822,0,0,1-.627.308H157.2" transform="translate(-111.114 -40.424)" fill="#fff"/>
        <path id="Trazado_874247" data-name="Trazado 874247" d="M25.162,126.79a13.539,13.539,0,0,1-9.83-3.774c-3.185-3.158-4.67-7.924-4.182-13.42a.821.821,0,0,1,1.635.145c-.444,5,.871,9.3,3.7,12.109,2.539,2.518,6.135,3.629,10.4,3.213a.821.821,0,0,1,.159,1.633q-.96.094-1.88.093" transform="translate(-8.034 -79.076)" fill="#fff"/>
        <path id="Trazado_874248" data-name="Trazado 874248" d="M7.361,114.488a.818.818,0,0,1-.623-.287l-2.783-3.247-2.494,3.118a.821.821,0,1,1-1.282-1.025l3.113-3.892a.822.822,0,0,1,.627-.308.834.834,0,0,1,.637.287l3.428,4a.821.821,0,0,1-.623,1.354" transform="translate(0 -79.076)" fill="#fff"/>
      </g>
    </g>
  </g>
</svg>
