<svg xmlns="http://www.w3.org/2000/svg" width="55" height="55" viewBox="0 0 55 55">
  <g id="Grupo_1110292" data-name="Grupo 1110292" transform="translate(-836 -3934)">
    <g id="Grupo_1110289" data-name="Grupo 1110289" transform="translate(223.949 -4731)">
      <rect id="Rectángulo_404422" data-name="Rectángulo 404422" width="55" height="55" transform="translate(612.051 8665)" fill="#e6d567"/>
    </g>
    <g id="salud6" transform="translate(837.851 3934.414)">
      <path id="Trazado_900152" data-name="Trazado 900152" d="M20.43,20.673l-7.2,5.392-6.752-3.9a2.885,2.885,0,0,0-2.885,5L11.964,32v0l0,0a2.892,2.892,0,0,0,3.2-.174l4.012-3v8.946l-7.468,5.591a2.888,2.888,0,0,0-.58,4.041c.053.068.1.134.151.2l.142.189,0,0a2.582,2.582,0,0,0,1.4.7,2.809,2.809,0,0,0,.621.068h9.565a2.879,2.879,0,0,0,2.273-1.11,2.883,2.883,0,0,0,2.275,1.11h9.563a2.908,2.908,0,0,0,.619-.066,2.782,2.782,0,0,0,1.393-.7l0,0,.23-.308.064-.085.057-.076a.458.458,0,0,0,.026-.042,2.888,2.888,0,0,0-.663-3.924l-7.468-5.591V28.822l4.01,3a2.9,2.9,0,0,0,3.2.174l0,0,8.372-4.832a2.885,2.885,0,0,0-2.885-5l-6.752,3.9-7.2-5.392a3.277,3.277,0,0,0-2.034-.7h-5.63a3.277,3.277,0,0,0-2.034.7Zm9.116.744a2.331,2.331,0,0,0-1.452-.5h-5.63a2.331,2.331,0,0,0-1.452.5l-.006,0,0,0,0,0v0l-7.455,5.581a.469.469,0,0,1-.517.03L6,22.984a1.941,1.941,0,0,0-1.941,3.363l8.372,4.834,0,0,0,0,0,0a1.947,1.947,0,0,0,2.156-.113L19.365,27.5a.475.475,0,0,1,.132-.072h0a.463.463,0,0,1,.147-.023.465.465,0,0,1,.378.189.429.429,0,0,1,.068.13l0,0,0,0a.463.463,0,0,1,.023.147V38a.472.472,0,0,1-.051.211.482.482,0,0,1-.138.166l-7.657,5.732a1.944,1.944,0,0,0-.434,2.657l0,0,.032.043.017.021a1.935,1.935,0,0,0,1.552.778h9.565a1.942,1.942,0,0,0,1.815-1.252.455.455,0,0,1,.03-.085,1.937,1.937,0,0,0,.1-.6.472.472,0,1,1,.944,0,2.876,2.876,0,0,1-.11.789,1.94,1.94,0,0,0,1.773,1.152h9.563a1.943,1.943,0,0,0,1.556-.778l.019-.026a1.945,1.945,0,0,0-.408-2.693l-7.659-5.732a.482.482,0,0,1-.138-.166A.472.472,0,0,1,30.437,38V27.88a.463.463,0,0,1,.023-.147l0,0,0,0a.429.429,0,0,1,.068-.13.476.476,0,0,1,.525-.166h0a.475.475,0,0,1,.132.072l4.766,3.569a1.95,1.95,0,0,0,2.049.174c.036-.019.123-.068.134-.076l8.353-4.822a1.941,1.941,0,0,0-1.941-3.363l-7.024,4.054a.469.469,0,0,1-.517-.03l-7.455-5.581v0l0,0,0,0-.006,0Zm-4.128,3.31A2.7,2.7,0,0,0,21.9,24.47c-.954.778-1.057,2.33-.106,3.886a9.337,9.337,0,0,0,3.4,2.794.478.478,0,0,0,.451,0,9.348,9.348,0,0,0,3.4-2.8c.95-1.552.846-3.1-.11-3.882a2.7,2.7,0,0,0-3.516.257Zm-.4,1.012a.474.474,0,0,0,.806,0,1.737,1.737,0,0,1,2.515-.536,1.273,1.273,0,0,1,.43,1.027,3.236,3.236,0,0,1-.534,1.637.028.028,0,0,0-.006.013,7.831,7.831,0,0,1-2.81,2.315,7.807,7.807,0,0,1-2.808-2.315.082.082,0,0,0-.008-.013,3.236,3.236,0,0,1-.534-1.637A1.273,1.273,0,0,1,22.5,25.2a1.739,1.739,0,0,1,2.517.536Zm.262-19.154a5.653,5.653,0,1,0,5.653,5.653A5.657,5.657,0,0,0,25.279,6.586Zm0,.944a4.709,4.709,0,1,1-4.709,4.709A4.712,4.712,0,0,1,25.279,7.53Z" transform="translate(0)" fill="#082952" fill-rule="evenodd"/>
    </g>
  </g>
</svg>
