<svg id="Grupo_1099170" data-name="Grupo 1099170" xmlns="http://www.w3.org/2000/svg" xmlns:xlink="http://www.w3.org/1999/xlink" width="226.675" height="209.015" viewBox="0 0 226.675 209.015">
  <defs>
    <clipPath id="clip-path">
      <rect id="Rectángulo_401339" data-name="Rectángulo 401339" width="226.675" height="209.015" fill="none"/>
    </clipPath>
    <clipPath id="clip-path-2">
      <path id="Trazado_875281" data-name="Trazado 875281" d="M361.889,177.557a24.762,24.762,0,0,0-3.818-.3c-11.209,0-19.235,7.832-19.99,18.413H461.7c-4.495-10.581-15.289-18.413-26.5-18.413a22.607,22.607,0,0,0-4.049.365c-7.354-14.889-22.977-25.662-39.175-25.662-16.174,0-27.979,10.743-30.094,25.6" transform="translate(-338.082 -151.958)" fill="#daf2e4"/>
    </clipPath>
    <clipPath id="clip-path-4">
      <path id="Trazado_875331" data-name="Trazado 875331" d="M230.484,236.639a24.765,24.765,0,0,0-3.818-.3c-11.209,0-19.235,7.832-19.989,18.413H330.3c-4.495-10.581-15.289-18.413-26.5-18.413a22.608,22.608,0,0,0-4.049.365c-7.354-14.889-22.977-25.662-39.175-25.662-16.174,0-27.979,10.743-30.094,25.6" transform="translate(-206.677 -211.04)" fill="#082952"/>
    </clipPath>
  </defs>
  <g id="Grupo_1099161" data-name="Grupo 1099161">
    <g id="Grupo_1099160" data-name="Grupo 1099160" clip-path="url(#clip-path)">
      <path id="Trazado_875277" data-name="Trazado 875277" d="M592.792,421.47a43.113,43.113,0,1,1-43.113-43.113,43.113,43.113,0,0,1,43.113,43.113" transform="translate(-376.246 -281.021)" fill="#effaf4"/>
      <path id="Trazado_875278" data-name="Trazado 875278" d="M86.227,165.446a43.113,43.113,0,1,1-43.113-43.113,43.113,43.113,0,0,1,43.113,43.113" transform="translate(0 -90.862)" fill="#fcf9e8"/>
      <path id="Trazado_875279" data-name="Trazado 875279" d="M255.472,95.884s-2.422,38.677-36.022,45.49-62.515,5.526-88.16,27.082c-37.049,31.141-99.36.764-91.8-62.383S102.8,11.7,127.313,4.585c61.949-17.977,130.644,17.826,128.158,91.3" transform="translate(-28.862 0)" fill="#95dbb3" fill-rule="evenodd"/>
    </g>
  </g>
  <g id="Grupo_1099163" data-name="Grupo 1099163" transform="translate(86.975 39.093)">
    <g id="Grupo_1099162" data-name="Grupo 1099162" clip-path="url(#clip-path-2)">
      <rect id="Rectángulo_401340" data-name="Rectángulo 401340" width="123.623" height="43.71" transform="translate(0 0)" fill="#daf2e4"/>
    </g>
  </g>
  <g id="Grupo_1099165" data-name="Grupo 1099165">
    <g id="Grupo_1099164" data-name="Grupo 1099164" clip-path="url(#clip-path)">
      <path id="Trazado_875282" data-name="Trazado 875282" d="M389.473,775.561c0,3.009-18.771,5.448-41.926,5.448s-41.926-2.439-41.926-5.448,18.771-5.448,41.926-5.448,41.926,2.439,41.926,5.448" transform="translate(-226.998 -571.994)" fill="#fcf9e8"/>
      <path id="Trazado_875283" data-name="Trazado 875283" d="M499.135,695.56s2.019,22.265-16.161,21.847-22.244-16.294-22.244-16.294l5.043,4.067,3.853-1.626,8.856-7.634Z" transform="translate(-342.203 -516.621)" fill="#59836b"/>
      <path id="Trazado_875284" data-name="Trazado 875284" d="M395.888,645.77a4,4,0,0,0-4.984-1.629c-1.1.456-2.6,1.065-3.294,1.281-1.915.592-1.2,1.858.119,1.84,1.35-.018,1.746-.63,1.746-.63a25.178,25.178,0,0,0-3.489,3.7c-.641.849-.941,1.76-.342,2.192.407.293.557.184,1.642-.635,0,0-1.314,1.124-.769,2.044.623,1.051,1.4-.242,2.014-.828,0,0-.776.6-.241,1.277.561.713,1.1.294,1.647-.18-.234.146.228,1.63,1.2.645,2.544-2.575,7.278-4.591,4.824-8.95-.024-.043-.048-.085-.073-.126" transform="translate(-286.192 -478.199)" fill="#f6f0ca"/>
      <path id="Trazado_875285" data-name="Trazado 875285" d="M392.947,650.443s-.145.751-1.3.564" transform="translate(-290.894 -483.111)" fill="none" stroke="#3c1c54" stroke-linecap="round" stroke-linejoin="round" stroke-width="0.975"/>
      <path id="Trazado_875286" data-name="Trazado 875286" d="M391.9,665.61a24.15,24.15,0,0,1,3.487-3.527" transform="translate(-291.077 -491.756)" fill="none" stroke="#3c1c54" stroke-linecap="round" stroke-linejoin="round" stroke-width="0.975"/>
      <path id="Trazado_875287" data-name="Trazado 875287" d="M397.376,670.376a18.218,18.218,0,0,1,3.179-3.3" transform="translate(-295.147 -495.467)" fill="none" stroke="#3c1c54" stroke-linecap="round" stroke-linejoin="round" stroke-width="0.975"/>
      <path id="Trazado_875288" data-name="Trazado 875288" d="M403.061,675.74a8.159,8.159,0,0,1,2.464-2.843" transform="translate(-299.37 -499.788)" fill="none" stroke="#3c1c54" stroke-linecap="round" stroke-linejoin="round" stroke-width="0.975"/>
      <path id="Trazado_875289" data-name="Trazado 875289" d="M497.283,528.793s-2.64,1.575-1,5.448a37.556,37.556,0,0,1,2.229,8.706s7.16-9.606,7.076-9.923-6.26-4.285-6.26-4.285Z" transform="translate(-368.212 -392.715)" fill="#3c1c54" fill-rule="evenodd"/>
      <path id="Trazado_875290" data-name="Trazado 875290" d="M415.555,735.013l-2.839,5.942,4.117,2.778,4.493-4.151,3.741-5.225Z" transform="translate(-306.541 -545.437)" fill="#fcf9e8" fill-rule="evenodd"/>
      <path id="Trazado_875291" data-name="Trazado 875291" d="M390.592,753.838,387,758.752c-1.443,1.165-4.678,3.114-4.678,3.114-.852,1.483.52,2.333,1.721,2.579l13.284.061a1.815,1.815,0,0,0,2.1-1.273c.31-.94-.628-6.2-.868-9.182-2.778,1.8-7.575,1.941-7.962-.213" transform="translate(-283.768 -559.906)" fill="#3c1c54" fill-rule="evenodd"/>
      <path id="Trazado_875292" data-name="Trazado 875292" d="M358.555,735.013l-2.839,5.942,4.117,2.778,4.493-4.151,3.741-5.225Z" transform="translate(-264.205 -545.437)" fill="#fcf9e8" fill-rule="evenodd"/>
      <path id="Trazado_875293" data-name="Trazado 875293" d="M515.146,527.184s4.645,3.378,8.55,3.209,8.8-.87,8.7,2.845,5.58.565,6.956,4.923-2.229,5.191-2.229,5.191,4.249,4.183-1.594,6.97c-5.393,2.572-6.193-2.774-6.193-2.774s-5.895.5-8.419-1.978c-1.8-1.77-1.813-4.824-2.78-7.3a27.675,27.675,0,0,0-3.234-5.883l-2.394-3.085Z" transform="translate(-380.661 -391.561)" fill="#12263f" fill-rule="evenodd"/>
      <path id="Trazado_875294" data-name="Trazado 875294" d="M498.992,540.425a12.391,12.391,0,0,1-.621,1.411c-.2.4.661.9,1,.643s.46-1.647.46-1.647Z" transform="translate(-370.139 -401.396)" fill="#e6d567" fill-rule="evenodd"/>
      <path id="Trazado_875295" data-name="Trazado 875295" d="M720.068,684.284a3.969,3.969,0,1,1-3.969-3.969A3.969,3.969,0,0,1,720.068,684.284Z" transform="translate(-528.929 -505.298)" fill="none" stroke="#59836b" stroke-linecap="round" stroke-linejoin="round" stroke-width="2"/>
      <path id="Trazado_875296" data-name="Trazado 875296" d="M211.865,181.25a3.969,3.969,0,1,1-3.968-3.968A3.969,3.969,0,0,1,211.865,181.25Z" transform="translate(-151.466 -131.675)" fill="none" stroke="#59836b" stroke-linecap="round" stroke-linejoin="round" stroke-width="2"/>
      <path id="Trazado_875297" data-name="Trazado 875297" d="M712.033,140.5a3.969,3.969,0,1,1-3.969-3.968A3.969,3.969,0,0,1,712.033,140.5Z" transform="translate(-522.961 -101.408)" fill="none" stroke="#59836b" stroke-linecap="round" stroke-linejoin="round" stroke-width="2"/>
      <path id="Trazado_875298" data-name="Trazado 875298" d="M448.28,603.932l7.694-16.358a5.506,5.506,0,0,1,7.875-2.893c1.164.658.323,3.7-.316,4.875l-8.447,15.488Z" transform="translate(-332.956 -433.736)" fill="#f6f0ca" fill-rule="evenodd"/>
      <path id="Trazado_875299" data-name="Trazado 875299" d="M459.961,573.52c-1.656,1.754-3.3,9.927-6.011,16.141,0,0,5.434,3.347,9.1,2.236a77.483,77.483,0,0,0,5.67-11.915c.869-2.543-1.058-4.722-3.737-4.928Z" transform="translate(-337.167 -425.977)" fill="#f6f0ca" fill-rule="evenodd"/>
      <path id="Trazado_875300" data-name="Trazado 875300" d="M505.282,592.9s4.347-18.036-6.661-31.756c-3.35-4.174-11.86-4.292-14.574-4.287-3.415.006-7.949,1.478-10.957,2.622a5.116,5.116,0,0,0-3.324,5.335c.594,4.9,3.6,9.534,4.464,19.053l-5.657,7.876Z" transform="translate(-348.027 -413.598)" fill="#f6f0ca" fill-rule="evenodd"/>
      <path id="Trazado_875301" data-name="Trazado 875301" d="M538.1,638.287l4.13-7.164,1.565-.327" transform="translate(-399.672 -468.518)" fill="none" stroke="#8b939c" stroke-linecap="round" stroke-linejoin="round" stroke-width="2.324"/>
      <path id="Trazado_875302" data-name="Trazado 875302" d="M358.929,668.749l11.659,1.592a46.217,46.217,0,0,0,5.39-11.382l17.261,13.314,14.793-11.163s-25.314-16.2-26.831-17.311-6.927-2.5-9.873,1.592-12.4,23.358-12.4,23.358" transform="translate(-266.591 -477.316)" fill="#59836b" fill-rule="evenodd"/>
      <path id="Trazado_875303" data-name="Trazado 875303" d="M416.586,671.318l10.733.767a23.321,23.321,0,0,0,7.263-10.6L451.843,674.8,465.6,662.458s-24.282-15.014-25.8-16.13-6.927-2.5-9.873,1.592-13.346,23.4-13.346,23.4" transform="translate(-309.415 -479.195)" fill="#59836b" fill-rule="evenodd"/>
      <path id="Trazado_875304" data-name="Trazado 875304" d="M510.757,538.418l1.565,4.539a1.6,1.6,0,0,0,1.219,1.055,1.574,1.574,0,0,0,1.5-.553l.346-.423a2.069,2.069,0,0,0,.272-2.18l-2.421-5.208Z" transform="translate(-379.36 -397.848)" fill="#f0eee2" fill-rule="evenodd"/>
      <path id="Trazado_875305" data-name="Trazado 875305" d="M505.895,554.92s-2.511,6.188,1.951,6.4,6.844-7.029,6.844-7.029l-3.854-1.3Z" transform="translate(-375.226 -410.725)" fill="#f0eee2"/>
      <path id="Trazado_875306" data-name="Trazado 875306" d="M480.343,650.926c-6.231.561-11.4,1.67-17.669,2.089l-.278,6.5c10.736.88,16.952,1.142,21.614-.13a3.467,3.467,0,0,0,2.479-4.326,6.32,6.32,0,0,0-6.145-4.129" transform="translate(-343.44 -483.436)" fill="#fcf9e8"/>
      <path id="Trazado_875307" data-name="Trazado 875307" d="M525.138,601.856l4.5-15.142a5.507,5.507,0,0,1,6.895-4.781c1.292.343,1.243,3.5.919,4.8l-4.233,18.305Z" transform="translate(-390.041 -432.087)" fill="#fcf9e8" fill-rule="evenodd"/>
      <path id="Trazado_875308" data-name="Trazado 875308" d="M531.406,579.013l-2.6,16.122s6.1,1.872,9.367-.124a77.517,77.517,0,0,0,2.491-12.958c.2-2.679-2.212-4.3-4.857-3.83Z" transform="translate(-392.767 -429.409)" fill="#f6f0ca" fill-rule="evenodd"/>
      <path id="Trazado_875339" data-name="Trazado 875339" d="M0,8.542,7.1,0" transform="translate(122.714 181.151)" fill="none" stroke="#e6d567" stroke-linecap="round" stroke-width="1.5"/>
      <path id="Trazado_875309" data-name="Trazado 875309" d="M333.592,753.838,330,758.752c-1.443,1.165-4.678,3.114-4.678,3.114-.851,1.483.52,2.333,1.721,2.579l13.284.061a1.815,1.815,0,0,0,2.1-1.273c.31-.94-.628-6.2-.868-9.182-2.778,1.8-7.575,1.941-7.962-.213" transform="translate(-241.432 -559.906)" fill="#3c1c54" fill-rule="evenodd"/>
      <path id="Trazado_875310" data-name="Trazado 875310" d="M382.476,782.513c-.454.282-.752.461-.752.461-.851,1.482.52,2.333,1.721,2.579" transform="translate(-283.326 -581.204)" fill="none" stroke="#fff" stroke-linecap="round" stroke-linejoin="round" stroke-width="0.975"/>
      <path id="Trazado_875311" data-name="Trazado 875311" d="M446.141,661.436a4,4,0,0,0-4.984-1.629c-1.1.456-2.6,1.065-3.294,1.281-1.915.592-1.2,1.858.119,1.84,1.35-.018,1.746-.63,1.746-.63a25.178,25.178,0,0,0-3.489,3.7c-.641.849-.941,1.76-.342,2.192.407.293.557.184,1.642-.635,0,0-1.314,1.125-.769,2.044.623,1.051,1.4-.242,2.014-.828,0,0-.776.6-.241,1.277.561.713,1.1.294,1.647-.18-.234.146.228,1.63,1.2.645,2.544-2.575,7.278-4.591,4.824-8.95-.024-.043-.049-.085-.073-.126" transform="translate(-323.517 -489.835)" fill="#f6f0ca"/>
      <path id="Trazado_875312" data-name="Trazado 875312" d="M443.2,666.11s-.145.751-1.3.564" transform="translate(-328.22 -494.747)" fill="none" stroke="#3c1c54" stroke-linecap="round" stroke-linejoin="round" stroke-width="0.975"/>
      <path id="Trazado_875313" data-name="Trazado 875313" d="M442.149,681.276a24.149,24.149,0,0,1,3.487-3.527" transform="translate(-328.402 -503.392)" fill="none" stroke="#3c1c54" stroke-linecap="round" stroke-linejoin="round" stroke-width="0.975"/>
      <path id="Trazado_875314" data-name="Trazado 875314" d="M447.629,686.042a18.212,18.212,0,0,1,3.179-3.3" transform="translate(-332.472 -507.103)" fill="none" stroke="#3c1c54" stroke-linecap="round" stroke-linejoin="round" stroke-width="0.975"/>
      <path id="Trazado_875315" data-name="Trazado 875315" d="M453.315,691.407a8.159,8.159,0,0,1,2.464-2.843" transform="translate(-336.696 -511.425)" fill="none" stroke="#3c1c54" stroke-linecap="round" stroke-linejoin="round" stroke-width="0.975"/>
      <path id="Trazado_875316" data-name="Trazado 875316" d="M511.108,550.977l.887,1.325.839-1.832Z" transform="translate(-379.621 -408.857)" fill="#3c1c54" fill-rule="evenodd"/>
      <path id="Trazado_875317" data-name="Trazado 875317" d="M504.837,528.75a1.393,1.393,0,0,0-1.508-1.258l-2.639.247a1.469,1.469,0,0,0-1.237,1.515,15.077,15.077,0,0,0,.658,4.054,1.687,1.687,0,0,0,1.635,1.3c.809-.076,3.159-1.082,3.25-2.565a20.264,20.264,0,0,0-.158-3.3" transform="translate(-370.96 -391.785)" fill="#f0eee2" fill-rule="evenodd"/>
      <path id="Trazado_875318" data-name="Trazado 875318" d="M500.642,524.9s2.675,2.958,5,2.508.367-3.451.367-3.451-3.774-2.842-5.8.531Z" transform="translate(-371.523 -388.33)" fill="#12263f" fill-rule="evenodd"/>
      <path id="Trazado_875319" data-name="Trazado 875319" d="M507.092,540.839a.863.863,0,0,0,1.131-.362" transform="translate(-376.638 -401.434)" fill="none" stroke="#3c1c54" stroke-linecap="round" stroke-linejoin="round" stroke-width="0.3"/>
      <path id="Trazado_875320" data-name="Trazado 875320" d="M504.839,547.285a.806.806,0,0,1,.861-.321" transform="translate(-374.965 -406.242)" fill="none" stroke="#3c1c54" stroke-linecap="round" stroke-linejoin="round" stroke-width="0.3"/>
      <line id="Línea_578" data-name="Línea 578" y1="8.608" transform="translate(124.918 154.064)" fill="none" stroke="#e6d567" stroke-linecap="round" stroke-linejoin="round" stroke-width="1.5"/>
      <line id="Línea_579" data-name="Línea 579" x1="1.484" y2="8.118" transform="translate(136.948 154.16)" fill="none" stroke="#e6d567" stroke-linecap="round" stroke-linejoin="round" stroke-width="1.5"/>
      <path id="Trazado_875321" data-name="Trazado 875321" d="M519.675,537.022a1.044,1.044,0,0,1-1.19.867,1.068,1.068,0,0,1-.628-1.347,1.043,1.043,0,0,1,1.19-.867,1.068,1.068,0,0,1,.628,1.347" transform="translate(-384.602 -397.849)" fill="#e6d567" fill-rule="evenodd"/>
      <path id="Trazado_875322" data-name="Trazado 875322" d="M362.126,404.4h0l-5.6-5.231,1.011,7.239a3.361,3.361,0,0,0,.34,1.217,3.1,3.1,0,0,0,3.88,1.685,2.781,2.781,0,0,0,1.139-3.88,3.533,3.533,0,0,0-.767-1.03" transform="translate(-264.804 -296.477)" fill="#59836b"/>
      <path id="Trazado_875323" data-name="Trazado 875323" d="M451.937,438.03h0l-5.6-5.231,1.012,7.239a3.36,3.36,0,0,0,.34,1.217,3.1,3.1,0,0,0,3.88,1.685,2.781,2.781,0,0,0,1.139-3.88,3.533,3.533,0,0,0-.767-1.03" transform="translate(-331.51 -321.457)" fill="#59836b"/>
      <path id="Trazado_875324" data-name="Trazado 875324" d="M234.24,404.4h0l-5.6-5.231,1.011,7.239a3.36,3.36,0,0,0,.34,1.217,3.1,3.1,0,0,0,3.88,1.685,2.781,2.781,0,0,0,1.139-3.88,3.534,3.534,0,0,0-.767-1.03" transform="translate(-169.818 -296.477)" fill="#fff"/>
      <path id="Trazado_875325" data-name="Trazado 875325" d="M430.02,544.095h0l-5.6-5.231,1.011,7.239a3.361,3.361,0,0,0,.34,1.217,3.1,3.1,0,0,0,3.88,1.685,2.781,2.781,0,0,0,1.139-3.88,3.534,3.534,0,0,0-.767-1.03" transform="translate(-315.232 -400.236)" fill="#fff"/>
      <path id="Trazado_875326" data-name="Trazado 875326" d="M570.893,487.14h0l-5.6-5.231,1.011,7.239a3.361,3.361,0,0,0,.34,1.217,3.1,3.1,0,0,0,3.88,1.685,2.781,2.781,0,0,0,1.139-3.88,3.533,3.533,0,0,0-.767-1.03" transform="translate(-419.864 -357.933)" fill="#fff"/>
      <path id="Trazado_875327" data-name="Trazado 875327" d="M535.6,397.8h0l-5.6-5.231,1.011,7.239a3.361,3.361,0,0,0,.34,1.217,3.1,3.1,0,0,0,3.88,1.685,2.781,2.781,0,0,0,1.139-3.88,3.534,3.534,0,0,0-.767-1.03" transform="translate(-393.651 -291.574)" fill="#fff"/>
      <path id="Trazado_875328" data-name="Trazado 875328" d="M666.694,458.147h0l-5.6-5.231,1.011,7.239a3.36,3.36,0,0,0,.34,1.217,3.1,3.1,0,0,0,3.88,1.685,2.782,2.782,0,0,0,1.139-3.88A3.534,3.534,0,0,0,666.694,458.147Z" transform="translate(-491.019 -336.399)" fill="none" stroke="#59836b" stroke-linecap="round" stroke-linejoin="round" stroke-width="2"/>
      <path id="Trazado_875329" data-name="Trazado 875329" d="M324.794,487.14h0l-5.6-5.231,1.011,7.239a3.36,3.36,0,0,0,.34,1.217,3.1,3.1,0,0,0,3.88,1.685,2.781,2.781,0,0,0,1.139-3.88,3.533,3.533,0,0,0-.767-1.03" transform="translate(-237.076 -357.933)" fill="#59836b"/>
      <path id="Trazado_875330" data-name="Trazado 875330" d="M512.474,542.625c-.111-.272-.147-.995.126-1.105s.75.433.86.7a.532.532,0,1,1-.986.4" transform="translate(-380.574 -402.198)" fill="#12263f"/>
    </g>
  </g>
  <g id="Grupo_1099167" data-name="Grupo 1099167" transform="translate(53.17 54.292)">
    <g id="Grupo_1099166" data-name="Grupo 1099166" clip-path="url(#clip-path-4)">
      <rect id="Rectángulo_401342" data-name="Rectángulo 401342" width="123.623" height="43.71" transform="translate(0 0)" fill="#082952"/>
    </g>
  </g>
  <g id="Grupo_1099169" data-name="Grupo 1099169">
    <g id="Grupo_1099168" data-name="Grupo 1099168" clip-path="url(#clip-path)">
      <path id="Trazado_875332" data-name="Trazado 875332" d="M536.856,550.47s.389,8.773,5.639,8.19,5.445.324,6.158,5.769,6.861,1.948,6.861,1.948l-3.491-9.273s-5.639-5.667-6.482-5.718-8.686-.916-8.686-.916" transform="translate(-398.745 -408.856)" fill="#12263f"/>
      <path id="Trazado_875333" data-name="Trazado 875333" d="M389.147,193.441l12.046-.165a.115.115,0,0,1,.109.154l-5.677,15.63a.114.114,0,0,0,.11.154l10.782-.25a.115.115,0,0,1,.089.19l-19.058,22.009a.114.114,0,0,1-.2-.1l3.282-16.3a.115.115,0,0,0-.113-.137l-7.842.038a.115.115,0,0,1-.11-.148l6.472-21a.115.115,0,0,1,.108-.081" transform="translate(-284.144 -143.554)" fill="#fff"/>
      <path id="Trazado_875334" data-name="Trazado 875334" d="M389.147,193.441l12.046-.165a.115.115,0,0,1,.109.154l-5.677,15.63a.114.114,0,0,0,.11.154l10.782-.25a.115.115,0,0,1,.089.19l-19.058,22.009a.114.114,0,0,1-.2-.1l3.282-16.3a.115.115,0,0,0-.113-.137l-7.842.038a.115.115,0,0,1-.11-.148l6.472-21A.115.115,0,0,1,389.147,193.441Z" transform="translate(-284.144 -143.554)" fill="none" stroke="#95dbb3" stroke-linecap="round" stroke-linejoin="round" stroke-width="1.5"/>
      <line id="Línea_580" data-name="Línea 580" x1="91.317" transform="translate(85.475 98.002)" fill="none" stroke="#e6d567" stroke-linecap="round" stroke-linejoin="round" stroke-width="1.5"/>
      <rect id="Rectángulo_401343" data-name="Rectángulo 401343" width="2.384" height="4.237" transform="matrix(0.975, -0.223, 0.223, 0.975, 59.309, 86.067)" fill="#245088"/>
      <rect id="Rectángulo_401344" data-name="Rectángulo 401344" width="4.237" height="2.383" transform="matrix(0.607, -0.795, 0.795, 0.607, 56.189, 93.609)" fill="#245088"/>
      <rect id="Rectángulo_401345" data-name="Rectángulo 401345" width="4.356" height="2.45" transform="translate(85.063 64.71) rotate(-45.976)" fill="#245088"/>
      <rect id="Rectángulo_401346" data-name="Rectángulo 401346" width="3.673" height="2.261" transform="translate(63.231 84.291) rotate(-38.617)" fill="#245088"/>
      <path id="Trazado_875335" data-name="Trazado 875335" d="M246.829,339.126l.3-1.525,2.662.507-.3,1.525Z" transform="translate(-183.33 -250.75)" fill="#5d7ba1"/>
      <path id="Trazado_875336" data-name="Trazado 875336" d="M219.282,340.422l-.867-1.291,2.236-1.531.867,1.291Z" transform="translate(-162.226 -250.75)" fill="#5d7ba1"/>
      <path id="Trazado_875337" data-name="Trazado 875337" d="M262.8,312.961l1.116-1.058,1.748,1.96-1.116,1.058Z" transform="translate(-195.195 -231.663)" fill="#245088"/>
      <path id="Trazado_875338" data-name="Trazado 875338" d="M323.42,266.837l-1.521-.26.615-2.608,1.521.26Z" transform="translate(-239.088 -196.06)" fill="#245088"/>
    </g>
  </g>
</svg>
