<svg id="Grupo_1098936" data-name="Grupo 1098936" xmlns="http://www.w3.org/2000/svg" xmlns:xlink="http://www.w3.org/1999/xlink" width="207.5" height="203.148" viewBox="0 0 207.5 203.148">
  <defs>
    <clipPath id="clip-path">
      <rect id="Rectángulo_401171" data-name="Rectángulo 401171" width="207.5" height="203.148" fill="none"/>
    </clipPath>
  </defs>
  <g id="Grupo_1098935" data-name="Grupo 1098935" clip-path="url(#clip-path)">
    <path id="Trazado_873935" data-name="Trazado 873935" d="M160.22,576.691c0,3.131-28.676,5.67-64.051,5.67s-64.051-2.539-64.051-5.67,28.676-5.67,64.051-5.67,64.051,2.538,64.051,5.67" transform="translate(-21.33 -379.213)" fill="#95dbb3" fill-rule="evenodd"/>
    <path id="Trazado_873936" data-name="Trazado 873936" d="M259.249,557.5c0,4.916-35.357,8.9-78.973,8.9s-78.973-3.985-78.973-8.9,35.357-8.9,78.973-8.9,78.973,3.985,78.973,8.9" transform="translate(-67.276 -364.323)" fill="#95dbb3" fill-rule="evenodd"/>
    <path id="Trazado_873937" data-name="Trazado 873937" d="M169.141,177.868s-33.091,23.185-57.76,1.824S71.345,135.317,39.1,129.6c-46.577-8.254-57.057-75.72-.983-110.812s113.668-12.969,133.1,1.654c36.795,27.69,59.58,111.755-2.08,157.423" transform="translate(0 0)" fill="#95dbb3" fill-rule="evenodd"/>
    <path id="Trazado_873938" data-name="Trazado 873938" d="M142.234,232.648l59.85.409c-2.181-16.087-3.136-21.813-2.562-38.59,1.2-22.844,40.747-42.455,29.937-88.936-8.183-35.186-44.391-50.326-85.8-39.236-18.779,5.029-32.917,15.909-36.9,34.937-.084.4-.551,5.026-.631,5.438-.964,4.966,1.651,21.106-.771,24.989-5.874,9.418-10.606,13.808-12.236,14.922-4.345,2.972-4.5,10.4,2.62,13.072,5.556,2.083,4.9,1.175,4.922,5.353a9.193,9.193,0,0,1-1.41,5.191c-.974,1.814-1.37,2.1-.461,4.128.929,2.077,4.076,3.426,4.076,3.426s-3.6,2.54.083,7.664c.812,1.129,2.407,1.737,2.619,2.636,1.132,4.793.786,4.6.766,6.4-.026,2.31.319,11.424,11.716,13.4,2.128.369,11.131.306,20.161-.189,1.595,11.632,1.455,15.1,4.027,24.988" transform="translate(-59.82 -41.651)" fill="#fcf9e8"/>
    <path id="Trazado_873939" data-name="Trazado 873939" d="M284.318,202.352a33.133,33.133,0,1,1-33.133-33.133,33.132,33.132,0,0,1,33.133,33.133" transform="translate(-144.808 -112.378)" fill="#082952" fill-rule="evenodd"/>
    <circle id="Elipse_11473" data-name="Elipse 11473" cx="3.706" cy="3.706" r="3.706" transform="matrix(0.987, -0.16, 0.16, 0.987, 180.459, 25.045)" fill="none" stroke="#0d367f" stroke-linecap="round" stroke-linejoin="round" stroke-width="2.027"/>
    <circle id="Elipse_11474" data-name="Elipse 11474" cx="3.706" cy="3.706" r="3.706" transform="translate(8.073 159.399)" fill="none" stroke="#0d367f" stroke-linecap="round" stroke-linejoin="round" stroke-width="2.027"/>
    <circle id="Elipse_11475" data-name="Elipse 11475" cx="3.706" cy="3.706" r="3.706" transform="translate(12.325 6.847)" fill="none" stroke="#0d367f" stroke-linecap="round" stroke-linejoin="round" stroke-width="2.027"/>
    <path id="Trazado_873940" data-name="Trazado 873940" d="M233.358,493.485l12.616-.37-10.906,12.543Z" transform="translate(-154.972 -327.476)" fill="#e6d567"/>
    <path id="Trazado_873941" data-name="Trazado 873941" d="M289.654,136.393c0-14.016-12.364-25.378-27.616-25.378s-27.616,11.362-27.616,25.378a24.521,24.521,0,0,0,9.565,19.207,23.785,23.785,0,0,1,5.339,11A8.813,8.813,0,0,0,255.1,173.1a19.768,19.768,0,0,0,13.726.187,8.654,8.654,0,0,0,5.41-6.373,22.872,22.872,0,0,1,5.3-10.783c.094-.1.179-.205.257-.3a24.561,24.561,0,0,0,9.86-19.436" transform="translate(-155.679 -73.725)" fill="#e6d567"/>
    <path id="Trazado_873942" data-name="Trazado 873942" d="M301.626,316.664h-8.392a5.979,5.979,0,0,1-5.961-5.961v-9.222a1.862,1.862,0,0,1,1.857-1.857h16.6a1.862,1.862,0,0,1,1.857,1.857V310.7a5.979,5.979,0,0,1-5.961,5.961" transform="translate(-190.776 -198.979)" fill="#f6f0ca"/>
    <path id="Trazado_873943" data-name="Trazado 873943" d="M296.117,217.569c.164-.491,0-20.97,0-20.97s-.246-11.55,6.144-9.666c5.987,1.765-.34,11.756-8.073,12.366a16,16,0,0,1-1.908.006c-7.767-.552-14.154-10.6-8.148-12.372,6.39-1.884,6.144,9.666,6.144,9.666s-.164,20.479,0,20.97" transform="translate(-187.116 -124.003)" fill="none" stroke="#082952" stroke-linecap="round" stroke-linejoin="round" stroke-width="3.283"/>
    <path id="Trazado_873944" data-name="Trazado 873944" d="M298.015,297.48H279.867a5.179,5.179,0,0,1,0-10.359h18.148a5.179,5.179,0,0,1,0,10.359" transform="translate(-182.419 -190.676)" fill="#f6f0ca"/>
    <path id="Trazado_873945" data-name="Trazado 873945" d="M323.24,317.53v4.446l-12.4-4.3Z" transform="translate(-206.429 -210.87)" fill="#f6f0ca"/>
    <path id="Trazado_873946" data-name="Trazado 873946" d="M498.279,323.325h0a.971.971,0,0,0,.918-1.146l-15.781-130.52a1.25,1.25,0,0,0-1.191-1.113.971.971,0,0,0-.918,1.146l15.781,130.52a1.25,1.25,0,0,0,1.191,1.113" transform="translate(-319.628 -126.541)" fill="#082952"/>
    <path id="Trazado_873947" data-name="Trazado 873947" d="M438.255,324.267h0a.971.971,0,0,0,.918-1.146L423.391,192.6a1.25,1.25,0,0,0-1.191-1.113.971.971,0,0,0-.918,1.146l15.781,130.52a1.25,1.25,0,0,0,1.191,1.113" transform="translate(-279.766 -127.166)" fill="#082952"/>
    <path id="Trazado_873948" data-name="Trazado 873948" d="M429.043,238.727l18.576-.292a1.152,1.152,0,0,0,1.082-1.16,1.069,1.069,0,0,0-1.048-1.126l-18.576.292a1.151,1.151,0,0,0-1.082,1.16,1.069,1.069,0,0,0,1.048,1.126" transform="translate(-284.23 -156.826)" fill="#1a3461"/>
    <path id="Trazado_873949" data-name="Trazado 873949" d="M434.667,283.143l18.576-.292a1.152,1.152,0,0,0,1.082-1.16,1.069,1.069,0,0,0-1.048-1.126l-18.576.292a1.151,1.151,0,0,0-1.082,1.16,1.069,1.069,0,0,0,1.048,1.126" transform="translate(-287.964 -186.322)" fill="#082952"/>
    <path id="Trazado_873950" data-name="Trazado 873950" d="M440.623,322.521l18.576-.292a1.151,1.151,0,0,0,1.082-1.16,1.069,1.069,0,0,0-1.047-1.126l-18.576.292a1.151,1.151,0,0,0-1.082,1.16,1.069,1.069,0,0,0,1.048,1.126" transform="translate(-291.92 -212.473)" fill="#082952"/>
    <path id="Trazado_873951" data-name="Trazado 873951" d="M443.475,363.077l18.576-.292a1.151,1.151,0,0,0,1.082-1.16,1.069,1.069,0,0,0-1.048-1.126l-18.576.292a1.151,1.151,0,0,0-1.082,1.16,1.069,1.069,0,0,0,1.048,1.126" transform="translate(-293.814 -239.406)" fill="#082952"/>
    <path id="Trazado_873952" data-name="Trazado 873952" d="M449.15,404.05l18.576-.292a1.151,1.151,0,0,0,1.082-1.16,1.069,1.069,0,0,0-1.048-1.126l-18.576.292a1.151,1.151,0,0,0-1.082,1.16,1.069,1.069,0,0,0,1.048,1.126" transform="translate(-297.582 -266.616)" fill="#082952"/>
    <path id="Trazado_873953" data-name="Trazado 873953" d="M453.644,445.285l18.576-.292a1.151,1.151,0,0,0,1.082-1.16,1.069,1.069,0,0,0-1.048-1.126L453.678,443a1.151,1.151,0,0,0-1.082,1.16,1.069,1.069,0,0,0,1.048,1.126" transform="translate(-300.567 -294)" fill="#082952"/>
    <path id="Trazado_873954" data-name="Trazado 873954" d="M457.192,486.018l18.575-.292a1.151,1.151,0,0,0,1.082-1.16,1.069,1.069,0,0,0-1.048-1.126l-18.576.292a1.151,1.151,0,0,0-1.082,1.16,1.069,1.069,0,0,0,1.048,1.126" transform="translate(-302.923 -321.051)" fill="#082952"/>
    <path id="Trazado_873955" data-name="Trazado 873955" d="M463.917,528.349l18.576-.292a1.152,1.152,0,0,0,1.082-1.16,1.069,1.069,0,0,0-1.048-1.126l-18.576.292a1.151,1.151,0,0,0-1.082,1.16,1.069,1.069,0,0,0,1.048,1.126" transform="translate(-307.389 -349.162)" fill="#082952"/>
    <path id="Trazado_873956" data-name="Trazado 873956" d="M499.763,248.184c-4-3.565-5.36-5.115-9.3-8.788l-1.923,1.554c4.444,8.49,5.767,11.643,10.055,13.448,4.411-2.233,1.9-5.186,1.164-6.214" transform="translate(-324.44 -158.982)" fill="#c95836"/>
    <path id="Trazado_873957" data-name="Trazado 873957" d="M483.162,234.786l-1.734-2.074a2.257,2.257,0,0,0-1.364-.78l-2.159-.357a1.092,1.092,0,0,0-1.249,1.29l2.327,2.484a3.4,3.4,0,0,0,2.091,1l1.384.163Z" transform="translate(-316.532 -153.778)" fill="#c95836"/>
    <path id="Trazado_873958" data-name="Trazado 873958" d="M475.135,271.692l12.5-.6a.8.8,0,1,0-.077-1.6l-12.5.6a.8.8,0,0,0,.076,1.6" transform="translate(-314.98 -178.973)" fill="#d1d1d1" fill-rule="evenodd"/>
    <path id="Trazado_873959" data-name="Trazado 873959" d="M491.938,300.958l12.5-.6a.8.8,0,0,0-.076-1.6l-12.5.6a.8.8,0,1,0,.076,1.6" transform="translate(-326.138 -198.409)" fill="#d1d1d1" fill-rule="evenodd"/>
    <path id="Trazado_873960" data-name="Trazado 873960" d="M545.478,401.742s.44-22.184-4.718-29.825l-2.881-22.094-11.823-3.777,16.393,56.515Z" transform="translate(-349.352 -229.808)" fill="#e3633d" fill-rule="evenodd"/>
    <path id="Trazado_873961" data-name="Trazado 873961" d="M567.876,508.357l-1.353,3.218a20.292,20.292,0,0,1-2.22,3.135c.041.694.668.671,1.109.482l7.135-4.8s1.474-1.437-1.8-3.874c-.99,1.456-1.97,2.674-2.871,1.84" transform="translate(-374.751 -336.376)" fill="#212526" fill-rule="evenodd"/>
    <path id="Trazado_873962" data-name="Trazado 873962" d="M524.736,348.008l5.725,24.158,6.707,24.012,9.777-2.084a34.088,34.088,0,0,1-1.41-5.527c-.038-1.4-1.065-14.49-4.68-19.845l-3.575-26.918Z" transform="translate(-348.475 -226.992)" fill="#12263f" fill-rule="evenodd"/>
    <path id="Trazado_873963" data-name="Trazado 873963" d="M503.582,398.338s4.223-21.831.449-30.21l3.626-29.516-13.688,1.6,6.491,58.447Z" transform="translate(-328.043 -224.872)" fill="#e3633d" fill-rule="evenodd"/>
    <path id="Trazado_873964" data-name="Trazado 873964" d="M508.34,211.241l1.241,4.821a1.659,1.659,0,0,0,1.173,1.192,1.631,1.631,0,0,0,1.6-.446l.393-.408a2.144,2.144,0,0,0,.462-2.231l-2.07-5.583Z" transform="translate(-337.587 -138.52)" fill="#c95836" fill-rule="evenodd"/>
    <path id="Trazado_873965" data-name="Trazado 873965" d="M508.88,219.615l.527,1.551,1.14-1.751Z" transform="translate(-337.945 -145.712)" fill="#873b24" fill-rule="evenodd"/>
    <path id="Trazado_873966" data-name="Trazado 873966" d="M508.342,202.278a1.444,1.444,0,0,0-.737-1.9l-2.519-1.1a1.523,1.523,0,0,0-1.883.753,15.629,15.629,0,0,0-1.437,4.008,1.749,1.749,0,0,0,.829,2c.772.337,3.408.6,4.236-.7a20.984,20.984,0,0,0,1.512-3.071" transform="translate(-333.188 -132.268)" fill="#c95836" fill-rule="evenodd"/>
    <path id="Trazado_873967" data-name="Trazado 873967" d="M510.825,204.207a3.613,3.613,0,0,0,3.613-4.256,3.681,3.681,0,0,0-.4-1.194c-1.161-1.893-3.03-3.247-5.788-1.914a10.29,10.29,0,0,0,2.579,7.364" transform="translate(-337.503 -130.368)" fill="#212526" fill-rule="evenodd"/>
    <path id="Trazado_873968" data-name="Trazado 873968" d="M510.233,210.6a1.082,1.082,0,0,1-1.514.189,1.107,1.107,0,0,1,.106-1.537,1.082,1.082,0,0,1,1.514-.189,1.107,1.107,0,0,1-.106,1.537" transform="translate(-337.663 -138.687)" fill="#c95836" fill-rule="evenodd"/>
    <path id="Trazado_873969" data-name="Trazado 873969" d="M510.217,294.587,491.635,296.9c-2.98,1.259-.933,18.69-.933,18.69l12.29-.017c5.844-.372,11.465.646,11.445-5.292-.037-10.894-4.22-15.692-4.22-15.692" transform="translate(-325.418 -195.634)" fill="#12263f" fill-rule="evenodd"/>
    <path id="Trazado_873970" data-name="Trazado 873970" d="M490.81,227.254l6.713-1.614,1.876-.151,5.068,1.113c2.531.9,4.924,15,4.924,15,2.58,5.9,3.44,11.944,3.876,18.286-9.611,4.943-22.854,4.561-26.583.326-.979-12.682.2-24.254,4.125-32.962" transform="translate(-322.989 -149.746)" fill="#fcf9e8" fill-rule="evenodd"/>
    <path id="Trazado_873971" data-name="Trazado 873971" d="M500.434,514.5l-2.9,1.968a20.514,20.514,0,0,1-3.58,1.428c-.348.605.188.926.661,1.007l8.6-.161s2.022-.407.631-4.23c-1.628.686-3.118,1.177-3.41-.012" transform="translate(-327.958 -341.675)" fill="#212526" fill-rule="evenodd"/>
    <line id="Línea_565" data-name="Línea 565" x1="4.351" y2="0.351" transform="translate(179.581 119.643)" fill="none" stroke="#0d367f" stroke-linecap="round" stroke-linejoin="round" stroke-width="2"/>
    <path id="Trazado_873972" data-name="Trazado 873972" d="M491.534,352.1,493.2,378.56l3.006,24.768,9.985-.477a34.138,34.138,0,0,1-.56-5.679c.173-1.383,1.136-14.464-1.631-20.329l1.365-24.489Z" transform="translate(-326.426 -233.827)" fill="#12263f" fill-rule="evenodd"/>
    <path id="Trazado_873973" data-name="Trazado 873973" d="M460.638,249.672c-4-3.565-5.36-5.115-9.3-8.788l-1.923,1.554c4.444,8.49,5.767,11.643,10.055,13.448,4.411-2.233,1.9-5.186,1.164-6.214" transform="translate(-298.457 -159.97)" fill="#c95836"/>
    <path id="Trazado_873974" data-name="Trazado 873974" d="M444.037,236.274,442.3,234.2a2.259,2.259,0,0,0-1.364-.779l-2.159-.357a1.092,1.092,0,0,0-1.249,1.29l2.326,2.484a3.4,3.4,0,0,0,2.091,1l1.384.163Z" transform="translate(-290.549 -154.766)" fill="#c95836"/>
    <path id="Trazado_873975" data-name="Trazado 873975" d="M484.2,234.364a2,2,0,0,0-3.709-.587c-3.02,5.416-7.369,13.77-6.129,14.885l.8.758a2.2,2.2,0,0,0,3.429-.514l5.239-9.291,1.061-1.783Z" transform="translate(-314.875 -154.569)" fill="#c95836" fill-rule="evenodd"/>
    <path id="Trazado_873976" data-name="Trazado 873976" d="M534.334,210.686a1.737,1.737,0,0,1,.161-1.408c1.925-3.514-3.263-5.147-4.828-6.01-1.633-.9-.219-3.719-3.54-4.371s-4.137,1.151-4.3,1.121c-.232-.044.79,3.03.79,3.03s1.654.306,2.037,3.49-.244,4.947,2.043,7.192,9.661-1.992,9.661-1.992a1.672,1.672,0,0,1-2.029-1.051" transform="translate(-346.524 -131.992)" fill="#212526" fill-rule="evenodd"/>
    <path id="Trazado_873977" data-name="Trazado 873977" d="M490.12,234.429,484.2,246.112l-5.7-6.695s3.889-8.432,7.091-8.675Z" transform="translate(-317.77 -153.235)" fill="#fcf9e8" fill-rule="evenodd"/>
    <line id="Línea_566" data-name="Línea 566" x1="0.125" y2="9.666" transform="translate(178.543 120.921)" fill="none" stroke="#0d367f" stroke-linecap="round" stroke-linejoin="round" stroke-width="2"/>
    <line id="Línea_567" data-name="Línea 567" x1="3.661" y2="7.219" transform="translate(167.495 83.55)" fill="none" stroke="#ded491" stroke-linecap="round" stroke-linejoin="round" stroke-width="1.78"/>
    <path id="Trazado_873978" data-name="Trazado 873978" d="M306.617,544.046l-50.154-.346.146-21.15,50.154.346c-4.877-.034-5.023,21.117-.146,21.15" transform="translate(-170.316 -347.023)" fill="#f1ebe0"/>
    <path id="Trazado_873979" data-name="Trazado 873979" d="M306.823,519.919l-49.94-.345.018-2.569,49.94.345a1.285,1.285,0,1,1-.018,2.569" transform="translate(-170.595 -343.341)" fill="#082952"/>
    <path id="Trazado_873980" data-name="Trazado 873980" d="M306.277,584.7l-49.845-.344.019-2.761,49.845.344a1.38,1.38,0,0,1-.019,2.76" transform="translate(-170.295 -386.237)" fill="#082952"/>
    <path id="Trazado_873981" data-name="Trazado 873981" d="M192.392,516.378l-51.84-.358c-1.11-.007-1.279,24.45-.169,24.458l51.84.358c-5.88-.04-5.712-24.5.169-24.458" transform="translate(-92.728 -342.687)" fill="#082952"/>
    <path id="Trazado_873982" data-name="Trazado 873982" d="M154.915,516.214l-58.608-.4a7.769,7.769,0,0,0-7.822,7.715l-.061,8.921a7.769,7.769,0,0,0,7.714,7.822l58.608.4c-5.88-.041-5.711-24.5.169-24.458" transform="translate(-58.722 -342.547)" fill="#082952"/>
    <line id="Línea_568" data-name="Línea 568" x2="31.443" y2="0.217" transform="translate(99.626 179.187)" fill="none" stroke="#a9c4de" stroke-linecap="round" stroke-linejoin="round" stroke-width="1"/>
    <line id="Línea_569" data-name="Línea 569" x2="31.443" y2="0.217" transform="translate(99.592 184.112)" fill="none" stroke="#a9c4de" stroke-linecap="round" stroke-linejoin="round" stroke-width="1"/>
    <line id="Línea_570" data-name="Línea 570" x2="31.443" y2="0.217" transform="translate(99.558 189.036)" fill="none" stroke="#a9c4de" stroke-linecap="round" stroke-linejoin="round" stroke-width="1"/>
    <line id="Línea_571" data-name="Línea 571" x2="31.443" y2="0.217" transform="translate(99.524 193.961)" fill="none" stroke="#a9c4de" stroke-linecap="round" stroke-linejoin="round" stroke-width="1"/>
    <path id="Trazado_873983" data-name="Trazado 873983" d="M224.451,516.461l6.953.048c-3.781-.026-3.951,24.563-.17,24.589l-6.953-.048c-3.781-.026-3.612-24.615.17-24.589" transform="translate(-147.116 -342.98)" fill="#83b4e3"/>
    <path id="Trazado_873984" data-name="Trazado 873984" d="M199.375,516.288l3.911.027c-3.781-.026-3.951,24.563-.17,24.589l-3.911-.027c-3.781-.026-3.612-24.615.17-24.589" transform="translate(-130.463 -342.865)" fill="#83b4e3"/>
    <line id="Línea_572" data-name="Línea 572" x2="2.982" y2="4.421" transform="translate(84.383 33.372)" fill="none" stroke="#0d367f" stroke-linecap="round" stroke-linejoin="round" stroke-width="3"/>
    <line id="Línea_573" data-name="Línea 573" x1="3.385" y2="4.12" transform="translate(126.953 34.962)" fill="none" stroke="#0d367f" stroke-linecap="round" stroke-linejoin="round" stroke-width="3"/>
    <line id="Línea_574" data-name="Línea 574" x1="0.115" y2="5.331" transform="translate(105.146 23.458)" fill="none" stroke="#0d367f" stroke-linecap="round" stroke-linejoin="round" stroke-width="3"/>
  </g>
</svg>
