<svg xmlns="http://www.w3.org/2000/svg" xmlns:xlink="http://www.w3.org/1999/xlink" width="307" height="246.097" viewBox="0 0 307 246.097">
  <defs>
    <clipPath id="clip-path">
      <rect id="Rectángulo_401444" data-name="Rectángulo 401444" width="158.686" height="246.097" fill="none"/>
    </clipPath>
    <clipPath id="clip-path-2">
      <rect id="Rectángulo_401443" data-name="Rectángulo 401443" width="158.687" height="246.096" fill="none"/>
    </clipPath>
    <clipPath id="clip-path-3">
      <rect id="Rectángulo_401442" data-name="Rectángulo 401442" width="49.69" height="16.638" fill="none"/>
    </clipPath>
  </defs>
  <g id="Grupo_1110294" data-name="Grupo 1110294" transform="translate(-333.999 -1114.137)">
    <path id="Sustracción_1" data-name="Sustracción 1" d="M-1207.106,11846H-1513.9c-.07-1.756-.105-3.527-.105-5.26a130.388,130.388,0,0,1,3.119-28.361,131.615,131.615,0,0,1,8.944-26.42,137.513,137.513,0,0,1,14.153-23.906,145.242,145.242,0,0,1,18.744-20.83,152.54,152.54,0,0,1,22.718-17.184,158.393,158.393,0,0,1,26.075-12.977,163.164,163.164,0,0,1,28.814-8.2A168.267,168.267,0,0,1-1360.5,11700a168.254,168.254,0,0,1,30.935,2.859,163.161,163.161,0,0,1,28.813,8.2,158.391,158.391,0,0,1,26.074,12.977,152.563,152.563,0,0,1,22.718,17.184,145.255,145.255,0,0,1,18.743,20.83,137.562,137.562,0,0,1,14.152,23.906,131.614,131.614,0,0,1,8.944,26.42,130.388,130.388,0,0,1,3.119,28.361c0,1.742-.035,3.512-.105,5.26Z" transform="translate(1848 -10485.771)" fill="#effaf4"/>
    <g id="Grupo_1099294" data-name="Grupo 1099294" transform="translate(412.68 1114.137)">
      <g id="Grupo_1099293" data-name="Grupo 1099293" clip-path="url(#clip-path)">
        <g id="Grupo_1099292" data-name="Grupo 1099292" transform="translate(0 0.001)">
          <g id="Grupo_1099291" data-name="Grupo 1099291" clip-path="url(#clip-path-2)">
            <path id="Trazado_875854" data-name="Trazado 875854" d="M391.938,548.474c0,.907-13.438,1.642-30.014,1.642s-30.014-.735-30.014-1.642,13.438-1.642,30.014-1.642,30.014.735,30.014,1.642" transform="translate(-285.204 -469.883)" fill="#12263f"/>
            <path id="Trazado_875855" data-name="Trazado 875855" d="M775.5,487.2a.352.352,0,0,1-.16-.038l-8.069-4.113a.352.352,0,0,1-.031-.608l7.6-4.931a.352.352,0,0,1,.543.277l.473,9.044a.352.352,0,0,1-.351.37m-7.366-4.5,6.983,3.559-.409-7.827Z" transform="translate(-659.134 -410.269)"/>
            <path id="Trazado_875856" data-name="Trazado 875856" d="M448.445,47.367a.352.352,0,0,1-.335-.458l2.737-8.633a.352.352,0,0,1,.6-.131l6.108,6.687a.352.352,0,0,1-.184.581l-8.845,1.947a.354.354,0,0,1-.076.008m2.888-8.3-2.368,7.471,7.655-1.685Z" transform="translate(-385.038 -32.679)"/>
            <path id="Trazado_875857" data-name="Trazado 875857" d="M198.282,414.162a.365.365,0,0,1-.058,0,.352.352,0,0,1-.272-.223l-2.194-5.846a.352.352,0,0,1,.387-.471l6.16,1.023a.352.352,0,0,1,.214.571l-3.966,4.823a.351.351,0,0,1-.272.128m-1.65-5.751,1.765,4.705,3.192-3.882Z" transform="translate(-168.193 -350.254)"/>
            <path id="Trazado_875858" data-name="Trazado 875858" d="M417.043,296.769a.344.344,0,0,1-.1-.013l-6.01-1.7a.352.352,0,0,1-.15-.591l4.474-4.356a.352.352,0,0,1,.586.165l1.536,6.053a.352.352,0,0,1-.341.438m-5.327-2.221,4.837,1.365-1.236-4.871Z" transform="translate(-352.891 -249.203)"/>
            <path id="Trazado_875859" data-name="Trazado 875859" d="M424.81,435a.352.352,0,0,1-.105-.016l-9.5-2.985a.352.352,0,0,1-.132-.595l7.335-6.734a.352.352,0,0,1,.581.183l2.165,9.719a.352.352,0,0,1-.343.428M416,431.512l8.337,2.62-1.9-8.53Z" transform="translate(-356.566 -364.833)"/>
            <path id="Trazado_875860" data-name="Trazado 875860" d="M517.479,534.66a2.122,2.122,0,1,1,2.122-2.122,2.124,2.124,0,0,1-2.122,2.122m0-3.54a1.418,1.418,0,1,0,1.418,1.418,1.42,1.42,0,0,0-1.418-1.418" transform="translate(-442.836 -455.777)"/>
            <path id="Trazado_875861" data-name="Trazado 875861" d="M425.058,380.308a2.122,2.122,0,1,1,2.122-2.122,2.124,2.124,0,0,1-2.122,2.122m0-3.54a1.418,1.418,0,1,0,1.418,1.418,1.42,1.42,0,0,0-1.418-1.418" transform="translate(-363.421 -323.145)"/>
            <path id="Trazado_875862" data-name="Trazado 875862" d="M593.041,60.657a2.122,2.122,0,1,1,2.122-2.122,2.124,2.124,0,0,1-2.122,2.122m0-3.54a1.418,1.418,0,1,0,1.418,1.418,1.42,1.42,0,0,0-1.418-1.418" transform="translate(-507.765 -48.475)"/>
            <path id="Trazado_875863" data-name="Trazado 875863" d="M916.6,293.726a2.122,2.122,0,1,1,2.122-2.122,2.124,2.124,0,0,1-2.122,2.122m0-3.54a1.418,1.418,0,1,0,1.418,1.418,1.42,1.42,0,0,0-1.418-1.418" transform="translate(-785.792 -248.747)"/>
            <path id="Trazado_875864" data-name="Trazado 875864" d="M562.544,479.243a3.121,3.121,0,1,1,3.121-3.121,3.124,3.124,0,0,1-3.121,3.121m0-5.538a2.417,2.417,0,1,0,2.417,2.417,2.42,2.42,0,0,0-2.417-2.417" transform="translate(-480.701 -406.442)"/>
            <path id="Trazado_875865" data-name="Trazado 875865" d="M674.607,273.543a12.952,12.952,0,0,1-4.71,6.938q-1.209.98-6.857,4.492t-5.963,4.835a4.28,4.28,0,0,0,.089,2.492q-.914-.12-4.176-.346a17.442,17.442,0,0,0-4.514.257,9.675,9.675,0,0,1,.1-4.1,14.26,14.26,0,0,1,3.462-6q2.773-3.109,3.221-4.986a3.92,3.92,0,0,0-.51-3.177,4.166,4.166,0,0,0-2.62-1.827,10.778,10.778,0,0,0-5.1.117l4.781-15.828a29.129,29.129,0,0,1,9.341.764q16.424,3.916,13.454,16.372m-16.491,29.223a5.139,5.139,0,0,1-3.025,3.553,7.587,7.587,0,0,1-5.129.516A8.1,8.1,0,0,1,645.357,304a5.156,5.156,0,0,1-1.128-4.608,5.067,5.067,0,0,1,3.017-3.588,8.239,8.239,0,0,1,5.437-.378,7.571,7.571,0,0,1,4.362,2.7,5.269,5.269,0,0,1,1.071,4.643" transform="translate(-553.445 -220.24)" fill="#b14747"/>
            <path id="Trazado_875866" data-name="Trazado 875866" d="M492.409,140.474a11.576,11.576,0,0,1-1.852,7.263q-.719,1.191-4.4,5.859t-3.544,5.876a3.825,3.825,0,0,0,.831,2.067q-.8.176-3.615.978a15.585,15.585,0,0,0-3.717,1.587,8.646,8.646,0,0,1-1.162-3.481,12.746,12.746,0,0,1,1.087-6.1,11.953,11.953,0,0,0,1.193-5.169,3.5,3.5,0,0,0-1.394-2.516,3.723,3.723,0,0,0-2.757-.74,9.633,9.633,0,0,0-4.25,1.647l-.789-14.757a26.033,26.033,0,0,1,8.085-2.195q15-1.7,16.283,9.676m-4.986,29.575a4.593,4.593,0,0,1-1.464,3.906,6.781,6.781,0,0,1-4.154,1.992,7.239,7.239,0,0,1-4.733-.986,4.61,4.61,0,0,1-2.348-3.531,4.53,4.53,0,0,1,1.447-3.932,7.364,7.364,0,0,1,4.456-1.969,6.768,6.768,0,0,1,4.487.943,4.711,4.711,0,0,1,2.311,3.578" transform="translate(-402.179 -112.204)" fill="#fff"/>
            <path id="Trazado_875867" data-name="Trazado 875867" d="M281.162,319.769a8.425,8.425,0,0,1-.41,5.439q-.365.944-2.413,4.755t-1.8,4.659A2.784,2.784,0,0,0,277.4,336q-.554.228-2.467,1.158a11.346,11.346,0,0,0-2.463,1.607,6.293,6.293,0,0,1-1.273-2.348,9.275,9.275,0,0,1,.009-4.506,8.7,8.7,0,0,0,.2-3.855,2.549,2.549,0,0,0-1.317-1.627,2.708,2.708,0,0,0-2.07-.182,7.008,7.008,0,0,0-2.838,1.717l-2.429-10.477a18.942,18.942,0,0,1,5.517-2.594q10.533-3.111,12.892,4.878m.163,21.826a3.342,3.342,0,0,1-.556,2.984,4.935,4.935,0,0,1-2.726,1.953,5.269,5.269,0,0,1-3.517-.109,3.354,3.354,0,0,1-2.129-2.234,3.3,3.3,0,0,1,.54-3,5.359,5.359,0,0,1,2.944-1.974,4.924,4.924,0,0,1,3.335.109,3.427,3.427,0,0,1,2.108,2.272" transform="translate(-225.778 -269.831)" fill="#fc6"/>
            <path id="Trazado_875868" data-name="Trazado 875868" d="M671.875,17.792a.352.352,0,0,1-.339-.446L676.308.261a.352.352,0,0,1,.523-.2l9.341,5.749a.352.352,0,0,1,.036.574L672.095,17.715a.351.351,0,0,1-.22.078M676.86.9l-4.352,15.58L685.379,6.143Z" transform="translate(-577.026 -0.004)"/>
            <path id="Trazado_875869" data-name="Trazado 875869" d="M680.142,72.547l21.934-13.635,3.705,8.151Z" transform="translate(-584.433 -50.623)" fill="#75a5cd"/>
            <path id="Trazado_875870" data-name="Trazado 875870" d="M694.558,184.246l26.351-.423-.289,5.982Z" transform="translate(-596.821 -157.956)" fill="#fff"/>
            <path id="Trazado_875871" data-name="Trazado 875871" d="M267.414,153.662a.35.35,0,0,1-.143-.031l-19.538-8.7a.352.352,0,0,1-.1-.576l7.547-7.176a.352.352,0,0,1,.523.043l11.99,15.874a.352.352,0,0,1-.281.564M248.5,144.505l17.812,7.929-10.931-14.471Z" transform="translate(-212.693 -117.795)"/>
            <path id="Trazado_875872" data-name="Trazado 875872" d="M226.125,241.736l-24.8-7.216-1.37,8.848Z" transform="translate(-171.819 -201.52)" fill="#75a5cd"/>
            <path id="Trazado_875873" data-name="Trazado 875873" d="M353.918,102.27l-4.2-21.127-5.193,1.111Z" transform="translate(-296.045 -69.725)" fill="#b14747"/>
            <path id="Trazado_875874" data-name="Trazado 875874" d="M231.244,1119.5c-2.7-2.922-11.231-6.331-6.236-16.557s19.665-1.085,30.157-1.085,14.8-4.66,26.715-3.005,28.829-5.65,30.357,2.629-32.943,29.219-32.943,29.219Z" transform="translate(-192.023 -943.013)" fill="#35a064"/>
            <path id="Trazado_875875" data-name="Trazado 875875" d="M343.048,1035.411c-14.647-2.647-15.063-14.953-15.063-14.953v-22.24H302.559v19.789a14.97,14.97,0,0,1-12.6,14.78,85.427,85.427,0,0,1-11.333.97v3.206l6.45,21.607,64.435,9.264,13.81-29.114s-5.624-.662-20.272-3.309" transform="translate(-239.417 -857.75)" fill="#ffa98f"/>
            <path id="Trazado_875876" data-name="Trazado 875876" d="M474.136,1039.281v-.339H448.711v2.971a11.49,11.49,0,0,0,8.3,10.828,12.666,12.666,0,0,0,12.182-2.581,14.64,14.64,0,0,0,4.94-10.879" transform="translate(-385.569 -892.744)" fill="#e8876b"/>
            <path id="Trazado_875877" data-name="Trazado 875877" d="M383.114,593.848c-.057,1.292-.126,2.593-.212,3.892a117.585,117.585,0,0,1-1.391,12.448c-.155.891-.324,1.759-.505,2.595-1.194,5.5-2.964,9.705-5.565,11.1l0,0c-7.128,3.814-26.439,1.291-37.467-.585-4.412-.75-7.5-1.4-7.953-1.493h0l-.057-.011s0,0,0,0,0,0,0-.008a90.96,90.96,0,0,1-2.98-9.328v0a129.209,129.209,0,0,1-3.06-14.809q-.27-1.837-.494-3.772a114.938,114.938,0,0,1-.539-21.12l.154-.08c2.332-1.224,4.582-2.261,6.728-3.14,1.861-.763,3.644-1.406,5.332-1.948,1.037.045,2.131.087,3.275.126,1.492.049,3.068.092,4.715.126,3.366.073,7.028.112,10.857.112,6.317,0,12.18-.107,17.015-.29l4.743.739,7.352,1.143s.624,11.711.061,24.309" transform="translate(-277.223 -487.714)" fill="#8d462e"/>
            <path id="Trazado_875878" data-name="Trazado 875878" d="M396.917,589.66l-.494,3.779v0l-.458,3.5-1.681,12.848-.125.952-.792,6.053a22.259,22.259,0,0,1-.8,3.662q-.335,1.093-.771,2.138l0,0a23.711,23.711,0,0,1-9.647,11.069.057.057,0,0,1-.019.011,24.244,24.244,0,0,1-6.106,2.619,24.95,24.95,0,0,1-13.177,0,24.406,24.406,0,0,1-6.122-2.627,24.136,24.136,0,0,1-5.478-4.517,23.071,23.071,0,0,1-4.929-8.645s0,0,0,0,0,0,0-.008a.237.237,0,0,0-.01-.037,22.444,22.444,0,0,1-.8-3.664l-.792-6.053-.125-.956-1.681-12.845-.458-3.5-.044-.337-.45-3.444a33.973,33.973,0,0,1,4.164-21.414q.644-1.113,1.374-2.159c1.2.078,2.525.147,3.958.21,1.037.045,2.132.088,3.275.126,1.492.049,3.068.092,4.715.126,3.366.073,7.028.112,10.857.112,6.317,0,12.181-.107,17.015-.29,1.477-.055,2.859-.118,4.127-.186q.316.457.616.925a33.859,33.859,0,0,1,4.856,22.55" transform="translate(-293.584 -486.427)" fill="#ffa98f"/>
            <path id="Trazado_875879" data-name="Trazado 875879" d="M515.022,770.822a3.972,3.972,0,0,1-2.869-.818,1.784,1.784,0,0,1-.239-1.9c1.257-3.632,3.242-16.759,3.262-16.891a.352.352,0,1,1,.7.1c-.082.542-2.014,13.324-3.292,17.017a1.128,1.128,0,0,0,.094,1.194c.986,1.081,4.9.409,6.328.059a.352.352,0,0,1,.168.683,19.6,19.6,0,0,1-4.147.55" transform="translate(-439.742 -645.247)"/>
            <path id="Trazado_875880" data-name="Trazado 875880" d="M587.632,689.464c3.842.088,8.359.911,11.656,3.022a6.292,6.292,0,0,1,1.6,1.521,3.585,3.585,0,0,1,.728,2.148.428.428,0,0,1-.753.257c-2.212-2.58-7.354-3.255-10.614-3.678-.649-.085-2.1-.231-2.764-.3a1.49,1.49,0,0,1,.147-2.97" transform="translate(-503.674 -592.444)" fill="#8d462e"/>
            <path id="Trazado_875881" data-name="Trazado 875881" d="M397.292,689.464c-3.842.088-8.36.911-11.656,3.022a6.292,6.292,0,0,0-1.6,1.521,3.585,3.585,0,0,0-.728,2.148.428.428,0,0,0,.753.257c2.213-2.58,7.354-3.255,10.615-3.678.649-.085,2.1-.231,2.764-.3a1.49,1.49,0,0,0-.147-2.97" transform="translate(-329.367 -592.444)" fill="#8d462e"/>
            <path id="Trazado_875882" data-name="Trazado 875882" d="M628.544,760.864a2.275,2.275,0,1,1-2.216-2.786,2.551,2.551,0,0,1,2.216,2.786" transform="translate(-536.287 -651.402)" fill="#1d1d1b"/>
            <path id="Trazado_875883" data-name="Trazado 875883" d="M422.492,760.864a2.275,2.275,0,1,0,2.216-2.786,2.551,2.551,0,0,0-2.216,2.786" transform="translate(-363.039 -651.402)" fill="#1d1d1b"/>
            <path id="Trazado_875884" data-name="Trazado 875884" d="M707.1,757.478s6.611-6.362,9.795-1.262c2.165,3.469-.722,8.834-1.289,14.1-.572,5.311-8.506,1.677-8.506,1.677Z" transform="translate(-607.602 -648.101)" fill="#ffa98f"/>
            <path id="Trazado_875885" data-name="Trazado 875885" d="M723.671,792.188a.352.352,0,0,1-.031-.7c1.94-.176,2.2-1.429,2.669-5.024.147-1.129.314-2.409.591-3.876.273-1.443.112-2.4-.479-2.848-1.016-.768-3.209.045-3.968.424a.352.352,0,0,1-.314-.63c.128-.063,3.138-1.541,4.706-.355.821.621,1.072,1.812.746,3.54-.273,1.447-.439,2.716-.585,3.836-.439,3.366-.7,5.4-3.3,5.634h-.032" transform="translate(-620.353 -669.138)"/>
            <path id="Trazado_875886" data-name="Trazado 875886" d="M306.337,757.478s-6.611-6.362-9.795-1.262c-2.165,3.469.722,8.834,1.289,14.1.572,5.311,8.506,1.677,8.506,1.677Z" transform="translate(-254.131 -648.101)" fill="#ffa98f"/>
            <path id="Trazado_875887" data-name="Trazado 875887" d="M319.105,792.187h-.032c-2.6-.236-2.864-2.268-3.3-5.634-.146-1.12-.311-2.389-.585-3.836-.327-1.728-.076-2.919.746-3.54,1.568-1.187,4.579.292,4.706.355a.352.352,0,0,1-.314.63c-.76-.378-2.955-1.191-3.968-.423-.59.447-.751,1.4-.478,2.848.277,1.467.444,2.747.591,3.876.469,3.6.73,4.849,2.669,5.024a.352.352,0,0,1-.031.7" transform="translate(-270.713 -669.136)"/>
            <path id="Trazado_875888" data-name="Trazado 875888" d="M339.06,559.905c-1.143-.039-2.238-.081-3.275-.126-1.433-.063-2.76-.133-3.959-.21-4.493-.287-7.219-.659-7.219-1.067a49.715,49.715,0,0,0-1.037,6.447c-.711,9.6,1.314,18.855,3.168,21.638,0,0,3.774-19.461,11.926-20.885a5.924,5.924,0,0,0,1.921-.674,7.176,7.176,0,0,0,3.189-5c-1.647-.034-3.223-.078-4.715-.126" transform="translate(-277.913 -479.91)" fill="#12263f"/>
            <path id="Trazado_875889" data-name="Trazado 875889" d="M480.1,558.869a11.044,11.044,0,0,1-.625,1.591,4.953,4.953,0,0,0-.262,1.592c-.3,5.24,1.139,20.319-2.988,25.185l0,0v0c-1.307-14.382-4.869-13.811-7.148-17.09s-10.115-.426-15.1-4.273-15.742,2.781-17.916-.531a0,0,0,0,1,0,0,13.451,13.451,0,0,1-1.524-5.12c1.492.049,3.068.092,4.715.126,3.366.073,7.028.112,10.857.112,6.317,0,12.18-.107,17.015-.29,1.477-.055,2.859-.118,4.127-.186,5.269-.287,8.609-.679,8.855-1.114" transform="translate(-373.387 -480.226)" fill="#12263f"/>
            <path id="Trazado_875890" data-name="Trazado 875890" d="M494.2,952.986a.35.35,0,0,1-.191-.057c-6.416-4.17-12.582-.047-12.644,0a.352.352,0,0,1-.4-.581,12.877,12.877,0,0,1,4.131-1.683,11.927,11.927,0,0,1,9.294,1.678.352.352,0,0,1-.192.647" transform="translate(-413.156 -816.622)"/>
            <g id="Grupo_1099290" data-name="Grupo 1099290" transform="translate(51.01 119.375)" opacity="0.3" style="mix-blend-mode: multiply;isolation: isolate">
              <g id="Grupo_1099289" data-name="Grupo 1099289">
                <g id="Grupo_1099288" data-name="Grupo 1099288" clip-path="url(#clip-path-3)">
                  <path id="Trazado_875891" data-name="Trazado 875891" d="M621.452,852.309l-.917,7.005a22.267,22.267,0,0,1-.8,3.662,8.319,8.319,0,1,1,1.712-10.667" transform="translate(-571.762 -848.321)" fill="#f79598"/>
                  <path id="Trazado_875892" data-name="Trazado 875892" d="M377.917,856.641a8.319,8.319,0,0,1-13.708,6.338,22.447,22.447,0,0,1-.8-3.664l-.917-7.009a8.319,8.319,0,0,1,15.42,4.334" transform="translate(-362.497 -848.322)" fill="#f79598"/>
                </g>
              </g>
            </g>
            <path id="Trazado_875893" data-name="Trazado 875893" d="M158.687,1325.8H0s2.1-41.357,11.215-54.676c2.755-4.027,9.871-8.406,18.455-12.556a2.7,2.7,0,0,0,1.633,1.842c5.815,2.347,40.22,15.82,44.928,7.827a2.982,2.982,0,0,0,.372.641c5,6.573,30.825-2.361,41.284-6.335a7.716,7.716,0,0,0,4.814-5.614c9.262,4.117,19.383,9.24,22.061,16.3,2.792,7.36,13.925,52.572,13.925,52.572" transform="translate(0 -1080.055)" fill="#95dbb3"/>
            <path id="Trazado_875894" data-name="Trazado 875894" d="M546.615,1333.751a21.075,21.075,0,0,1,4.014,14.588,19.978,19.978,0,0,0,4.617,14.588l-4.315,2.4s-4.544-5.817-4.315-15.788-2.91-14.957-2.91-14.957Z" transform="translate(-467.195 -1146.067)" fill="#fff"/>
            <path id="Trazado_875895" data-name="Trazado 875895" d="M452.687,1339.656a20.607,20.607,0,0,1-2.585,19.389c-6.925,9.417-5.909,13.942-5.909,13.942l-4.155-.462s.714-8.571,6.463-15.05c5.817-6.555,2.493-17.82,2.493-17.82Z" transform="translate(-378.116 -1151.141)" fill="#fff"/>
            <path id="Trazado_875896" data-name="Trazado 875896" d="M540.64,1137.72a3.141,3.141,0,0,1,.077-3.822c1.439-1.842,4.748-5.467,11.144-9.726,9.28-6.179,25.831-23.382,31.12-19.247s2.642,12.606,2.973,15.649q.217.409.386.821a7.634,7.634,0,0,1-4.416,9.988c-10.459,3.972-36.286,12.907-41.284,6.335" transform="translate(-464.036 -948.897)" fill="#95dbb3"/>
            <path id="Trazado_875897" data-name="Trazado 875897" d="M257.329,1137.454a4.047,4.047,0,0,0-.566-3.289c-1.88-2.843-7.873-11-17.324-15.43-7.771-3.641-13.912-9.252-17.1-11.752a5.632,5.632,0,0,0-6.868-.078c-2.676,2.03-5.3,7.166-3.881,15.756a6,6,0,0,1-.9,4.138,2.4,2.4,0,0,0-.321,1.8,2.7,2.7,0,0,0,1.653,1.925c6.014,2.428,42.612,16.755,45.307,6.928" transform="translate(-180.72 -950.171)" fill="#95dbb3"/>
            <path id="Trazado_875898" data-name="Trazado 875898" d="M572.41,1259.661a17.678,17.678,0,0,1-3.541-.315.352.352,0,1,1,.142-.689,17.167,17.167,0,0,0,3.436.305c9.93,0,26.587-5.879,33.892-8.654a7.357,7.357,0,0,0,4.751-6.881.352.352,0,0,1,.349-.354h0a.352.352,0,0,1,.352.349,8.064,8.064,0,0,1-5.2,7.544c-7.345,2.79-24.09,8.695-34.179,8.695" transform="translate(-488.577 -1068.15)"/>
            <path id="Trazado_875899" data-name="Trazado 875899" d="M248.159,1278.442c-11.764,0-33.3-8.422-38.082-10.352a3.036,3.036,0,0,1-1.866-2.18.352.352,0,0,1,.689-.143,2.334,2.334,0,0,0,1.44,1.67c2.4.967,10.906,4.326,19.822,6.931,11.027,3.221,18.824,4.155,22.549,2.7a.352.352,0,1,1,.256.655,13.525,13.525,0,0,1-4.808.716" transform="translate(-178.906 -1087.41)"/>
            <path id="Trazado_875900" data-name="Trazado 875900" d="M780.2,1223.413a.352.352,0,0,1-.065-.7c9.209-1.76,11.579-5.017,11.6-5.05a.352.352,0,0,1,.58.4c-.1.143-2.5,3.518-12.05,5.342a.354.354,0,0,1-.066.006" transform="translate(-670.113 -1046.188)"/>
            <path id="Trazado_875901" data-name="Trazado 875901" d="M229.341,1242.907a.356.356,0,0,1-.118-.021,55.13,55.13,0,0,1-12.234-6.281.352.352,0,0,1,.412-.571,54.372,54.372,0,0,0,12.059,6.189.352.352,0,0,1-.118.683" transform="translate(-186.329 -1062.044)"/>
            <path id="Trazado_875902" data-name="Trazado 875902" d="M217.195,1636.115h-.012a.352.352,0,0,1-.34-.363l.581-17.758a.352.352,0,1,1,.7.023l-.581,17.758a.352.352,0,0,1-.351.34" transform="translate(-186.329 -1390.018)"/>
            <path id="Trazado_875903" data-name="Trazado 875903" d="M909.236,1599.751a.352.352,0,0,1-.349-.312l-2.678-23.713a.352.352,0,0,1,.7-.079l2.678,23.713a.352.352,0,0,1-.31.389l-.04,0" transform="translate(-778.686 -1353.655)"/>
          </g>
        </g>
      </g>
    </g>
  </g>
</svg>
