<svg xmlns="http://www.w3.org/2000/svg" xmlns:xlink="http://www.w3.org/1999/xlink" width="400" height="498" viewBox="0 0 400 498">
  <defs>
    <clipPath id="clip-path">
      <rect id="Rectángulo_401363" data-name="Rectángulo 401363" width="232.15" height="381.588" fill="none"/>
    </clipPath>
    <clipPath id="clip-path-2">
      <rect id="Rectángulo_401364" data-name="Rectángulo 401364" width="303.954" height="110.852" fill="none"/>
    </clipPath>
  </defs>
  <g id="Grupo_1099469" data-name="Grupo 1099469" transform="translate(-1020 -836)">
    <rect id="Rectángulo_401362" data-name="Rectángulo 401362" width="400" height="498" rx="12" transform="translate(1020 836)" fill="#f6f0ca"/>
    <g id="Grupo_1099185" data-name="Grupo 1099185" transform="translate(872.624 -1274.153)">
      <g id="Grupo_1099182" data-name="Grupo 1099182" transform="translate(239.41 2145.351)">
        <g id="Grupo_1099181" data-name="Grupo 1099181" clip-path="url(#clip-path)">
          <path id="Trazado_875459" data-name="Trazado 875459" d="M13.915,275.282s-2.378,10.591.216,12.752,19.451,9.293,71.539,11.889,96.394-10.808,99.636-14.266.431-19.235.431-19.235-26.151,15.346-55.977,18.8-73.484-.65-90.343-5.4S15,272.9,15,272.9Z" transform="translate(3.913 80.684)" fill="#92e3a9"/>
          <path id="Trazado_875460" data-name="Trazado 875460" d="M13.915,275.282s-2.378,10.591.216,12.752,19.451,9.293,71.539,11.889,96.394-10.808,99.636-14.266.431-19.235.431-19.235-26.151,15.346-55.977,18.8-73.484-.65-90.343-5.4S15,272.9,15,272.9Z" transform="translate(3.913 80.684)" fill="none" stroke="#263238" stroke-linecap="round" stroke-linejoin="round" stroke-width="1"/>
          <path id="Trazado_875461" data-name="Trazado 875461" d="M86.552,105.241s-41.69.809-44.927,3.643-17,161.5-20.642,176.876-13.357,34.809-9.714,40.07S73.6,342.02,108,342.02s69.618-13.762,76.5-21.451,3.239-17.81,2.025-22.667-7.691-38.046-7.285-39.26,12.143-41.285,12.143-41.285,29.142-65.57,25.094-72.451-44.927-29.142-44.927-29.142L97.075,104.027Z" transform="translate(3.169 31.504)" fill="#92e3a9"/>
          <path id="Trazado_875462" data-name="Trazado 875462" d="M86.552,105.241s-41.69.809-44.927,3.643-17,161.5-20.642,176.876-13.357,34.809-9.714,40.07S73.6,342.02,108,342.02s69.618-13.762,76.5-21.451,3.239-17.81,2.025-22.667-7.691-38.046-7.285-39.26,12.143-41.285,12.143-41.285,29.142-65.57,25.094-72.451-44.927-29.142-44.927-29.142L97.075,104.027Z" transform="translate(3.169 31.504)" fill="none" stroke="#263238" stroke-linecap="round" stroke-linejoin="round" stroke-width="1"/>
          <path id="Trazado_875463" data-name="Trazado 875463" d="M18.538,246.747s12.077-2.4,22.139-1.883a85.346,85.346,0,0,1,17.289,2.581S46.613,234.028,40.421,233s-19.352,3.612-19.352,3.612Z" transform="translate(5.614 70.516)" fill="#263238"/>
          <path id="Trazado_875464" data-name="Trazado 875464" d="M18.538,246.747s12.077-2.4,22.139-1.883a85.346,85.346,0,0,1,17.289,2.581S46.613,234.028,40.421,233s-19.352,3.612-19.352,3.612Z" transform="translate(5.614 70.516)" fill="none" stroke="#263238" stroke-linecap="round" stroke-linejoin="round" stroke-width="1"/>
          <path id="Trazado_875465" data-name="Trazado 875465" d="M139.5,108.757c0-14.3-16.161-25.9-36.1-25.9s-36.093,11.594-36.093,25.9,16.159,25.9,36.093,25.9,36.1-11.594,36.1-25.9" transform="translate(20.385 25.094)" fill="#263238"/>
          <path id="Trazado_875466" data-name="Trazado 875466" d="M139.5,108.757c0-14.3-16.161-25.9-36.1-25.9s-36.093,11.594-36.093,25.9,16.159,25.9,36.093,25.9S139.5,123.059,139.5,108.757Z" transform="translate(20.385 25.094)" fill="none" stroke="#263238" stroke-linecap="round" stroke-linejoin="round" stroke-width="1"/>
          <path id="Trazado_875467" data-name="Trazado 875467" d="M87.018,173.5a38.028,38.028,0,0,1,5.637-3.412" transform="translate(26.353 51.511)" fill="none" stroke="#263238" stroke-linecap="round" stroke-linejoin="round" stroke-width="1"/>
          <path id="Trazado_875468" data-name="Trazado 875468" d="M62.894,203.366S77.1,185.947,90.026,175.26" transform="translate(19.047 53.077)" fill="none" stroke="#263238" stroke-linecap="round" stroke-linejoin="round" stroke-width="1"/>
          <path id="Trazado_875469" data-name="Trazado 875469" d="M79.143,173.788s-11.861,15.2-14.826,20.757" transform="translate(19.478 52.631)" fill="none" stroke="#263238" stroke-linecap="round" stroke-linejoin="round" stroke-width="1"/>
          <path id="Trazado_875470" data-name="Trazado 875470" d="M78.309,139.37a29.322,29.322,0,0,0,2.156,2.585" transform="translate(23.716 42.208)" fill="none" stroke="#263238" stroke-linecap="round" stroke-linejoin="round" stroke-width="1"/>
          <path id="Trazado_875471" data-name="Trazado 875471" d="M65.739,116.318s7.841,17.509,14.743,27.732" transform="translate(19.909 35.226)" fill="none" stroke="#263238" stroke-linecap="round" stroke-linejoin="round" stroke-width="1"/>
          <path id="Trazado_875472" data-name="Trazado 875472" d="M62.61,115.18s7.043,22.611,10.008,27.059" transform="translate(18.961 34.882)" fill="none" stroke="#263238" stroke-linecap="round" stroke-linejoin="round" stroke-width="1"/>
          <path id="Trazado_875473" data-name="Trazado 875473" d="M53.945,169.408c.357,2.193.727,4.062,1.1,5.472" transform="translate(16.337 51.304)" fill="none" stroke="#263238" stroke-linecap="round" stroke-linejoin="round" stroke-width="1"/>
          <path id="Trazado_875474" data-name="Trazado 875474" d="M50.571,133.7s1.682,27.662,3.968,43.7" transform="translate(15.315 40.491)" fill="none" stroke="#263238" stroke-linecap="round" stroke-linejoin="round" stroke-width="1"/>
          <path id="Trazado_875475" data-name="Trazado 875475" d="M32.921,272.355c6.333,4.668,18.224,12.421,31.247,15.77" transform="translate(9.97 82.481)" fill="none" stroke="#263238" stroke-linecap="round" stroke-linejoin="round" stroke-width="1"/>
          <path id="Trazado_875476" data-name="Trazado 875476" d="M29.245,269.468s1.038.9,2.9,2.335" transform="translate(8.857 81.607)" fill="none" stroke="#263238" stroke-linecap="round" stroke-linejoin="round" stroke-width="1"/>
          <path id="Trazado_875477" data-name="Trazado 875477" d="M12.127,223.489s-3.182,8.949-4.375,11.534a6.492,6.492,0,0,0,1.193,7.159c1.591,1.391,4.772,4.772,7.954,5.369s4.177-.2,4.574-1.591l.4-1.393s6.364,2.784,10.739,2.387a21.412,21.412,0,0,0,8.551-3.182l6.562.795,6.762-18.1s-9.943-3.183-13.722-4.375-19.687-5.37-24.062-4.375-4.574,5.766-4.574,5.766" transform="translate(2.174 65.89)" fill="#fcf9e8"/>
          <path id="Trazado_875478" data-name="Trazado 875478" d="M12.127,223.489s-3.182,8.949-4.375,11.534a6.492,6.492,0,0,0,1.193,7.159c1.591,1.391,4.772,4.772,7.954,5.369s4.177-.2,4.574-1.591l.4-1.393s6.364,2.784,10.739,2.387a21.412,21.412,0,0,0,8.551-3.182l6.562.795,6.762-18.1s-9.943-3.183-13.722-4.375-19.687-5.37-24.062-4.375S12.127,223.489,12.127,223.489Z" transform="translate(2.174 65.89)" fill="none" stroke="#263238" stroke-linecap="round" stroke-linejoin="round" stroke-width="1"/>
          <line id="Línea_584" data-name="Línea 584" x1="7.557" y1="1.79" transform="translate(16.489 308.668)" fill="none" stroke="#263238" stroke-linecap="round" stroke-linejoin="round" stroke-width="1"/>
          <path id="Trazado_875479" data-name="Trazado 875479" d="M44.311,225.29s-7.785,10.008-8.154,14.826,3.707,5.189,7.042,6.3S61.546,224.177,60.445,223.9s-11.912-3-16.134,1.388" transform="translate(10.943 67.478)" fill="#263238"/>
          <path id="Trazado_875480" data-name="Trazado 875480" d="M44.311,225.29s-7.785,10.008-8.154,14.826,3.707,5.189,7.042,6.3S61.546,224.177,60.445,223.9,48.534,220.9,44.311,225.29Z" transform="translate(10.943 67.478)" fill="none" stroke="#263238" stroke-linecap="round" stroke-linejoin="round" stroke-width="1"/>
          <path id="Trazado_875481" data-name="Trazado 875481" d="M163.254,157.468s-28.541,54.488-33.731,67.831-6.3,17.422-6.3,17.422l-1.853,11.12s-62.272-.37-66.72,1.113-20.387,16.679-12.6,22.981,32.618,11.861,58.936,18.9,45.592,9.266,50.04,1.483,43.739-82.288,51.152-107.494S225.9,148.2,216.63,133.745s-44.48-15.569-49.3-14.828" transform="translate(12.095 35.962)" fill="#92e3a9"/>
          <path id="Trazado_875482" data-name="Trazado 875482" d="M163.254,157.468s-28.541,54.488-33.731,67.831-6.3,17.422-6.3,17.422l-1.853,11.12s-62.272-.37-66.72,1.113-20.387,16.679-12.6,22.981,32.618,11.861,58.936,18.9,45.592,9.266,50.04,1.483,43.739-82.288,51.152-107.494S225.9,148.2,216.63,133.745s-44.48-15.569-49.3-14.828" transform="translate(12.095 35.962)" fill="none" stroke="#263238" stroke-linecap="round" stroke-linejoin="round" stroke-width="1"/>
          <path id="Trazado_875483" data-name="Trazado 875483" d="M169.037,168.67c-8.852,7.218-24.052,18.861-34.9,23.311" transform="translate(40.623 51.081)" fill="none" stroke="#263238" stroke-linecap="round" stroke-linejoin="round" stroke-width="1"/>
          <path id="Trazado_875484" data-name="Trazado 875484" d="M167.888,163.68s-1.729,1.485-4.559,3.81" transform="translate(49.463 49.57)" fill="none" stroke="#263238" stroke-linecap="round" stroke-linejoin="round" stroke-width="1"/>
          <path id="Trazado_875485" data-name="Trazado 875485" d="M150.319,183s-11.615,5.808-19.746,8.9" transform="translate(39.543 55.419)" fill="none" stroke="#263238" stroke-linecap="round" stroke-linejoin="round" stroke-width="1"/>
          <path id="Trazado_875486" data-name="Trazado 875486" d="M101.6,246.772a16.564,16.564,0,0,0,2.561,3.161" transform="translate(30.77 74.734)" fill="none" stroke="#263238" stroke-linecap="round" stroke-linejoin="round" stroke-width="1"/>
          <path id="Trazado_875487" data-name="Trazado 875487" d="M94.489,226.606s2.533,12.365,6.721,21.527" transform="translate(28.616 68.627)" fill="none" stroke="#263238" stroke-linecap="round" stroke-linejoin="round" stroke-width="1"/>
          <path id="Trazado_875488" data-name="Trazado 875488" d="M87.521,230.406s.275,14.029,1.651,17.33" transform="translate(26.505 69.777)" fill="none" stroke="#263238" stroke-linecap="round" stroke-linejoin="round" stroke-width="1"/>
          <path id="Trazado_875489" data-name="Trazado 875489" d="M106.123,228l36.8,15.2,4.273-5.936Z" transform="translate(32.139 69.05)" fill="#263238"/>
          <path id="Trazado_875490" data-name="Trazado 875490" d="M106.123,228l36.8,15.2,4.273-5.936Z" transform="translate(32.139 69.05)" fill="none" stroke="#263238" stroke-linecap="round" stroke-linejoin="round" stroke-width="1"/>
          <path id="Trazado_875491" data-name="Trazado 875491" d="M103.146,212.757s21.712-2.714,24.426-5.428,10.857-10.117,13.324-10.609,14.063,2.221,16.777,2.221,6.663-4.935,9.623-4.689,4.441,3.948,3.454,6.908-6.661,6.169-7.9,6.417a27.062,27.062,0,0,0-3.208.985s10.363,1.975,13.57,3.208,3.208,4.2,1.974,7.155-2.468,4.689-3.948,5.675-4.688,5.181-4.688,5.181,1.234,4.194-.74,6.909a23.68,23.68,0,0,1-4.441,4.934c-.986.74,1.176,1.152-.977,3.725-1.506,1.8-1.7,2.52-8.892,3.677-2.311.373-11.843-1.48-18.5-3.7s-18.258-4.935-18.258-4.935l-15.79-3.7Z" transform="translate(29.967 58.826)" fill="#fcf9e8"/>
          <path id="Trazado_875492" data-name="Trazado 875492" d="M103.146,212.757s21.712-2.714,24.426-5.428,10.857-10.117,13.324-10.609,14.063,2.221,16.777,2.221,6.663-4.935,9.623-4.689,4.441,3.948,3.454,6.908-6.661,6.169-7.9,6.417a27.062,27.062,0,0,0-3.208.985s10.363,1.975,13.57,3.208,3.208,4.2,1.974,7.155-2.468,4.689-3.948,5.675-4.688,5.181-4.688,5.181,1.234,4.194-.74,6.909a23.68,23.68,0,0,1-4.441,4.934c-.986.74,1.176,1.152-.977,3.725-1.506,1.8-1.7,2.52-8.892,3.677-2.311.373-11.843-1.48-18.5-3.7s-18.258-4.935-18.258-4.935l-15.79-3.7Z" transform="translate(29.967 58.826)" fill="none" stroke="#263238" stroke-linecap="round" stroke-linejoin="round" stroke-width="1"/>
          <path id="Trazado_875493" data-name="Trazado 875493" d="M153.979,212.77s.238,5.481-1.192,7.388a12.9,12.9,0,0,1-3.574,3.1,9.314,9.314,0,0,1-.477,5.481l-1.192,2.621s-1.944,2.336-1.219,3.893" transform="translate(44.265 64.436)" fill="none" stroke="#263238" stroke-linecap="round" stroke-linejoin="round" stroke-width="1"/>
          <path id="Trazado_875494" data-name="Trazado 875494" d="M90.613,206.236l15.38,2.429-4.452,24.285-9.309-2.023Z" transform="translate(27.442 62.458)" fill="#263238"/>
          <path id="Trazado_875495" data-name="Trazado 875495" d="M90.613,206.236l15.38,2.429-4.452,24.285-9.309-2.023Z" transform="translate(27.442 62.458)" fill="none" stroke="#263238" stroke-linecap="round" stroke-linejoin="round" stroke-width="1"/>
          <path id="Trazado_875496" data-name="Trazado 875496" d="M64.071,108.889s-20.237-9.714-33.19-4.857-13.761,32.38-14.166,36.022S2.144,235.577.525,250.551s75.284,22.262,92.688,21.857,25.094-5.666,26.308-10.118,7.285-23.071,3.239-25.5-76.5-17.81-76.5-17.81l-4.048-4.857S51.12,160.7,52.738,152.2" transform="translate(0.151 31.094)" fill="#92e3a9"/>
          <path id="Trazado_875497" data-name="Trazado 875497" d="M64.071,108.889s-20.237-9.714-33.19-4.857-13.761,32.38-14.166,36.022S2.144,235.577.525,250.551s75.284,22.262,92.688,21.857,25.094-5.666,26.308-10.118,7.285-23.071,3.239-25.5-76.5-17.81-76.5-17.81l-4.048-4.857S51.12,160.7,52.738,152.2" transform="translate(0.151 31.094)" fill="none" stroke="#263238" stroke-linecap="round" stroke-linejoin="round" stroke-width="1"/>
          <path id="Trazado_875498" data-name="Trazado 875498" d="M17.576,193.728a18.656,18.656,0,0,0-2.766,1.321" transform="translate(4.485 58.67)" fill="none" stroke="#263238" stroke-linecap="round" stroke-linejoin="round" stroke-width="1"/>
          <path id="Trazado_875499" data-name="Trazado 875499" d="M40.217,192s-10.739-.955-19.756.985" transform="translate(6.197 58.075)" fill="none" stroke="#263238" stroke-linecap="round" stroke-linejoin="round" stroke-width="1"/>
          <path id="Trazado_875500" data-name="Trazado 875500" d="M12.946,186.126S26.3,184.507,34.4,188.15" transform="translate(3.921 56.259)" fill="none" stroke="#263238" stroke-linecap="round" stroke-linejoin="round" stroke-width="1"/>
          <path id="Trazado_875501" data-name="Trazado 875501" d="M75.269,118.874s16.633,9.331,29.21,6.49,11.358-32.453,11.358-32.453l-10.141-6.9Z" transform="translate(22.795 26.049)" fill="#f6f0ca"/>
          <path id="Trazado_875502" data-name="Trazado 875502" d="M75.269,118.874s16.633,9.331,29.21,6.49,11.358-32.453,11.358-32.453l-10.141-6.9Z" transform="translate(22.795 26.049)" fill="none" stroke="#263238" stroke-linecap="round" stroke-linejoin="round" stroke-width="1"/>
          <path id="Trazado_875503" data-name="Trazado 875503" d="M105.438,93.62,92.252,98.228,75.269,116.57a67.687,67.687,0,0,0,10.4,4.483Z" transform="translate(22.795 28.352)" fill="#263238"/>
          <path id="Trazado_875504" data-name="Trazado 875504" d="M105.438,93.62,92.252,98.228,75.269,116.57a67.687,67.687,0,0,0,10.4,4.483Z" transform="translate(22.795 28.352)" fill="none" stroke="#263238" stroke-linecap="round" stroke-linejoin="round" stroke-width="1"/>
          <path id="Trazado_875505" data-name="Trazado 875505" d="M65.275,17.724S33.089,46.334,32.764,69.742s14.63,48.442,14.63,48.442-16.256,27.309-16.58,31.535,9.753,13.655,10.728,13.655,10.729-8.128,10.729-8.128l-5.527,12.029,16.581,8.779s7.785-29.582,12.029-39.014c0,0-17.882-33.161-19.182-46.166S55.522,65.84,59.1,59.664,79.9,44.708,80.881,44.058s23.083,17.556,26.66,32.837,15.677,42.318,15.677,42.318-5.6,29.533-8.2,37.336-11.379,16.58-11.379,16.58,13,4.877,18.206,5.852a47.637,47.637,0,0,0,6.5.975s7.8-13,8.453-13.98.65,13,.65,13a76.277,76.277,0,0,0,27.96-8.779,89.306,89.306,0,0,0,22.758-17.556s8.777-3.9,13.005-16.906-4.878-26.334-15.606-39.014S170.937,80.146,167.361,61.29,157.282,22.6,139.726,10.571,98.112-1.784,86.408,4.719,65.275,17.724,65.275,17.724" transform="translate(9.329 0.151)" fill="#12263f"/>
          <path id="Trazado_875506" data-name="Trazado 875506" d="M65.275,17.724S33.089,46.334,32.764,69.742s14.63,48.442,14.63,48.442-16.256,27.309-16.58,31.535,9.753,13.655,10.728,13.655,10.729-8.128,10.729-8.128l-5.527,12.029,16.581,8.779s7.785-29.582,12.029-39.014c0,0-17.882-33.161-19.182-46.166S55.522,65.84,59.1,59.664,79.9,44.708,80.881,44.058s23.083,17.556,26.66,32.837,15.677,42.318,15.677,42.318-5.6,29.533-8.2,37.336-11.379,16.58-11.379,16.58,13,4.877,18.206,5.852a47.637,47.637,0,0,0,6.5.975s7.8-13,8.453-13.98.65,13,.65,13a76.277,76.277,0,0,0,27.96-8.779,89.306,89.306,0,0,0,22.758-17.556s8.777-3.9,13.005-16.906-4.878-26.334-15.606-39.014S170.937,80.146,167.361,61.29,157.282,22.6,139.726,10.571,98.112-1.784,86.408,4.719,65.275,17.724,65.275,17.724Z" transform="translate(9.329 0.151)" fill="none" stroke="#263238" stroke-linecap="round" stroke-linejoin="round" stroke-width="1"/>
          <path id="Trazado_875507" data-name="Trazado 875507" d="M76.4,24.671S51.653,43.738,48,48.2s-.812,14.2-1.622,26.776,5.679,25.963,9.33,32.86,13.388,28.4,20.69,30.02,7.708-.406,7.708-.406,26.776-12.575,34.482-25.558c0,0-4.869-28.4-7.3-39.351s-3.652-13.793-3.652-13.793S94.249,40.9,88.163,35.219,76.4,24.671,76.4,24.671" transform="translate(13.957 7.471)" fill="#f6f0ca"/>
          <path id="Trazado_875508" data-name="Trazado 875508" d="M76.4,24.671S51.653,43.738,48,48.2s-.812,14.2-1.622,26.776,5.679,25.963,9.33,32.86,13.388,28.4,20.69,30.02,7.708-.406,7.708-.406,26.776-12.575,34.482-25.558c0,0-4.869-28.4-7.3-39.351s-3.652-13.793-3.652-13.793S94.249,40.9,88.163,35.219,76.4,24.671,76.4,24.671Z" transform="translate(13.957 7.471)" fill="none" stroke="#263238" stroke-linecap="round" stroke-linejoin="round" stroke-width="1"/>
          <path id="Trazado_875509" data-name="Trazado 875509" d="M54.887,70.868s2.69-3.256,5.633-1.64" transform="translate(16.622 20.829)" fill="none" stroke="#263238" stroke-linecap="round" stroke-linejoin="round" stroke-width="1"/>
          <path id="Trazado_875510" data-name="Trazado 875510" d="M62.77,72.334c.46,2.057-.216,3.961-1.509,4.25s-2.715-1.145-3.175-3.2S58.3,69.42,59.6,69.132s2.715,1.144,3.175,3.2" transform="translate(17.548 20.925)" fill="#263238"/>
          <path id="Trazado_875511" data-name="Trazado 875511" d="M83.26,72.13c.46,2.059-.216,3.961-1.51,4.25s-2.714-1.145-3.174-3.2.216-3.959,1.509-4.249,2.715,1.145,3.175,3.2" transform="translate(23.753 20.863)" fill="#263238"/>
          <path id="Trazado_875512" data-name="Trazado 875512" d="M75.011,69.543a7.643,7.643,0,0,1,7.235,0" transform="translate(22.717 20.787)" fill="none" stroke="#263238" stroke-linecap="round" stroke-linejoin="round" stroke-width="1"/>
          <path id="Trazado_875513" data-name="Trazado 875513" d="M69.353,25.144s9.721,26.581,31.237,34.077c0,0-21.708-13.542-25.153-36.111" transform="translate(21.003 6.999)" fill="#263238"/>
          <path id="Trazado_875514" data-name="Trazado 875514" d="M69.353,25.144s9.721,26.581,31.237,34.077c0,0-21.708-13.542-25.153-36.111" transform="translate(21.003 6.999)" fill="none" stroke="#263238" stroke-linecap="round" stroke-linejoin="round" stroke-width="1"/>
          <path id="Trazado_875515" data-name="Trazado 875515" d="M69.669,59.5s-1.742,1.728,1.643,3.145,14.648,3.9,17.02,2.219S75.9,58.471,69.669,59.5" transform="translate(20.963 17.974)" fill="#263238"/>
          <path id="Trazado_875516" data-name="Trazado 875516" d="M69.669,59.5s-1.742,1.728,1.643,3.145,14.648,3.9,17.02,2.219S75.9,58.471,69.669,59.5Z" transform="translate(20.963 17.974)" fill="none" stroke="#263238" stroke-linecap="round" stroke-linejoin="round" stroke-width="1"/>
          <path id="Trazado_875517" data-name="Trazado 875517" d="M60.852,59.378s-9.513,4.114-11.746,6.4,10.427-.473,12.66-2.761-.913-3.64-.913-3.64" transform="translate(14.792 17.982)" fill="#263238"/>
          <path id="Trazado_875518" data-name="Trazado 875518" d="M60.852,59.378s-9.513,4.114-11.746,6.4,10.427-.473,12.66-2.761S60.852,59.378,60.852,59.378Z" transform="translate(14.792 17.982)" fill="none" stroke="#263238" stroke-linecap="round" stroke-linejoin="round" stroke-width="1"/>
          <path id="Trazado_875519" data-name="Trazado 875519" d="M60.627,64.641s3.3,5.433,3.793,7.893a61.019,61.019,0,0,1,.739,6.39" transform="translate(18.361 19.576)" fill="none" stroke="#263238" stroke-linecap="round" stroke-linejoin="round" stroke-width="1"/>
          <path id="Trazado_875520" data-name="Trazado 875520" d="M64.694,87.117s-.491,3.442.737,4.672,4.181,3.2,9.589.491" transform="translate(19.563 26.383)" fill="none" stroke="#263238" stroke-linecap="round" stroke-linejoin="round" stroke-width="1"/>
          <path id="Trazado_875521" data-name="Trazado 875521" d="M68.257,98.063s1.721.984,5.163,0" transform="translate(20.671 29.698)" fill="none" stroke="#263238" stroke-linecap="round" stroke-linejoin="round" stroke-width="1"/>
          <path id="Trazado_875522" data-name="Trazado 875522" d="M69.054,62.677s-2.7-4.672,0-8.605" transform="translate(20.549 16.375)" fill="none" stroke="#263238" stroke-linecap="round" stroke-linejoin="round" stroke-width="1"/>
        </g>
      </g>
      <g id="Grupo_1099184" data-name="Grupo 1099184" transform="translate(186 2462.831)">
        <g id="Grupo_1099183" data-name="Grupo 1099183" clip-path="url(#clip-path-2)">
          <path id="Trazado_875523" data-name="Trazado 875523" d="M1,45.338s18.967-3.993,20.464-7.487-1-13.975,5.989-15.972,19.466,2.5,22.46,1.5S58.4,10.4,61.393,8.9c1.256-.628,4.794-.729,8.48-.635" transform="translate(-0.256 -2.112)" fill="none" stroke="#263238" stroke-linecap="round" stroke-linejoin="round" stroke-width="2"/>
          <path id="Trazado_875524" data-name="Trazado 875524" d="M102.528,6.79,87.443,12.074l3.814-5.859L88.06,0Z" transform="translate(-22.424 0)" fill="#263238"/>
          <path id="Trazado_875525" data-name="Trazado 875525" d="M28.522,96.274s14.475-1.5,16.471-5.49S43,80.8,48.487,74.313s10.981,1,16.471-1.5,9.483-7.986,10.981-8.984,3.493.5,5.49-1c1.425-1.068,4.629-4.933,6.891-7.784" transform="translate(-7.314 -14.117)" fill="none" stroke="#263238" stroke-linecap="round" stroke-linejoin="round" stroke-width="2"/>
          <path id="Trazado_875526" data-name="Trazado 875526" d="M114.586,46.052l-7.269,14.235-1.283-6.873-6.6-2.29Z" transform="translate(-25.498 -11.81)" fill="#263238"/>
          <path id="Trazado_875527" data-name="Trazado 875527" d="M370.257,66.627s-14.475-.5-18.468-2.994-5.49-8.984-8.984-10.482-15.972-3.494-15.972-3.494-2.994-.5-7.486-4.991c-3.869-3.869-1.815-3.3-3.4-4.017" transform="translate(-81.022 -10.424)" fill="none" stroke="#263238" stroke-linecap="round" stroke-linejoin="round" stroke-width="2"/>
          <path id="Trazado_875528" data-name="Trazado 875528" d="M302.4,36.446l15.972-.6L313,40.318l1.224,6.882Z" transform="translate(-77.547 -9.192)" fill="#263238"/>
          <path id="Trazado_875529" data-name="Trazado 875529" d="M387.986,22.006a119.168,119.168,0,0,1-11.979,1c-4.493,0-16.471-2.994-16.471-2.994l-8.984-3.494s-9.483,1-12.478,1c-1.757,0-5.061.172-7.491.314" transform="translate(-84.776 -4.235)" fill="none" stroke="#263238" stroke-linecap="round" stroke-linejoin="round" stroke-width="2"/>
          <path id="Trazado_875530" data-name="Trazado 875530" d="M316.492,16.793,330.869,9.81l-3.115,6.259,3.891,5.807Z" transform="translate(-81.162 -2.516)" fill="#263238"/>
          <path id="Trazado_875531" data-name="Trazado 875531" d="M338.277,134.717s-6.988-10.481-10.981-12.977-11.979-9.483-11.979-9.483l-2-11.979-3.356-4.314" transform="translate(-79.488 -24.609)" fill="none" stroke="#263238" stroke-linecap="round" stroke-linejoin="round" stroke-width="2"/>
          <path id="Trazado_875532" data-name="Trazado 875532" d="M303.067,83.642,315.727,93.4h-6.991l-3.462,6.073Z" transform="translate(-77.719 -21.449)" fill="#263238"/>
          <path id="Trazado_875533" data-name="Trazado 875533" d="M83.565,126.076s3.993-8.485,5.989-11.979,2.5-5.49,4.992-10.482A24.57,24.57,0,0,1,99.421,97.3" transform="translate(-21.43 -24.953)" fill="none" stroke="#263238" stroke-linecap="round" stroke-linejoin="round" stroke-width="2"/>
          <path id="Trazado_875534" data-name="Trazado 875534" d="M108.915,86.327l-4.76,15.258-2.426-6.557-6.9-1.142Z" transform="translate(-24.319 -22.138)" fill="#263238"/>
        </g>
      </g>
    </g>
  </g>
</svg>
