<svg xmlns="http://www.w3.org/2000/svg" xmlns:xlink="http://www.w3.org/1999/xlink" width="78" height="78" viewBox="0 0 78 78">
  <defs>
    <clipPath id="clip-path">
      <rect id="Rectángulo_401272" data-name="Rectángulo 401272" width="50.34" height="57.327" fill="#fff"/>
    </clipPath>
  </defs>
  <g id="Grupo_1099104" data-name="Grupo 1099104" transform="translate(-771 -594.605)">
    <circle id="Elipse_11495" data-name="Elipse 11495" cx="39" cy="39" r="39" transform="translate(771 594.605)" fill="#b8aa52"/>
    <g id="Grupo_1099067" data-name="Grupo 1099067" transform="translate(784.83 604.941)">
      <g id="Grupo_1099066" data-name="Grupo 1099066" clip-path="url(#clip-path)">
        <path id="Trazado_874189" data-name="Trazado 874189" d="M49.982,52.932c-4.663,0-12.9-1.879-15.435-9a12.786,12.786,0,0,1,.774-9.989,18.557,18.557,0,0,1,6.3-7.24c5.944-3.932,12.911-4.051,14.25-3.731a.9.9,0,0,1-.42,1.758c-.982-.236-7.455-.077-12.832,3.481C38.009,31.267,34.208,37.6,36.25,43.33a10.758,10.758,0,0,0,6.076,6.178,19.2,19.2,0,0,0,7.884,1.615c5.973-.09,13.085-3.475,14.5-9.568.826-3.554-.179-8.6-3.671-10.958-2.608-1.76-6.414-1.865-10.18-.281-3.622,1.524-6.277,4.229-6.764,6.893-.544,2.976.963,6.759,5.556,8.033a8.353,8.353,0,0,0,7.116-1.7c1.7-1.29,2.845-3.011,2.848-4.282a3.582,3.582,0,0,0-1.732-3.007,4.965,4.965,0,0,0-4.539-.459,3.418,3.418,0,0,0-1.915,2.094,3.018,3.018,0,0,0,.818,2.6.9.9,0,1,1-1.41,1.131,4.7,4.7,0,0,1-1.164-4.156,5.246,5.246,0,0,1,2.939-3.319,6.748,6.748,0,0,1,6.26.6,5.358,5.358,0,0,1,2.552,4.525c0,1.862-1.37,4.053-3.563,5.718a10.156,10.156,0,0,1-8.691,2.006c-4.114-1.141-7.788-4.976-6.852-10.1.594-3.248,3.671-6.48,7.841-8.234,4.331-1.822,8.777-1.654,11.893.448,4.206,2.839,5.407,8.621,4.42,12.866a13.025,13.025,0,0,1-6.553,8.3,20.589,20.589,0,0,1-9.682,2.669l-.255,0" transform="translate(-23.663 -15.976)" fill="#fff"/>
        <path id="Trazado_874190" data-name="Trazado 874190" d="M45.576,57.327a.9.9,0,0,1-.878-.692c-2.4-9.984-.679-15.415,1.147-21.166a56.064,56.064,0,0,0,2.464-10.044,21.04,21.04,0,0,0-4.14-16.177A20.116,20.116,0,0,0,29.744,1.92C18.1.921,12.189,6.12,10.657,7.737c-3.518,3.71-4.834,8.937-3.914,15.536.322,2.31-1.371,4.775-2.865,6.949-1.1,1.6-2.34,3.405-2.024,4.243.163.432.381.5,1.451.452C4.2,34.878,5.859,34.8,6.2,36.66a4.546,4.546,0,0,1-.116,1.963,2.612,2.612,0,0,0-.059,1.411,4.562,4.562,0,0,0,1.145,2.011,4.113,4.113,0,0,1,1.086,1.912,3.319,3.319,0,0,1-.221,1.5c-.316,1.131-.794,2.84.13,3.762.862.86,3.75,1.894,13.409-.834a.9.9,0,0,1,.491,1.74c-8.268,2.335-13.091,2.454-15.176.374-1.674-1.669-.971-4.18-.594-5.529.068-.243.158-.566.178-.707a2.656,2.656,0,0,0-.674-1.044,6.3,6.3,0,0,1-1.523-2.731,4.367,4.367,0,0,1,.046-2.275,2.827,2.827,0,0,0,.1-1.235c-.048-.263-.056-.3-1.032-.26-.961.042-2.568.114-3.222-1.62S.91,31.35,2.388,29.2c1.308-1.9,2.791-4.061,2.565-5.676-1-7.171.477-12.9,4.392-17.03A20.358,20.358,0,0,1,19.111,1,32.066,32.066,0,0,1,29.9.119a22.174,22.174,0,0,1,15.681,8A22.829,22.829,0,0,1,50.1,25.666a57.59,57.59,0,0,1-2.533,10.349c-1.823,5.742-3.4,10.7-1.112,20.2a.9.9,0,0,1-.879,1.116" transform="translate(0 0)" fill="#fff"/>
        <path id="Trazado_874191" data-name="Trazado 874191" d="M54.974,172.092a.9.9,0,0,1-.892-1.057,21.683,21.683,0,0,0-.054-5.765.9.9,0,0,1,1.793-.234,23.007,23.007,0,0,1,.042,6.3.9.9,0,0,1-.89.751" transform="translate(-37.746 -114.764)" fill="#fff"/>
      </g>
    </g>
  </g>
</svg>
