<svg xmlns="http://www.w3.org/2000/svg" width="55" height="55" viewBox="0 0 55 55">
  <g id="Grupo_1110279" data-name="Grupo 1110279" transform="translate(-335 -1038)">
    <g id="Grupo_1110268" data-name="Grupo 1110268" transform="translate(-277.051 -7627)">
      <rect id="Rectángulo_404422" data-name="Rectángulo 404422" width="55" height="55" transform="translate(612.051 8665)" fill="none"/>
    </g>
    <g id="saludm" transform="translate(333.959 1042.851)">
      <path id="Trazado_900147" data-name="Trazado 900147" d="M28.079,5.386c-4.832.327-8.5,1.8-10.821,4.566s-3.311,6.831-2.721,12.42a16.333,16.333,0,0,0-3.473,5.906.425.425,0,0,0,.286.547l2.752.788a19.851,19.851,0,0,0-.9,3.741.424.424,0,0,0,.09.317.416.416,0,0,0,.29.157c.539.055,1.1.2,1.69.281a9.955,9.955,0,0,0-.661,3.331,2.892,2.892,0,0,0,.222,1.258,1.217,1.217,0,0,0,.469.469,3.875,3.875,0,0,0,1.048.4,23.477,23.477,0,0,0,5.8.4v3.521a.426.426,0,0,0,.426.426H40.487a.425.425,0,0,0,.423-.476c-.783-6.639.576-11.215,1.862-15.288,1.311-4.153,2.537-7.8,1.507-12.488a9.725,9.725,0,0,0-16.2-10.28Zm-.726.916c-4.174.4-7.379,1.741-9.442,4.2C15.686,13.149,14.8,17.08,15.4,22.475a.428.428,0,0,1-.114.341,15.319,15.319,0,0,0-3.268,5.316l2.736.783a.421.421,0,0,1,.259.208.429.429,0,0,1,.031.331A23.451,23.451,0,0,0,14.1,33.04a15.9,15.9,0,0,0,1.811.278.426.426,0,0,1,.361.61,9.146,9.146,0,0,0-.8,3.065,2.848,2.848,0,0,0,.111,1.318.549.549,0,0,0,.246.179,3.5,3.5,0,0,0,.723.252,23.316,23.316,0,0,0,6,.356h.026a3.908,3.908,0,0,0,3.28-1.753.426.426,0,0,1,.689.5A4.748,4.748,0,0,1,23,39.936v3.13H40.01c-.682-6.537.665-11.1,1.949-15.168,1.166-3.689,2.29-6.959,1.684-10.988A9.725,9.725,0,1,1,27.353,6.3Zm16.1,9.131A8.873,8.873,0,0,0,28.611,6.072a.1.1,0,0,1-.01.014,8.873,8.873,0,1,0,14.836,9.385.347.347,0,0,1,.015-.038ZM35.323,8.375A3.7,3.7,0,0,0,30.309,7.8c-1.321,1.076-1.415,3.227-.1,5.382.863,1.5,3.062,3.018,4.907,4.02a.428.428,0,0,0,.406,0c1.845-1,4.046-2.522,4.908-4.025,1.318-2.15,1.222-4.3-.1-5.377a3.7,3.7,0,0,0-5.012.569Zm-.363.948a.426.426,0,0,0,.726,0A2.835,2.835,0,0,1,39.8,8.464c1.052.856.956,2.568-.094,4.279a.036.036,0,0,1-.007.01c-.767,1.34-2.7,2.666-4.373,3.592-1.669-.926-3.608-2.252-4.375-3.592a.036.036,0,0,0-.007-.01c-1.05-1.712-1.144-3.423-.094-4.279a2.837,2.837,0,0,1,4.112.859Z" stroke="#59836b" stroke-width="1" fill-rule="evenodd"/>
    </g>
  </g>
</svg>
