<svg xmlns="http://www.w3.org/2000/svg" xmlns:xlink="http://www.w3.org/1999/xlink" width="78" height="78" viewBox="0 0 78 78">
  <defs>
    <clipPath id="clip-path">
      <rect id="Rectángulo_401273" data-name="Rectángulo 401273" width="45.305" height="57.15" fill="#fff"/>
    </clipPath>
  </defs>
  <g id="Grupo_1099105" data-name="Grupo 1099105" transform="translate(-1086 -594.605)">
    <circle id="Elipse_11496" data-name="Elipse 11496" cx="39" cy="39" r="39" transform="translate(1086 594.605)" fill="#b8aa52"/>
    <g id="Grupo_1099069" data-name="Grupo 1099069" transform="translate(1101.983 603.178)">
      <g id="Grupo_1099068" data-name="Grupo 1099068" clip-path="url(#clip-path)">
        <path id="Trazado_874192" data-name="Trazado 874192" d="M100.465,38.267a1.211,1.211,0,0,1-1.028-.566L98.3,35.9l-3.366-.762a2.528,2.528,0,0,1-1.9-3.02l1.622-7.164a2.525,2.525,0,0,1,3.021-1.9l11.347,2.57a2.528,2.528,0,0,1,1.905,3.021L109.3,35.8a2.525,2.525,0,0,1-3.021,1.9l-3.365-.762L101.11,38.08a1.207,1.207,0,0,1-.645.186m.462-1.506h0M97.112,24.743a.764.764,0,0,0-.743.6L94.746,32.5a.764.764,0,0,0,.576.914l3.464.785a1.507,1.507,0,0,1,.948.67l.9,1.427,1.427-.9a1.528,1.528,0,0,1,1.145-.2l3.464.785a.764.764,0,0,0,.914-.577l1.622-7.164a.765.765,0,0,0-.577-.914l-11.347-2.57a.765.765,0,0,0-.171-.019" transform="translate(-65.681 -16.237)" fill="#fff"/>
        <path id="Trazado_874193" data-name="Trazado 874193" d="M33.715,38.028a.881.881,0,0,1-.856-.676l-1-4.177L27.852,31.63a.881.881,0,0,1-.143-1.573l3.664-2.241.231-4.289a.88.88,0,0,1,1.452-.622L36.319,25.7l4.15-1.106a.88.88,0,0,1,1.04,1.188l-1.646,3.967,2.334,3.6a.881.881,0,0,1-.809,1.356l-4.281-.34L34.4,37.7a.881.881,0,0,1-.684.325m-3.565-7.4L32.925,31.7a.882.882,0,0,1,.54.617l.692,2.892L36.031,32.9a.878.878,0,0,1,.753-.323l2.965.236-1.616-2.5a.88.88,0,0,1-.074-.816l1.14-2.747-2.874.765a.88.88,0,0,1-.8-.182L33.267,25.4l-.16,2.97a.882.882,0,0,1-.42.7Zm2.077-2.3h0Z" transform="translate(-19.279 -16.034)" fill="#fff"/>
        <path id="Trazado_874194" data-name="Trazado 874194" d="M8.2,27.857A.881.881,0,0,1,7.409,26.6l1.479-3.114a.881.881,0,1,1,1.591.755L9,27.354a.881.881,0,0,1-.8.5" transform="translate(-5.175 -16.237)" fill="#fff"/>
        <path id="Trazado_874195" data-name="Trazado 874195" d="M8.533,29.007a.878.878,0,0,1-.377-.085L5.042,27.442A.881.881,0,0,1,5.8,25.851l3.114,1.479a.881.881,0,0,1-.378,1.676" transform="translate(-3.207 -18.204)" fill="#fff"/>
        <path id="Trazado_874196" data-name="Trazado 874196" d="M90.707,83.96a.9.9,0,0,1-.164-.016.88.88,0,0,1-.7-1.029l.639-3.387a.881.881,0,0,1,1.73.327l-.639,3.388a.881.881,0,0,1-.864.717" transform="translate(-63.462 -55.68)" fill="#fff"/>
        <path id="Trazado_874197" data-name="Trazado 874197" d="M89.412,85.893a.9.9,0,0,1-.164-.016l-3.388-.639a.881.881,0,0,1,.326-1.731l3.388.639a.881.881,0,0,1-.162,1.746" transform="translate(-60.154 -58.988)" fill="#fff"/>
        <path id="Trazado_874198" data-name="Trazado 874198" d="M85.444,5.11a.881.881,0,0,1-.854-.671l-.823-3.348a.88.88,0,1,1,1.71-.42L86.3,4.019a.88.88,0,0,1-.645,1.065.87.87,0,0,1-.211.026" transform="translate(-59.164 0)" fill="#fff"/>
        <path id="Trazado_874199" data-name="Trazado 874199" d="M80.32,6.887a.881.881,0,0,1-.21-1.736l3.348-.822a.88.88,0,1,1,.42,1.71l-3.348.822a.87.87,0,0,1-.211.026" transform="translate(-56.124 -3.04)" fill="#fff"/>
        <path id="Trazado_874200" data-name="Trazado 874200" d="M10.4,91.511c-2.028,0-3.449-.439-4.328-1.317-1.5-1.5-.879-3.737-.543-4.938.056-.2.131-.467.151-.592a2.329,2.329,0,0,0-.569-.863,5.612,5.612,0,0,1-1.354-2.432,3.907,3.907,0,0,1,.04-2.039,2.384,2.384,0,0,0,.086-1.048.4.4,0,0,0-.043-.141,3.222,3.222,0,0,0-.773-.016c-.866.037-2.317.1-2.913-1.478-.586-1.553.652-3.355,1.962-5.262,1.139-1.658,2.43-3.537,2.237-4.92A20.2,20.2,0,0,1,5.381,55.826a.881.881,0,0,1,1.625.679,18.478,18.478,0,0,0-.912,9.716c.287,2.061-1.209,4.239-2.53,6.16-.9,1.315-2.028,2.951-1.767,3.644.118.313.244.382,1.188.34.752-.033,2.317-.1,2.627,1.6a4.07,4.07,0,0,1-.1,1.758,2.226,2.226,0,0,0-.053,1.2,3.932,3.932,0,0,0,.987,1.73,3.734,3.734,0,0,1,.973,1.718,2.963,2.963,0,0,1-.2,1.36c-.272.973-.684,2.443.091,3.216.743.741,3.249,1.628,11.683-.754a.88.88,0,0,1,.479,1.695A35.455,35.455,0,0,1,10.4,91.511" transform="translate(0 -39.059)" fill="#fff"/>
        <path id="Trazado_874201" data-name="Trazado 874201" d="M132.035,112.827a.881.881,0,0,1-.855-.675c-2.115-8.786-.6-13.565,1.008-18.623a49.2,49.2,0,0,0,2.16-8.8,20.677,20.677,0,0,0,.082-4.947.881.881,0,1,1,1.752-.186,22.422,22.422,0,0,1-.089,5.368,50.634,50.634,0,0,1-2.226,9.1c-1.6,5.028-2.975,9.369-.975,17.679a.881.881,0,0,1-.857,1.087" transform="translate(-91.946 -55.678)" fill="#fff"/>
        <path id="Trazado_874202" data-name="Trazado 874202" d="M49.594,177.732a.9.9,0,0,1-.15-.013.881.881,0,0,1-.719-1.017,18.955,18.955,0,0,0-.048-5.033.88.88,0,0,1,1.746-.228,20.294,20.294,0,0,1,.037,5.56.881.881,0,0,1-.867.731" transform="translate(-34.386 -120.582)" fill="#fff"/>
      </g>
    </g>
  </g>
</svg>
