<svg xmlns="http://www.w3.org/2000/svg" width="55" height="55" viewBox="0 0 55 55">
  <g id="Grupo_1110290" data-name="Grupo 1110290" transform="translate(-201 -3934)">
    <g id="Grupo_1110268" data-name="Grupo 1110268" transform="translate(-411.051 -4731)">
      <rect id="Rectángulo_404422" data-name="Rectángulo 404422" width="55" height="55" transform="translate(612.051 8665)" fill="#e6d567"/>
    </g>
    <g id="linea1" transform="translate(202.85 3937.141)">
      <path id="Trazado_900153" data-name="Trazado 900153" d="M10.094,40.947h1.663a3.372,3.372,0,0,1,1.879.569c1.192.794,3.206,2.138,4.4,2.932a4.262,4.262,0,0,0,2.367.716H40.329a2.548,2.548,0,0,0,0-5.1h-1.84c0-.07.007-.14.007-.211A2.548,2.548,0,0,0,35.95,37.31h-.9A2.547,2.547,0,0,0,32.542,35.2h-.5a2.55,2.55,0,0,0-2.511-2.109H22.187L18.87,29.777a3.584,3.584,0,0,0-2.535-1.05H10.1a1.7,1.7,0,0,0-1.682-1.473H5.9a1.7,1.7,0,0,0-1.7,1.7V40.711a1.7,1.7,0,0,0,1.7,1.694H8.413a1.7,1.7,0,0,0,1.68-1.459Zm16.75,0a3,3,0,0,1-4.688.583l-6.817-6.817a.439.439,0,1,1,.62-.622l6.817,6.817a2.116,2.116,0,0,0,2.993-2.992L18.249,30.4a2.7,2.7,0,0,0-1.914-.794H10.11V40.068h1.647a4.266,4.266,0,0,1,2.367.716l4.4,2.932a3.4,3.4,0,0,0,1.882.569H40.329a1.67,1.67,0,1,0,0-3.339H26.843Zm-17.612-12V40.711a.819.819,0,0,1-.818.818H5.9a.82.82,0,0,1-.818-.818V28.95a.819.819,0,0,1,.818-.818H8.413A.818.818,0,0,1,9.232,28.95ZM27,38.189a3,3,0,0,1,.188,1.88H37.606a1.678,1.678,0,0,0-1.656-1.88ZM25.173,36.08,26.388,37.3l.016.014h7.75a1.671,1.671,0,0,0-1.612-1.231Zm-2.109-2.109L24.3,35.2h6.849a1.669,1.669,0,0,0-1.61-1.231Zm22.306-18.8c0-7.181-6.145-13.022-13.728-13.022S17.915,7.99,17.915,15.171a12.717,12.717,0,0,0,4.349,9.509l-.36,4.451a.437.437,0,0,0,.648.42L26.659,27.3a14.354,14.354,0,0,0,4.985.888c7.583,0,13.728-5.841,13.728-13.02Zm-.878,0c0,6.709-5.766,12.143-12.85,12.143a13.513,13.513,0,0,1-4.86-.9.431.431,0,0,0-.369.025L22.844,28.39l.313-3.861a.433.433,0,0,0-.151-.367,11.857,11.857,0,0,1-4.212-8.991c0-6.71,5.764-12.144,12.85-12.144s12.85,5.434,12.85,12.144Zm-12.85-4.445a5.056,5.056,0,0,0-6.976-.938c-1.814,1.478-1.91,4.431-.1,7.388,1.2,2.1,4.286,4.217,6.865,5.618a.431.431,0,0,0,.418,0c2.579-1.4,5.661-3.518,6.866-5.62,1.81-2.955,1.712-5.908-.1-7.386a5.056,5.056,0,0,0-6.976.938Zm-.374,1a.439.439,0,0,0,.748,0,4.17,4.17,0,0,1,6.047-1.254c1.535,1.25,1.436,3.75-.1,6.252l-.007.012c-1.106,1.933-3.917,3.85-6.315,5.174-2.4-1.324-5.209-3.241-6.317-5.174a.077.077,0,0,0-.007-.012c-1.535-2.5-1.631-5-.1-6.252a4.17,4.17,0,0,1,6.047,1.254Z" fill="#082952" fill-rule="evenodd"/>
    </g>
  </g>
</svg>
