<svg xmlns="http://www.w3.org/2000/svg" xmlns:xlink="http://www.w3.org/1999/xlink" width="78" height="78" viewBox="0 0 78 78">
  <defs>
    <clipPath id="clip-path">
      <rect id="Rectángulo_401274" data-name="Rectángulo 401274" width="48.726" height="53.491" fill="#fff"/>
    </clipPath>
  </defs>
  <g id="Grupo_1099072" data-name="Grupo 1099072" transform="translate(389 11154)">
    <circle id="Elipse_11497" data-name="Elipse 11497" cx="39" cy="39" r="39" transform="translate(-389 -11154)" fill="#b8aa52"/>
    <g id="Grupo_1099071" data-name="Grupo 1099071" transform="translate(-374 -11142)">
      <g id="Grupo_1099070" data-name="Grupo 1099070" clip-path="url(#clip-path)">
        <path id="Trazado_874203" data-name="Trazado 874203" d="M70.852,76.337a6.283,6.283,0,1,1,6.283-6.283,6.29,6.29,0,0,1-6.283,6.283m0-10.887a4.6,4.6,0,1,0,4.6,4.6,4.608,4.608,0,0,0-4.6-4.6" transform="translate(-46.49 -45.914)" fill="#fff"/>
        <path id="Trazado_874204" data-name="Trazado 874204" d="M31.756,137a.84.84,0,0,1-.84-.84V125.215a.84.84,0,0,1,1.434-.594l1.529,1.529a7.118,7.118,0,0,0,5,2.069h5.351a2.805,2.805,0,0,0,2.817-2.7,2.714,2.714,0,0,0-2.712-2.721h-3.07a8.91,8.91,0,0,1-5.679-2.049,13.412,13.412,0,0,0-8.547-3.084h-5.35a13.411,13.411,0,0,0-8.547,3.084,8.911,8.911,0,0,1-5.679,2.049H4.392a2.712,2.712,0,1,0,0,5.424H9.848a7.118,7.118,0,0,0,5-2.069l1.529-1.529a.84.84,0,0,1,1.434.594v10.942a.84.84,0,1,1-1.68,0v-8.914l-.094.095A8.811,8.811,0,0,1,9.848,129.9H4.392a4.392,4.392,0,0,1,0-8.784h3.07a7.229,7.229,0,0,0,4.606-1.662,15.094,15.094,0,0,1,9.62-3.472h5.35a15.1,15.1,0,0,1,9.62,3.472,7.228,7.228,0,0,0,4.606,1.662h3.07a4.394,4.394,0,0,1,4.392,4.406,4.508,4.508,0,0,1-4.5,4.378H38.877a8.81,8.81,0,0,1-6.186-2.561l-.095-.095v8.914a.84.84,0,0,1-.84.84" transform="translate(0 -83.506)" fill="#fff"/>
        <path id="Trazado_874205" data-name="Trazado 874205" d="M34.849,50.2a.841.841,0,0,1-.821-1.022,4.7,4.7,0,0,1,2.238-3.2A3.617,3.617,0,0,0,37.851,44.1a2.636,2.636,0,0,0-3.858-3.089,3.172,3.172,0,0,0-1.214,2.827.84.84,0,0,1-1.68,0,4.814,4.814,0,0,1,1.975-4.234,4.315,4.315,0,0,1,6.35,5.083,5.246,5.246,0,0,1-2.19,2.662,3.091,3.091,0,0,0-1.567,2.192.84.84,0,0,1-.819.659" transform="translate(-22.392 -28.048)" fill="#fff"/>
        <path id="Trazado_874206" data-name="Trazado 874206" d="M42.678,86.248A.837.837,0,0,1,42.085,86a.756.756,0,0,1-.107-.126.74.74,0,0,1-.076-.146.63.63,0,0,1-.047-.157.811.811,0,0,1-.017-.165.8.8,0,0,1,.017-.162.6.6,0,0,1,.047-.157.668.668,0,0,1,.076-.145.779.779,0,0,1,.107-.129.87.87,0,0,1,1.187,0,.748.748,0,0,1,.1.129.792.792,0,0,1,.079.145,1.012,1.012,0,0,1,.047.157.8.8,0,0,1,.017.162.811.811,0,0,1-.017.165,1.009,1.009,0,0,1-.047.157,1.048,1.048,0,0,1-.079.146.726.726,0,0,1-.1.126.842.842,0,0,1-.594.246" transform="translate(-30.123 -60.898)" fill="#fff"/>
        <path id="Trazado_874207" data-name="Trazado 874207" d="M114.682,41.611a.841.841,0,0,1-.821-1.022,4.7,4.7,0,0,1,2.238-3.2,3.617,3.617,0,0,0,1.585-1.877,2.636,2.636,0,0,0-3.858-3.088,3.172,3.172,0,0,0-1.214,2.827.84.84,0,1,1-1.68,0,4.815,4.815,0,0,1,1.975-4.234,4.315,4.315,0,0,1,6.35,5.083,5.246,5.246,0,0,1-2.19,2.662,3.091,3.091,0,0,0-1.567,2.192.84.84,0,0,1-.819.659" transform="translate(-79.872 -21.864)" fill="#fff"/>
        <path id="Trazado_874208" data-name="Trazado 874208" d="M122.508,77.631a.8.8,0,0,1-.162-.017.616.616,0,0,1-.159-.047.707.707,0,0,1-.143-.076.785.785,0,0,1-.129-.106.839.839,0,0,1-.246-.594.8.8,0,0,1,.017-.162,1.013,1.013,0,0,1,.047-.157.8.8,0,0,1,.079-.146.769.769,0,0,1,.1-.129.858.858,0,0,1,.759-.229,1,1,0,0,1,.157.047,1.076,1.076,0,0,1,.146.078.884.884,0,0,1,.126.1.773.773,0,0,1,.106.129.8.8,0,0,1,.076.146.777.777,0,0,1,.047.157.8.8,0,0,1,.017.162.838.838,0,0,1-.246.594.885.885,0,0,1-.126.106.819.819,0,0,1-.146.076.628.628,0,0,1-.157.047.825.825,0,0,1-.165.017" transform="translate(-87.601 -54.686)" fill="#fff"/>
        <path id="Trazado_874209" data-name="Trazado 874209" d="M75.415,11.245a.841.841,0,0,1-.821-1.022,4.7,4.7,0,0,1,2.238-3.2,3.618,3.618,0,0,0,1.585-1.877A2.636,2.636,0,0,0,74.56,2.056a3.172,3.172,0,0,0-1.214,2.827.84.84,0,1,1-1.68,0A4.814,4.814,0,0,1,73.641.65a4.315,4.315,0,0,1,6.35,5.083A5.246,5.246,0,0,1,77.8,8.395a3.092,3.092,0,0,0-1.567,2.192.84.84,0,0,1-.819.659" transform="translate(-51.599 0)" fill="#fff"/>
        <path id="Trazado_874210" data-name="Trazado 874210" d="M83.238,47.266a.8.8,0,0,1-.162-.017,1.015,1.015,0,0,1-.157-.047.92.92,0,0,1-.145-.079.87.87,0,0,1-.129-.1.947.947,0,0,1-.1-.129.871.871,0,0,1-.079-.143,1.069,1.069,0,0,1-.047-.16.8.8,0,0,1-.017-.162.844.844,0,0,1,.246-.594.89.89,0,0,1,.129-.106.906.906,0,0,1,.145-.076.78.78,0,0,1,.157-.047.8.8,0,0,1,.328,0,.77.77,0,0,1,.157.047.889.889,0,0,1,.146.076.741.741,0,0,1,.126.106.92.92,0,0,1,.106.126.831.831,0,0,1,.076.146.785.785,0,0,1,.05.157.807.807,0,0,1,0,.328.807.807,0,0,1-.05.16.7.7,0,0,1-.076.143.789.789,0,0,1-.106.129.726.726,0,0,1-.126.1.9.9,0,0,1-.146.079,1,1,0,0,1-.157.047.809.809,0,0,1-.165.017" transform="translate(-59.327 -32.822)" fill="#fff"/>
      </g>
    </g>
  </g>
</svg>
