<svg xmlns="http://www.w3.org/2000/svg" width="55" height="55" viewBox="0 0 55 55">
  <g id="Grupo_1110291" data-name="Grupo 1110291" transform="translate(-518 -3934)">
    <g id="Grupo_1110288" data-name="Grupo 1110288" transform="translate(-94.051 -4731)">
      <rect id="Rectángulo_404422" data-name="Rectángulo 404422" width="55" height="55" transform="translate(612.051 8665)" fill="#e6d567"/>
    </g>
    <g id="promo" transform="translate(516.391 3937.425)">
      <path id="Trazado_900151" data-name="Trazado 900151" d="M17.469,39.065a1.307,1.307,0,0,0-1.031,1.279v1.776a1.309,1.309,0,0,0,1.308,1.309h8.31a1.31,1.31,0,0,0,1.309-1.309V40.344a1.312,1.312,0,0,0-1.041-1.282V34.748a2.649,2.649,0,0,0-.773-1.871l-2.31-2.31V25.422a1.912,1.912,0,0,0-1.49-1.864V23.3a1.912,1.912,0,0,0-1.49-1.864v-.543a1.912,1.912,0,0,0-1.911-1.911h-.037V17.8a1.912,1.912,0,0,0-3.824,0v14.08a3.133,3.133,0,0,0,.524,1.732c.563.843,1.512,2.267,2.073,3.107a2.291,2.291,0,0,1,.384,1.267ZM41.3,18.98h-.035a1.912,1.912,0,0,0-1.913,1.911v.543a1.914,1.914,0,0,0-1.49,1.864v.261a1.912,1.912,0,0,0-1.49,1.864v5.145l-2.31,2.31a2.65,2.65,0,0,0-.774,1.871v4.314a1.312,1.312,0,0,0-1.041,1.282V42.12a1.31,1.31,0,0,0,1.309,1.309h8.31a1.309,1.309,0,0,0,1.308-1.309V40.344a1.307,1.307,0,0,0-1.031-1.279V37.983a2.291,2.291,0,0,1,.384-1.267c.561-.841,1.51-2.265,2.073-3.107a3.133,3.133,0,0,0,.524-1.732V17.8a1.912,1.912,0,0,0-3.824,0Zm-23.558,20.9h8.31a.467.467,0,0,1,.467.467V42.12a.467.467,0,0,1-.467.467h-8.31a.466.466,0,0,1-.465-.467V40.344A.466.466,0,0,1,17.746,39.877Zm15.815,0h8.31a.466.466,0,0,1,.465.467V42.12a.466.466,0,0,1-.465.467h-8.31a.467.467,0,0,1-.467-.467V40.344A.467.467,0,0,1,33.561,39.877Zm7.743-.843V37.983a3.122,3.122,0,0,1,.526-1.734c.561-.843,1.51-2.267,2.071-3.107a2.276,2.276,0,0,0,.384-1.266V17.8a1.069,1.069,0,0,0-2.139,0V27.26a2.176,2.176,0,0,1,.381.305,2.225,2.225,0,0,1,0,3.148l-4.816,4.818a.422.422,0,1,1-.6-.6l4.816-4.816a1.383,1.383,0,1,0-1.956-1.956l-5.313,5.311a1.8,1.8,0,0,0-.526,1.274v4.287ZM17.469,19.465V17.8a1.069,1.069,0,0,0-2.139,0v14.08a2.276,2.276,0,0,0,.384,1.266c.561.841,1.51,2.265,2.071,3.107a3.123,3.123,0,0,1,.526,1.734v1.052H25.48V34.748a1.8,1.8,0,0,0-.526-1.274l-5.313-5.311a1.383,1.383,0,0,0-1.956,1.956L22.5,34.935a.422.422,0,0,1-.6.6l-4.816-4.818a2.225,2.225,0,0,1,.381-3.453v-7.8Zm4.28,4.974v4.638l.647.647v-4.3a1.069,1.069,0,0,0-.647-.982Zm16.117,0a1.069,1.069,0,0,0-.647.982v4.3l.647-.647ZM20.26,22.315v5.273l.647.647V23.3a1.072,1.072,0,0,0-.647-.982Zm19.1,0a1.072,1.072,0,0,0-.647.982v4.937l.647-.647Zm-19.939,4.73V20.89a1.069,1.069,0,0,0-1.068-1.068h-.037v7.12a2.23,2.23,0,0,1,1.105.1ZM41.3,19.822h-.035a1.07,1.07,0,0,0-1.07,1.068v6.154a2.23,2.23,0,0,1,1.105-.1ZM25.293,3.746A2.816,2.816,0,0,0,22.98,4.856a2.461,2.461,0,0,0-.44,1.19,2.591,2.591,0,0,0-1.449,2.128,2.465,2.465,0,0,0,.079.762,3.155,3.155,0,0,0-.964,2.189,2.5,2.5,0,0,0,.3,1.136,4.056,4.056,0,0,0,.27,5.3,2.875,2.875,0,0,0-.035.45A3.455,3.455,0,0,0,22.9,21.094c1.432,2.513,5.413,3.089,6.906.549,1.493,2.54,5.474,1.963,6.906-.549a3.455,3.455,0,0,0,2.165-3.087,2.875,2.875,0,0,0-.035-.45,4.054,4.054,0,0,0,.268-5.3,2.461,2.461,0,0,0,.3-1.136,3.146,3.146,0,0,0-.962-2.189,2.465,2.465,0,0,0,.079-.762,2.591,2.591,0,0,0-1.449-2.128,2.462,2.462,0,0,0-.44-1.19,2.816,2.816,0,0,0-2.314-1.111,3.109,3.109,0,0,0-4.515-1.021,3.109,3.109,0,0,0-4.515,1.021Zm9.395.876a3.568,3.568,0,0,1,.115.843.421.421,0,1,1-.843.017,2.362,2.362,0,0,0-3.731-2.019V5.545a.421.421,0,1,1-.843,0V3.463a2.362,2.362,0,0,0-3.731,2.019.421.421,0,1,1-.843-.017,3.568,3.568,0,0,1,.115-.843,1.851,1.851,0,0,0-1.261.723,1.906,1.906,0,0,0-.091,1.9.422.422,0,0,1-.775.332A3.577,3.577,0,0,1,22.609,7a1.595,1.595,0,0,0-.573,1.881.152.152,0,0,1,.013.035,2.622,2.622,0,0,0,1,1.156.421.421,0,0,1-.472.7,3.73,3.73,0,0,1-1.018-1,2.146,2.146,0,0,0-.509,1.335,2.056,2.056,0,0,0,.988,1.608.421.421,0,0,1-.492.684,3.951,3.951,0,0,1-.5-.421,3.239,3.239,0,0,0,.054,3.669,2.656,2.656,0,0,1,.581-.682.421.421,0,1,1,.543.644,1.851,1.851,0,0,0-.573,1.93,2.843,2.843,0,0,0,3.023,2.01.421.421,0,1,1,.047.841,4.727,4.727,0,0,1-.536,0c1.554,1.539,4.513,1.569,5.2-.9V19.433a.421.421,0,1,1,.843,0v1.053c.691,2.474,3.65,2.444,5.2.9a4.727,4.727,0,0,1-.536,0,.421.421,0,1,1,.047-.841,2.843,2.843,0,0,0,3.023-2.01,1.852,1.852,0,0,0-.573-1.93.421.421,0,0,1,.543-.644,2.657,2.657,0,0,1,.581.682,3.239,3.239,0,0,0,.054-3.669,3.949,3.949,0,0,1-.5.421.421.421,0,0,1-.49-.684,2.058,2.058,0,0,0,.986-1.608,2.146,2.146,0,0,0-.509-1.335,3.729,3.729,0,0,1-1.018,1,.421.421,0,1,1-.472-.7,2.623,2.623,0,0,0,1-1.156.152.152,0,0,1,.013-.035A1.595,1.595,0,0,0,37.006,7a3.577,3.577,0,0,1-.192.573.422.422,0,0,1-.775-.332,1.906,1.906,0,0,0-.091-1.9,1.851,1.851,0,0,0-1.261-.723Zm-4.88,4.759a3.141,3.141,0,0,0-4.21-.425c-1.121.912-1.215,2.735-.1,4.56a11.264,11.264,0,0,0,4.1,3.369.43.43,0,0,0,.4,0,11.274,11.274,0,0,0,4.105-3.37c1.116-1.823,1.023-3.647-.1-4.558a3.141,3.141,0,0,0-4.21.425Zm-.359.925a.422.422,0,0,0,.718,0,2.292,2.292,0,0,1,3.32-.7c.851.694.76,2.083-.093,3.471a.027.027,0,0,0-.007.012,9.925,9.925,0,0,1-3.579,2.942,9.926,9.926,0,0,1-3.579-2.942.027.027,0,0,0-.007-.012c-.853-1.389-.944-2.777-.093-3.471a2.292,2.292,0,0,1,3.32.7Z" transform="translate(0 0)" fill="#082952" fill-rule="evenodd"/>
    </g>
  </g>
</svg>
