<svg xmlns="http://www.w3.org/2000/svg" xmlns:xlink="http://www.w3.org/1999/xlink" width="505" height="351" viewBox="0 0 505 351">
  <defs>
    <clipPath id="clip-path">
      <rect id="Rect치ngulo_401410" data-name="Rect치ngulo 401410" width="318.641" height="257.713" fill="none"/>
    </clipPath>
  </defs>
  <g id="Grupo_1099492" data-name="Grupo 1099492" transform="translate(-915 -3711)">
    <rect id="Rect치ngulo_401411" data-name="Rect치ngulo 401411" width="505" height="351" transform="translate(915 3711)" fill="none"/>
    <g id="Grupo_1099278" data-name="Grupo 1099278" transform="translate(1000 3731.146)">
      <path id="Trazado_875708" data-name="Trazado 875708" d="M956.081,1054.912l-.333,5.783,8.33-1.4v-5.231Z" transform="translate(-814.143 -897.896)" fill="#c6725a"/>
      <g id="Grupo_1099277" data-name="Grupo 1099277" transform="translate(0 -0.002)">
        <g id="Grupo_1099276" data-name="Grupo 1099276" transform="translate(0 0)" clip-path="url(#clip-path)">
          <path id="Trazado_875709" data-name="Trazado 875709" d="M1195.739,780.24s-4.051-38.849,3.7-44.122c6.318-4.3,17.765,40.365,17.765,40.365Z" transform="translate(-1017.675 -626.805)" fill="#95dbb3"/>
          <path id="Trazado_875710" data-name="Trazado 875710" d="M1738.488,650.717s-6.3-20.7-9.731-28.537c-3.866-8.837-13.756-10.053-13.756-10.053l5.814,63.719Z" transform="translate(-1460.905 -521.433)" fill="#95dbb3"/>
          <path id="Trazado_875711" data-name="Trazado 875711" d="M1739.745,837.07l2.324-3.812-5.469-24.781Z" transform="translate(-1479.303 -688.691)" fill="#082952"/>
          <path id="Trazado_875712" data-name="Trazado 875712" d="M1299.118,593.876l-31.337-3.174-19.714,7.261-21.283,14.532,16.661,68.484,38.568,15.28,23.564-43.672Z" transform="translate(-1045.022 -503.182)" fill="#95dbb3"/>
          <path id="Trazado_875713" data-name="Trazado 875713" d="M1349.241,449.464l11.684,20.926,3.708.375s-1.954,7.963-13.7,10.788c-8.522,2.05-12.609-1.933-12.609-1.933l2.885-1.97-5.082-8.391Z" transform="translate(-1138.166 -382.871)" fill="#efa48f"/>
          <path id="Trazado_875714" data-name="Trazado 875714" d="M1347.459,539.5l1.82,2.949s9.017-1.3,8.318-11.024c-.685-9.517-10.138,8.075-10.138,8.075" transform="translate(-1147.818 -450.284)" fill="#d37c75"/>
          <path id="Trazado_875715" data-name="Trazado 875715" d="M1224.638,353.07s1.97,17.726-9.356,21.1c-15.458,4.6-25.773-24.577-25.773-24.577l16.926-15.648,14.094,11.506Z" transform="translate(-1013.269 -284.465)" fill="#efa48f"/>
          <path id="Trazado_875716" data-name="Trazado 875716" d="M1346.947,528.111c.724.379.68,1.865.2,2.95s-1.671,1.941-2.315,1.372c-.587-.519-.382-2.026.206-2.993s1.6-1.491,1.913-1.329" transform="translate(-1145.278 -449.84)" fill="#d37c75"/>
          <path id="Trazado_875717" data-name="Trazado 875717" d="M1120.186,283.337s-5.063,1.749-4.326,5.523,10.131,5.155,17.814-1.013,9.237-9.573,9.237-9.573a13.042,13.042,0,0,0,6.178,7.364c4.694,2.3,10.908,1.933,10.908,1.933s1.335-16.293-7.134-20.619-16.016,2.117-16.016,2.117a5.36,5.36,0,0,0-5.983-1.289c-3.59,1.473-1.565,5.615-1.565,5.615s-8.008-7.938-12.979-1.2c-4.637,6.288,3.866,11.138,3.866,11.138" transform="translate(-949.746 -226.127)" fill="#1e2633"/>
          <path id="Trazado_875718" data-name="Trazado 875718" d="M1385.948,387.691c-1.035,3,.219,6.147,2.8,7.039s5.513-.814,6.548-3.81-.219-6.147-2.8-7.039-5.514.814-6.548,3.81" transform="translate(-1180.295 -326.804)" fill="#efa48f"/>
          <path id="Trazado_875719" data-name="Trazado 875719" d="M1408.783,401.972c-.377.137-.753.276-1.106.441a4.007,4.007,0,0,0-.948.6,3.529,3.529,0,0,0-.683.815,6.6,6.6,0,0,0-.486.935.249.249,0,0,1-.3.119.208.208,0,0,1-.153-.19v0a6.763,6.763,0,0,1,.217-1.748,8.386,8.386,0,0,1,.27-.847c.059-.138.116-.276.179-.412l.207-.4a5.006,5.006,0,0,1,1.18-1.435,3.536,3.536,0,0,1,1.78-.794,3.808,3.808,0,0,0-1.574.964,5.421,5.421,0,0,0-.99,1.421l-.176.389c-.054.131-.1.265-.151.4a7.856,7.856,0,0,0-.243.81,7.592,7.592,0,0,0-.224,1.656l-.458-.073a7.061,7.061,0,0,1,.564-.97,3.833,3.833,0,0,1,.822-.84,3.98,3.98,0,0,1,1.09-.549,8.212,8.212,0,0,1,1.188-.289" transform="translate(-1196.921 -339.932)" fill="#1e2633"/>
          <path id="Trazado_875720" data-name="Trazado 875720" d="M1204.919,455.533c.576,1.174,5.349-1.58,4.521-3.329s-5.424,1.488-4.521,3.329" transform="translate(-1026.298 -384.777)" fill="#1e2633"/>
          <path id="Trazado_875721" data-name="Trazado 875721" d="M1268.533,414.423c.967,1.835,9.042-1.432,8.212-3.065s-9.179,1.231-8.212,3.065" transform="translate(-1080.52 -349.997)" fill="#1e2633"/>
          <path id="Trazado_875722" data-name="Trazado 875722" d="M1226.209,477.541a2.326,2.326,0,0,1,0-1.352,2.1,2.1,0,0,1,.833-1.149,2.538,2.538,0,0,1,1.342-.4,3.349,3.349,0,0,1,1.322.232,12.786,12.786,0,0,0-1.28.155,3.1,3.1,0,0,0-1.106.427,2.239,2.239,0,0,0-.75.875,4.349,4.349,0,0,0-.362,1.212" transform="translate(-1044.447 -404.315)" fill="#1e2633"/>
          <path id="Trazado_875723" data-name="Trazado 875723" d="M1235.829,485.33a1.378,1.378,0,1,1-2.034-.9,1.612,1.612,0,0,1,2.034.9" transform="translate(-1050.525 -412.544)" fill="#1e2633"/>
          <path id="Trazado_875724" data-name="Trazado 875724" d="M1290.783,444.11a2.891,2.891,0,0,1,.309-1.7,2.811,2.811,0,0,1,1.287-1.247,3.753,3.753,0,0,1,1.738-.341,5.1,5.1,0,0,1,1.687.344,16.251,16.251,0,0,0-1.673.045,4.653,4.653,0,0,0-1.534.4,2.985,2.985,0,0,0-1.172,1,4.373,4.373,0,0,0-.642,1.5" transform="translate(-1099.518 -375.505)" fill="#1e2633"/>
          <path id="Trazado_875725" data-name="Trazado 875725" d="M1300.55,453.564a1.466,1.466,0,1,1-2.166-.956,1.715,1.715,0,0,1,2.166.956" transform="translate(-1105.515 -385.428)" fill="#1e2633"/>
          <path id="Trazado_875726" data-name="Trazado 875726" d="M1268.455,479.466c.254,1.209.505,2.413.791,3.605.148.594.292,1.189.469,1.772a13.669,13.669,0,0,0,.6,1.706,4.7,4.7,0,0,0,.406.774,1.994,1.994,0,0,0,.256.32,1.028,1.028,0,0,0,.143.123,1.607,1.607,0,0,0,.173.1,4.025,4.025,0,0,0,1.651.405,11.6,11.6,0,0,0,1.779-.042c.6-.051,1.192-.14,1.787-.244a11.667,11.667,0,0,1-1.755.483,9.528,9.528,0,0,1-1.824.187,4.128,4.128,0,0,1-1.85-.377,1.558,1.558,0,0,1-.221-.123,1.485,1.485,0,0,1-.2-.171,2.444,2.444,0,0,1-.321-.389,5.1,5.1,0,0,1-.459-.847,17.08,17.08,0,0,1-1-3.6,28.182,28.182,0,0,1-.425-3.686" transform="translate(-1080.519 -408.428)" fill="#1e2633"/>
          <path id="Trazado_875727" data-name="Trazado 875727" d="M469.528,356.662c-2.743,1.291-6.132,1.937-7.988.726a4,4,0,0,1-1.614-3.55A4.038,4.038,0,0,1,455,351.982a3.277,3.277,0,0,1,.888-4.68s-3.954-.645-4.438-3.066,2.1-4.277,2.1-4.277-4.2-1.13-4.276-4.68,4.2-4.2,4.2-4.2-3.954-1.614-3.873-4.438,3.389-2.985,3.389-2.985-1.856-2.421-1.049-4.922,4.277-2.824,4.277-2.824-2.017-3.389,0-6.052a4.585,4.585,0,0,1,5.164-1.452,5.013,5.013,0,0,1,2.824-4.761,4.956,4.956,0,0,1,5.326.807s1.21-3.712,4.841-3.792a5.247,5.247,0,0,1,4.922,2.582,2.957,2.957,0,0,1,3.066-1.614c2.259.242,2.743,1.695,2.743,1.695a5.742,5.742,0,0,1,6.213-2.1c3.873,1.21,3.47,4.035,3.47,4.035s3.873-1.856,5.648,0,0,4.2,0,4.2,2.9-1.614,4.841.484a4.152,4.152,0,0,1,.484,4.68,4.024,4.024,0,0,1,3.147,1.21c1.13,1.372-.4,3.308-.4,3.308s4.277-.888,5,1.291-2.34,3.631-2.34,3.631a4.545,4.545,0,0,1,2.451,4.357,3.492,3.492,0,0,1-3.339,3.389s2.5,4.761-.646,7.585-5.084,2.582-5.084,2.582a3.849,3.849,0,0,1,1.453,4.68c-1.211,2.985-3.631,1.936-3.631,1.936s1.13,3.873-.807,5.326-4.841.484-4.841.484a3.194,3.194,0,0,1-.807,2.985,2.315,2.315,0,0,1-2.824.161s-.4,4.6-4.438,5.245a6.466,6.466,0,0,1-6.213-2.824Z" transform="translate(-382.709 -256.115)" fill="#1e2633"/>
          <path id="Trazado_875728" data-name="Trazado 875728" d="M676.489,612.781a8.826,8.826,0,1,1,8.827-8.827,8.836,8.836,0,0,1-8.827,8.827m0-16.957a8.131,8.131,0,1,0,8.131,8.131,8.14,8.14,0,0,0-8.131-8.131" transform="translate(-568.741 -506.953)" fill="#f96"/>
          <path id="Trazado_875729" data-name="Trazado 875729" d="M1423.2,1117.421s29.22,8.5,41.021-18.6c0,0-2.877,33.373-13.911,32.816s-27.11-14.211-27.11-14.211" transform="translate(-1212.34 -936.014)" fill="#1e2633"/>
          <path id="Trazado_875730" data-name="Trazado 875730" d="M118.328,992.75l-10.533,75.829-25.17,7.171s0,1.537,2.462,2.3,29.821,0,29.821,0l18.064-81.094Z" transform="translate(-70.383 -845.663)" fill="#c6725a"/>
          <path id="Trazado_875731" data-name="Trazado 875731" d="M826.292,900.834c.081.242,5.971,5.922,8.392,6.148s15.17-4.292,15.17-4.292l.646,12.023s-15.25,8.553-17.994,8.311-18.882-11.092-18.882-11.092Z" transform="translate(-693.077 -767.365)" fill="#c6725a"/>
          <path id="Trazado_875732" data-name="Trazado 875732" d="M555.4,1555.883l-4.609,4.049.722,2.524,1.524-1.091s-2.759,19.71.9,21.433c4.452,2.1,7.215-8.4,7.215-8.4Z" transform="translate(-469.181 -1325.362)" fill="#12263f"/>
          <path id="Trazado_875733" data-name="Trazado 875733" d="M590.441,1472.915l-13.194,12.293s-2.734,20.987,1.853,22.515,7.308-18.363,7.308-18.363l11.176-7.893Z" transform="translate(-491.033 -1254.686)" fill="#c6725a"/>
          <path id="Trazado_875734" data-name="Trazado 875734" d="M931.585,1176.447s2.612,14.449.368,23.655a44.129,44.129,0,0,1-5.171,12.059s10.961-3.448,11.084-3.079,4.3,13.2,4.3,13.2-30.406,12.042-42.6,14.136a17.8,17.8,0,0,1-16.872-5.709s-8.128,1.681-12.562-2.216-6.65-11.04,5.172-28.651,17-23.4,17-23.4Z" transform="translate(-738.178 -1002.143)" fill="#fcf9e8"/>
          <path id="Trazado_875735" data-name="Trazado 875735" d="M1165.341,1417.5c-1.5,1.06-3.022,2.07-4.559,3.062-.766.5-1.542.983-2.314,1.474l-2.331,1.446-2.348,1.418c-.789.463-1.572.936-2.366,1.389-1.583.917-3.177,1.816-4.8,2.664,1.495-1.061,3.021-2.071,4.558-3.062.766-.5,1.543-.983,2.314-1.474l2.332-1.445,2.349-1.418c.788-.463,1.572-.935,2.366-1.389,1.583-.917,3.177-1.816,4.8-2.665" transform="translate(-976.737 -1207.481)" fill="#1e2633"/>
          <path id="Trazado_875736" data-name="Trazado 875736" d="M939.325,575.832s-.361-18.594-9.32-29.517c-4.6-5.61-11.96-5.391-17.419-3.95-4.118,1.087-14.512,5.377-14.28,13.643.1,3.553-.419,6.635-3.6,11.081-3.452,4.832,2.714,7.993,3.471,11.884a7.71,7.71,0,0,1-1.189,5.747c10.756,2.81,37.44-3.6,42.332-8.887" transform="translate(-761.262 -461.269)" fill="#1e2633"/>
          <path id="Trazado_875737" data-name="Trazado 875737" d="M955.254,831.466s-8.816,4.251-10.076,5.961c-2.4,3.262-5.344,24.4-5.344,24.4l9.516,1.188-1.5,26.132c15.233,5.826,35.882,3.6,49.256-1.329l-8.557-55.675-15.5-4.688Z" transform="translate(-800.587 -704.862)" fill="#fcc4c3"/>
          <path id="Trazado_875738" data-name="Trazado 875738" d="M1211.234,975.165l-5.063.713.335-16.017,4.841,10.2Z" transform="translate(-1027.464 -817.647)" fill="#e59493"/>
          <path id="Trazado_875739" data-name="Trazado 875739" d="M1061.566,731.044s-5.378,7.3-12.715,7.4c-5.757.081-5.08-3.4-5.08-3.4l2.249-1.693-.213-8.812,8.255-10.271s3.46,12.739,4.983,15.913Z" transform="translate(-889.103 -608.447)" fill="#c6725a"/>
          <path id="Trazado_875740" data-name="Trazado 875740" d="M1062.939,758.681s-.167,6.148-5.114,8.259l-.1-3.209s.14.006.14.006Z" transform="translate(-901.012 -646.274)" fill="#aa4636"/>
          <path id="Trazado_875741" data-name="Trazado 875741" d="M963.921,603.9s-4.745,23.4,8.724,24c10.225.454,12.984-13.956,12.984-13.956,1.712-4.306-.431-17.594-9.554-17.438s-11.79,5.528-12.154,7.4" transform="translate(-820.415 -508.125)" fill="#c6725a"/>
          <path id="Trazado_875742" data-name="Trazado 875742" d="M1022.213,755.936c1.342.917-1.088,4.454-3.451,2.271-1.579-1.458,2.4-2.988,3.451-2.271" transform="translate(-867.509 -643.78)" fill="#aa4636"/>
          <path id="Trazado_875743" data-name="Trazado 875743" d="M962.128,583.626c-.526-.3-3.846.243-7.8-3.584a8.963,8.963,0,0,1-3-5.844s-2.5-.885-4.227.438c-1.957,1.5-.747,2.486-2.689,4.106-1.8,1.5-3.5.1-4.93,1.452-.972.923-2.18,4.189-2.18,4.189s-5.885-2.572-3.649-6.982,10.282-12.218,17.183-11.175,10.543,6.408,10.816,10.276.474,7.123.474,7.123" transform="translate(-794.893 -482.254)" fill="#1e2633"/>
          <path id="Trazado_875744" data-name="Trazado 875744" d="M971.752,688.854a2.5,2.5,0,0,1,.783-.856,1.8,1.8,0,0,1,1.19-.339,1.5,1.5,0,0,1,1.065.668,2.312,2.312,0,0,1,.391,1.1,6.383,6.383,0,0,0-.691-.846,1.392,1.392,0,0,0-.818-.425,1.941,1.941,0,0,0-.947.185,8.122,8.122,0,0,0-.972.514" transform="translate(-827.776 -585.768)" fill="#1e2633"/>
          <path id="Trazado_875745" data-name="Trazado 875745" d="M980.112,696.092c-.131.727-.63,1.246-1.115,1.158s-.771-.748-.64-1.475.63-1.245,1.115-1.158.771.748.64,1.475" transform="translate(-833.375 -591.694)" fill="#1e2633"/>
          <path id="Trazado_875746" data-name="Trazado 875746" d="M1027.608,687.433a2.982,2.982,0,0,1,.958-.878,2.293,2.293,0,0,1,1.32-.341,1.717,1.717,0,0,1,.69.2,1.818,1.818,0,0,1,.534.455,2.465,2.465,0,0,1,.512,1.2,5.5,5.5,0,0,0-.793-.936,1.657,1.657,0,0,0-.983-.431,2.676,2.676,0,0,0-1.115.194,9.479,9.479,0,0,0-1.125.528" transform="translate(-875.357 -584.539)" fill="#1e2633"/>
          <path id="Trazado_875747" data-name="Trazado 875747" d="M1038.987,695.392c-.144.8-.69,1.362-1.22,1.267s-.844-.818-.7-1.613.69-1.362,1.22-1.267.844.818.7,1.613" transform="translate(-883.384 -590.978)" fill="#1e2633"/>
          <path id="Trazado_875748" data-name="Trazado 875748" d="M994.978,705.89a11.515,11.515,0,0,1-.036,1.368,6.865,6.865,0,0,1-.248,1.363,5.51,5.51,0,0,1-.562,1.286,6.465,6.465,0,0,1-.851,1.108l-.017-.291c.3.287.593.58.878.881s.568.607.835.93c-.351-.229-.686-.475-1.016-.728s-.654-.511-.973-.776l-.15-.125.134-.166a8.809,8.809,0,0,0,.757-1.073,6.953,6.953,0,0,0,.558-1.179,11.922,11.922,0,0,0,.371-1.276c.1-.437.2-.881.32-1.322" transform="translate(-845.738 -601.304)" fill="#1e2633"/>
          <path id="Trazado_875749" data-name="Trazado 875749" d="M1026.1,658.377c-.16,1.375,5.518,2.621,5.677,1.409s-5.518-2.783-5.677-1.409" transform="translate(-874.07 -560.376)" fill="#1e2633"/>
          <path id="Trazado_875750" data-name="Trazado 875750" d="M956.465,660.2c.455,1.307,6.109-.046,5.724-1.206s-6.179-.1-5.724,1.206" transform="translate(-814.733 -560.929)" fill="#1e2633"/>
          <path id="Trazado_875751" data-name="Trazado 875751" d="M1191.943,1194.3s-47.443-20.738-58.072-15.825-14.125,21.19-8.777,29.2,80.219,30.14,80.219,30.14l6.376-25.484Z" transform="translate(-956.291 -1003.228)" fill="#1e2633"/>
          <path id="Trazado_875752" data-name="Trazado 875752" d="M1644.2,914.792s17.278-78.269,12.341-87.525-18.923-10.738-25.3-5.266-40.726,66.572-40.726,66.572l11.635,28.947s7.493.231,12.4-1.261a30.156,30.156,0,0,0,9.426-4.9Z" transform="translate(-1354.859 -697.502)" fill="#1e2633"/>
          <path id="Trazado_875753" data-name="Trazado 875753" d="M1777.742,1440.352l-3.533,18.642s29.754,12.537,31.479,9.224-16.114-16.568-16.114-16.568l2.336-8.9Z" transform="translate(-1511.34 -1226.948)" fill="#efa48f"/>
          <path id="Trazado_875754" data-name="Trazado 875754" d="M1805.688,1523.483c-1.726,3.313-31.479-9.224-31.479-9.224l1.791-9.029,13.574,1.685s17.84,13.255,16.115,16.568" transform="translate(-1511.34 -1282.213)" fill="#1e2633"/>
          <path id="Trazado_875755" data-name="Trazado 875755" d="M1882.015,1527.567a3.43,3.43,0,0,1-.324.642,5.7,5.7,0,0,1-.412.57,5.608,5.608,0,0,1-.478.516.368.368,0,1,1-.242-.2,5.569,5.569,0,0,1,.412-.57,5.7,5.7,0,0,1,.478-.515,3.437,3.437,0,0,1,.566-.444" transform="translate(-1601.658 -1301.241)" fill="#455260"/>
          <path id="Trazado_875756" data-name="Trazado 875756" d="M1898.207,1540.18a3.437,3.437,0,0,1-.309.648,5.708,5.708,0,0,1-.4.578,5.562,5.562,0,0,1-.466.526.368.368,0,1,1-.247-.194,5.591,5.591,0,0,1,.4-.578,5.7,5.7,0,0,1,.466-.525,3.441,3.441,0,0,1,.555-.455" transform="translate(-1615.493 -1311.985)" fill="#455260"/>
          <path id="Trazado_875757" data-name="Trazado 875757" d="M1912.255,1552.452a3.471,3.471,0,0,1-.324.642,5.739,5.739,0,0,1-.411.57,5.639,5.639,0,0,1-.478.516.368.368,0,1,1-.243-.2,5.6,5.6,0,0,1,.412-.57,5.72,5.72,0,0,1,.478-.515,3.441,3.441,0,0,1,.566-.444" transform="translate(-1627.417 -1322.439)" fill="#455260"/>
          <path id="Trazado_875758" data-name="Trazado 875758" d="M1928.083,1565.627a3.438,3.438,0,0,1-.309.648,5.67,5.67,0,0,1-.4.578,5.539,5.539,0,0,1-.466.525.368.368,0,1,1-.247-.193,5.577,5.577,0,0,1,.4-.578,5.71,5.71,0,0,1,.467-.525,3.441,3.441,0,0,1,.555-.455" transform="translate(-1640.943 -1333.662)" fill="#455260"/>
          <path id="Trazado_875759" data-name="Trazado 875759" d="M1784.3,1560.328q1.7.746,3.427,1.4c1.149.45,2.308.874,3.466,1.3q3.482,1.254,7.008,2.384l1.761.568,1.769.546c1.175.378,2.363.711,3.543,1.075l3.554,1.042c1.186.345,2.377.671,3.561,1.026-1.207-.267-2.408-.555-3.612-.837-1.2-.307-2.4-.6-3.589-.931-2.384-.652-4.758-1.345-7.11-2.109s-4.689-1.575-6.994-2.473c-.574-.229-1.151-.451-1.723-.687s-1.144-.471-1.709-.722c-1.13-.5-2.26-1.005-3.353-1.584" transform="translate(-1519.938 -1329.148)" fill="#455260"/>
          <path id="Trazado_875760" data-name="Trazado 875760" d="M1846.7,1517.047c-1.026.215-2.05.432-3.047.714-.248.075-.495.15-.735.237a3.238,3.238,0,0,0-.676.31,1.469,1.469,0,0,0-.5.468.557.557,0,0,0-.038.556.7.7,0,0,0,.484.342,1.269,1.269,0,0,0,.67-.047c.057-.015.11-.041.166-.061l.173-.081c.116-.052.23-.11.342-.172s.225-.123.336-.188.222-.13.331-.2a21.435,21.435,0,0,0,2.491-1.88m0,0a12.732,12.732,0,0,1-2.318,2.139,7.418,7.418,0,0,1-.67.433c-.115.068-.232.134-.352.193l-.179.092c-.066.027-.13.06-.2.082a1.61,1.61,0,0,1-.875.07,1.09,1.09,0,0,1-.754-.539.9.9,0,0,1-.1-.486,1.055,1.055,0,0,1,.153-.452,1.773,1.773,0,0,1,.638-.592,3.615,3.615,0,0,1,.758-.318c.254-.084.512-.147.77-.207a18.429,18.429,0,0,1,3.124-.414" transform="translate(-1568.452 -1292.28)" fill="#455260"/>
          <path id="Trazado_875761" data-name="Trazado 875761" d="M1878.01,1494.077c.948-.448,1.892-.9,2.8-1.406.223-.13.446-.262.66-.4a3.237,3.237,0,0,0,.585-.46,1.469,1.469,0,0,0,.374-.571.557.557,0,0,0-.093-.55.7.7,0,0,0-.55-.219,1.27,1.27,0,0,0-.64.2c-.052.028-.1.066-.147.1l-.149.119c-.1.078-.2.161-.293.247s-.19.172-.282.262-.186.178-.276.271a21.431,21.431,0,0,0-1.983,2.409m0,0a12.723,12.723,0,0,1,1.755-2.621,7.393,7.393,0,0,1,.55-.578c.1-.093.194-.184.3-.27l.153-.131c.058-.042.112-.089.175-.126a1.608,1.608,0,0,1,.834-.272,1.088,1.088,0,0,1,.858.348.9.9,0,0,1,.207.451,1.056,1.056,0,0,1-.043.475,1.771,1.771,0,0,1-.482.725,3.6,3.6,0,0,1-.663.486c-.228.141-.464.262-.7.381a18.43,18.43,0,0,1-2.941,1.132" transform="translate(-1599.762 -1269.307)" fill="#455260"/>
          <path id="Trazado_875762" data-name="Trazado 875762" d="M1694.956,1446.409l17.982,7.17s-5.667,31.786-9.385,31.432-5.135-22.534-5.135-22.534l-6.948-2.133Z" transform="translate(-1440.859 -1232.107)" fill="#efa48f"/>
          <path id="Trazado_875763" data-name="Trazado 875763" d="M1100.524,679.24a3.534,3.534,0,1,0,5.2-1.278,3.807,3.807,0,0,0-5.2,1.278" transform="translate(-936.749 -577.027)" fill="#c6725a"/>
          <path id="Trazado_875764" data-name="Trazado 875764" d="M1115.079,691.768a1.789,1.789,0,0,0-.752-.141,2.149,2.149,0,0,0-.728.143,2.023,2.023,0,0,0-.625.375,2.272,2.272,0,0,0-.476.559.208.208,0,0,1-.295.066.228.228,0,0,1-.09-.247l0-.008a6.33,6.33,0,0,1,.409-1.156,4.784,4.784,0,0,1,.3-.541,3.444,3.444,0,0,1,.394-.483,2.213,2.213,0,0,1,1.058-.617,2.1,2.1,0,0,1,1.168.065,2.753,2.753,0,0,0-1.092.191,2.31,2.31,0,0,0-.851.645,3.206,3.206,0,0,0-.318.448,4.307,4.307,0,0,0-.263.495,8.128,8.128,0,0,0-.4,1.075l-.382-.188a2.676,2.676,0,0,1,.6-.624,2.232,2.232,0,0,1,.77-.356,2.06,2.06,0,0,1,.825-.028,1.547,1.547,0,0,1,.739.324" transform="translate(-947.335 -587.484)" fill="#1e2633"/>
          <path id="Trazado_875765" data-name="Trazado 875765" d="M1169.413,1035.594s1.411,8.211.79,11.365c-.438,2.226-6.853,8.488-8.64,10.036-1.6,1.385-4.9,1.205-4.9,1.205s-.847,5.234-1.873,5.17-.806-4.041-.806-4.041-.926,7.12-2.145,6.992-1.219-4.49-1.219-4.49-.428,4.807-1.711,4.612-1.236-5.589-1.236-5.589-.2,4.732-1.672,4.515-1.564-5.587-1.277-7.345c.7-4.318,9.259-3.7,9.259-3.7l5.873-8.147-1.475-8.916Z" transform="translate(-975.009 -882.159)" fill="#c6725a"/>
          <path id="Trazado_875766" data-name="Trazado 875766" d="M1225.511,885.952s-1.978-15.384-3.356-20.027a12.5,12.5,0,0,0-5.2-6.827s-8.557,9.285-8.921,14.929.819,14.8.819,14.8Z" transform="translate(-1028.99 -731.813)" fill="#fcc4c3"/>
          <path id="Trazado_875767" data-name="Trazado 875767" d="M1185.175,794s1.158-6.877,2.968-6.877.941,6.008.941,6.008,2.244-2.534,3.257-2.244a1.656,1.656,0,0,1,1.086,1.448s1.524-1.158,2.391-.869.722,2.1.722,2.1,1.737-.941,2.389-.434.579,2.1.579,2.1a1.984,1.984,0,0,1,1.81,0c1.448,1.013-1.082,8.759-2.674,8.035s-.583-3.33-.583-3.33-1.683,3.04-2.7,2.136-.272-4.018-.272-4.018-1.593,3.547-2.606,2.823-.289-4.126-.289-4.126-1.375,4.126-2.606,2.823-.579-4.357-.579-4.357Z" transform="translate(-1009.578 -670.505)" fill="#c6725a"/>
          <path id="Trazado_875768" data-name="Trazado 875768" d="M625.17,1069.4l3.532,7.772s36.869-25.424,45.836-22.934,15.248,12.1,12.662,18.623c-2.3,5.794-12.662,16.413-26.875,29.913-17.222,16.357-40.983,30.186-40.983,30.186l-12.931-19.581,6.657-42.552Z" transform="translate(-516.565 -897.894)" fill="#b8aa52"/>
          <path id="Trazado_875769" data-name="Trazado 875769" d="M613.809,1430.927l-18.836-23.478-6.957,5.009,15.459,23.326Z" transform="translate(-500.896 -1198.92)" fill="#f99"/>
          <path id="Trazado_875770" data-name="Trazado 875770" d="M771.357,1510.412l5.545,2.625v2.625l-1.765-.63s8.073,18.191,5.028,20.854c-3.7,3.24-9.246-6.091-9.246-6.091Z" transform="translate(-656.698 -1286.627)" fill="#12263f"/>
          <path id="Trazado_875771" data-name="Trazado 875771" d="M639.485,1455.132l16.066,8.19s8.4,19.426,4.41,22.156-12.076-15.646-12.076-15.646l-12.916-4.515Z" transform="translate(-540.892 -1239.538)" fill="#c6725a"/>
          <path id="Trazado_875772" data-name="Trazado 875772" d="M159.171,1157.558l-2.883,7.279s-37.411-8.867-42.583-5.172-8.07,21.772-6.346,25.959,20.123,14.6,40.538,22.669a388.09,388.09,0,0,0,38.506,12.433l8.142-23.745-7.013-38Z" transform="translate(-91.027 -986.053)" fill="#b8aa52"/>
          <path id="Trazado_875773" data-name="Trazado 875773" d="M357.878,1243.26c2.141,1.042,4.266,2.115,6.4,3.177s4.245,2.156,6.367,3.236l3.18,1.625,3.17,1.643c2.115,1.093,4.221,2.2,6.329,3.309s4.21,2.224,6.31,3.345,4.2,2.251,6.291,3.382q1.572.847,3.134,1.712l3.127,1.724,3.124,1.73,3.111,1.755.078.044-.034.08-.984,2.317-1,2.313.892-2.354.9-2.35.044.124-12.648-6.634-12.629-6.667-6.308-3.348-3.152-1.677-3.145-1.69-6.291-3.379c-2.09-1.141-4.188-2.265-6.272-3.416" transform="translate(-304.854 -1059.057)" fill="#fdbcba"/>
          <path id="Trazado_875774" data-name="Trazado 875774" d="M440.471,1206.687c1.766.263,3.515.619,5.254,1.013.871.194,1.736.41,2.6.627s1.724.458,2.584.694q2.574.731,5.106,1.6c1.686.586,3.351,1.235,4.976,1.973l-5.119-1.528c-.856-.241-1.7-.506-2.562-.742l-1.281-.371-1.284-.361-5.137-1.445c-1.714-.479-3.428-.959-5.14-1.464" transform="translate(-375.21 -1027.903)" fill="#fdbcba"/>
          <path id="Trazado_875775" data-name="Trazado 875775" d="M707.3,1210.012c-.648.595-1.33,1.141-2.024,1.67-.344.269-.7.52-1.049.78l-1.069.753q-1.076.741-2.193,1.424c-.743.456-1.5.9-2.287,1.285.648-.6,1.33-1.142,2.024-1.671s1.4-1.041,2.118-1.532L703.9,1212c.368-.233.731-.474,1.106-.7.743-.456,1.5-.9,2.287-1.286" transform="translate(-595.159 -1030.735)" fill="#fdbcba"/>
          <path id="Trazado_875776" data-name="Trazado 875776" d="M712.809,1103.616c-1.944,1.767-3.888,3.531-5.805,5.325l-1.448,1.334-1.439,1.344-1.439,1.344-1.428,1.355-2.851,2.715c-.945.911-1.9,1.808-2.837,2.729l-2.823,2.743-2.791,2.775c-.939.916-1.851,1.86-2.773,2.792s-1.845,1.866-2.745,2.819l-2.723,2.842q-1.331,1.449-2.675,2.886c-.905.95-1.757,1.948-2.632,2.925l-1.306,1.472c-.437.49-.844,1-1.27,1.5l-1.272,1.5c-.422.5-.856,1-1.252,1.518q-1.211,1.551-2.439,3.093,1.149-1.6,2.314-3.19c.379-.538.8-1.046,1.2-1.562l1.222-1.547c.412-.512.813-1.033,1.239-1.534l1.277-1.5c.857-1,1.69-2.015,2.576-2.985s1.751-1.961,2.633-2.935l2.7-2.876c.893-.964,1.82-1.9,2.737-2.837s1.83-1.887,2.768-2.807q5.576-5.574,11.414-10.875l1.457-1.326,1.468-1.315q1.465-1.317,2.946-2.617c1.984-1.721,3.968-3.443,6-5.109" transform="translate(-569.76 -940.103)" fill="#fdbcba"/>
          <path id="Trazado_875777" data-name="Trazado 875777" d="M741.011,772.306c6.229,2.056,19.769,18.317,19.769,18.317l-16.973,20.692-7.252-5.73-3.532-22.225Z" transform="translate(-624.418 -657.88)" fill="#fcf9e8"/>
          <path id="Trazado_875778" data-name="Trazado 875778" d="M769.365,894.2l3.118,2.352s.51-15.725-3.913-22.98c-2.875-4.716.8,20.628.8,20.628" transform="translate(-653.761 -743.643)" fill="#cfe2e8"/>
          <path id="Trazado_875779" data-name="Trazado 875779" d="M290.8,810.7l21.625,5.325-8.392-40.8C298.954,778.532,290.8,810.7,290.8,810.7" transform="translate(-247.714 -660.364)" fill="#fcf9e8"/>
          <path id="Trazado_875780" data-name="Trazado 875780" d="M405.046,906.229l-2.842-.7-.182-23.8Z" transform="translate(-342.458 -751.093)" fill="#cfe2e8"/>
          <path id="Trazado_875781" data-name="Trazado 875781" d="M380.116,734.233l20.657-7.129,26.708,1.775,12.91,4.922-4.115,10.086s6.052,10.974,4.518,22.432-3.567,24.654-7.763,25.945-12.3,2.374-19.388,2.316c-6.548-.053-20.7-1.36-23.282-3.7s-10.246-56.647-10.246-56.647" transform="translate(-323.798 -619.375)" fill="#fcf9e8"/>
          <path id="Trazado_875782" data-name="Trazado 875782" d="M531.493,574.86l-6.632,20.7-5.326,1.856s3.389,6.617,14.121,7.1,12.588-5.325,12.588-5.325l-3.228-1.372.242-6.859Z" transform="translate(-442.561 -489.688)" fill="#c6725a"/>
          <path id="Trazado_875783" data-name="Trazado 875783" d="M625.767,640.482l-.155,4.4s-7.746-.3-9.115-9.226c-1.241-8.09,9.27,4.824,9.27,4.824" transform="translate(-525.069 -539.208)" fill="#aa4636"/>
          <path id="Trazado_875784" data-name="Trazado 875784" d="M600.216,432.971s-2.308,13.207,4.68,18.075,17.348,1.614,23.239-13.233-1.21-25.74-13.152-26.063-14.413,17.188-14.766,21.221" transform="translate(-510.976 -350.74)" fill="#c6725a"/>
          <path id="Trazado_875785" data-name="Trazado 875785" d="M696.087,504.7c-.287,1.881,6.58,3.329,6.856,1.669s-6.569-3.55-6.856-1.669" transform="translate(-592.946 -429.254)" fill="#1e2633"/>
          <path id="Trazado_875786" data-name="Trazado 875786" d="M773.579,536.788c-1.078,1.553,3.531,4.614,4.5,3.25s-3.421-4.8-4.5-3.25" transform="translate(-658.827 -456.92)" fill="#1e2633"/>
          <path id="Trazado_875787" data-name="Trazado 875787" d="M660.523,608.176c1.537-.958,4.94,3.264,3.52,4.212-2.856,1.906-5.72-2.841-3.52-4.212" transform="translate(-561.995 -517.948)" fill="#aa4636"/>
          <path id="Trazado_875788" data-name="Trazado 875788" d="M603.066,410.8s3.55,3.228,6.374,1.614,1.937-3.631,1.937-3.631,1.856,1.611,3.712.443a2.069,2.069,0,0,0,.711-2.944,2.466,2.466,0,0,0,1.871,0,2,2,0,0,0,.968-2.179s-.726,3.357,1.372,4.382,4.035-.912,4.035-.912-1.614,2.5,0,4.2,4.761,0,4.761,0a5.209,5.209,0,0,0,2.582,6.617c4.357,2.34,6.536-7.343,4.438-11.861s-7.424-15.17-19.366-14.928-15.719,11.861-15.727,14.363,2.332,4.841,2.332,4.841" transform="translate(-511.729 -333.577)" fill="#1e2633"/>
          <path id="Trazado_875789" data-name="Trazado 875789" d="M579.733,511.957c.895,2.59-.19,5.316-2.422,6.087s-4.768-.7-5.662-3.294.189-5.316,2.422-6.087,4.768.7,5.662,3.294" transform="translate(-486.685 -433.124)" fill="#c6725a"/>
          <path id="Trazado_875790" data-name="Trazado 875790" d="M718.621,565.9a16.987,16.987,0,0,0-.7,1.694,9.435,9.435,0,0,0-.423,1.745,5.955,5.955,0,0,0,.01,1.758,4.255,4.255,0,0,0,.6,1.616l.173.276-.3.065q-.43.092-.862.172c-.288.056-.576.11-.865.159-.578.1-1.158.193-1.744.261.555-.2,1.114-.379,1.677-.546.281-.086.563-.167.845-.245s.565-.159.848-.231l-.131.341a4.26,4.26,0,0,1-.726-1.787,5.569,5.569,0,0,1,.036-1.909,7.2,7.2,0,0,1,.588-1.788,8.248,8.248,0,0,1,.978-1.581" transform="translate(-608.644 -482.055)" fill="#1e2633"/>
          <path id="Trazado_875791" data-name="Trazado 875791" d="M694.355,537.4a3.987,3.987,0,0,1,1.14-.892,3.817,3.817,0,0,1,1.412-.45,2.568,2.568,0,0,1,1.488.276,2.313,2.313,0,0,1,1,1.067,3.741,3.741,0,0,0-1.162-.712,2.936,2.936,0,0,0-1.28-.135,5.729,5.729,0,0,0-1.3.309c-.432.153-.859.337-1.3.538" transform="translate(-591.479 -456.62)" fill="#1e2633"/>
          <path id="Trazado_875792" data-name="Trazado 875792" d="M710.467,546.247c-.394.873-1.174,1.373-1.743,1.117s-.71-1.173-.316-2.046,1.174-1.373,1.743-1.117.71,1.173.316,2.046" transform="translate(-603.259 -463.514)" fill="#1e2633"/>
          <path id="Trazado_875793" data-name="Trazado 875793" d="M754.863,562.4a3.55,3.55,0,0,1,1.152-.669,3.459,3.459,0,0,1,1.348-.22,2.35,2.35,0,0,1,1.32.462,2.091,2.091,0,0,1,.755,1.119,3.527,3.527,0,0,0-.965-.791,2.723,2.723,0,0,0-1.135-.291,5.41,5.41,0,0,0-1.22.1c-.412.077-.826.18-1.255.295" transform="translate(-643.022 -478.311)" fill="#1e2633"/>
          <path id="Trazado_875794" data-name="Trazado 875794" d="M767.521,571.929c-.477.738-1.254,1.085-1.735.774s-.484-1.161-.006-1.9,1.254-1.085,1.734-.774.484,1.161.007,1.9" transform="translate(-652.018 -485.476)" fill="#1e2633"/>
          <path id="Trazado_875795" data-name="Trazado 875795" d="M592.453,527.353a6.745,6.745,0,0,1,1.053.138,3.169,3.169,0,0,1,1.79,1.049,6.356,6.356,0,0,1,.58.806l-.448.122a6.96,6.96,0,0,0-.344-1.433,7.113,7.113,0,0,0-.281-.689c-.056-.111-.107-.225-.164-.336l-.185-.326a4.844,4.844,0,0,0-.969-1.164,3.306,3.306,0,0,0-1.43-.722,3.006,3.006,0,0,1,1.616.528,4.394,4.394,0,0,1,1.159,1.159l.217.337c.068.115.13.231.194.348a7.494,7.494,0,0,1,.312.725,6.079,6.079,0,0,1,.347,1.527v0a.224.224,0,0,1-.215.231.237.237,0,0,1-.233-.113,5.894,5.894,0,0,0-.5-.779,3.092,3.092,0,0,0-.653-.657,5.376,5.376,0,0,0-1.849-.755" transform="translate(-504.336 -447.043)" fill="#1e2633"/>
          <path id="Trazado_875796" data-name="Trazado 875796" d="M168.369,1531.343c-1,.285-2.015.549-3.022.823s-2.019.535-3.03.792q-3.033.783-6.076,1.52l.148-.164a2.87,2.87,0,0,0,.052.852,2.5,2.5,0,0,0,.319.785,2.236,2.236,0,0,0,1.381.925l.434.075c.145.021.3.019.444.03s.3.011.455.009l.463,0,1.851-.009q1.851,0,3.7.008c1.234.016,2.469.022,3.7.052-1.233.065-2.467.105-3.7.156s-2.467.079-3.7.112l-1.851.043-.463.01c-.154,0-.308.008-.47,0s-.32,0-.479-.026l-.479-.081-.468-.15a4.771,4.771,0,0,1-.441-.231,2.343,2.343,0,0,1-.391-.315,2.07,2.07,0,0,1-.173-.183l-.148-.2a2.8,2.8,0,0,1-.376-.919,3.23,3.23,0,0,1-.051-.989l.013-.132.135-.032q3.045-.73,6.1-1.425,1.526-.35,3.057-.68c1.021-.217,2.04-.443,3.065-.649" transform="translate(-132.872 -1304.458)" fill="#aa4636"/>
          <path id="Trazado_875797" data-name="Trazado 875797" d="M532.585,555.594a8.827,8.827,0,1,1-4.428-.811c.121.237.24.457.374.673a8.135,8.135,0,1,0,3.621.7.3.3,0,0,1-.062-.508.479.479,0,0,1,.5-.058" transform="translate(-442.961 -472.586)" fill="#f96"/>
          <path id="Trazado_875798" data-name="Trazado 875798" d="M460.394,1039.97a31.128,31.128,0,0,0,3.91,5.177c.737.786,1.494,1.552,2.3,2.266a29.949,29.949,0,0,0,2.494,2.042c.424.33.87.631,1.309.94.45.293.9.592,1.36.867.453.291.924.55,1.392.817.233.135.477.25.714.378s.473.26.717.373a48.633,48.633,0,0,0,6.021,2.461,27.312,27.312,0,0,1-6.307-1.844,27.983,27.983,0,0,1-5.728-3.295,27.247,27.247,0,0,1-4.783-4.561,20.965,20.965,0,0,1-3.4-5.621" transform="translate(-392.182 -885.887)" fill="#cfe2e8"/>
          <path id="Trazado_875799" data-name="Trazado 875799" d="M504.311,1053.328a25.352,25.352,0,0,0,2.686,2.831c.233.223.486.426.725.642s.491.419.744.619c.491.417,1.013.8,1.53,1.184.53.369,1.048.755,1.594,1.1.271.177.532.37.811.534s.554.336.828.51.557.334.839.5l.844.5c.567.326,1.149.626,1.714.978q-.956-.258-1.895-.59c-.609-.255-1.237-.478-1.826-.784q-.9-.428-1.755-.943c-.58-.327-1.121-.717-1.669-1.1-.268-.2-.525-.411-.787-.616s-.518-.419-.763-.645-.495-.446-.727-.686-.474-.469-.689-.724a12.127,12.127,0,0,1-2.2-3.307" transform="translate(-429.592 -897.266)" fill="#cfe2e8"/>
          <path id="Trazado_875800" data-name="Trazado 875800" d="M1763.139,1063.563l-2.573-.411-2.571-.423-.085-.014.01-.088.475-4.037.5-4.034c.335-2.688.654-5.379,1-8.066l1.044-8.061c.351-2.687.687-5.375,1.059-8.059l1.094-8.054.547-4.027.57-4.024,1.15-8.047c.4-2.68.786-5.362,1.2-8.039-.294,2.694-.622,5.384-.934,8.075l-.989,8.068-.5,4.033-.522,4.03-1.044,8.061c-.34,2.688-.717,5.371-1.079,8.056l-1.094,8.054c-.364,2.685-.758,5.365-1.136,8.048l-.572,4.024-.595,4.021-.074-.1,2.557.5Z" transform="translate(-1497.457 -850.289)" fill="#455260"/>
          <path id="Trazado_875801" data-name="Trazado 875801" d="M1331.985,1217.713l7.307,3.481,7.291,3.515q3.648,1.752,7.281,3.534l7.267,3.564q7.262,3.574,14.5,7.2l7.226,3.646,3.611,1.827,3.6,1.846.058.03-.016.06q-.551,2.08-1.121,4.155.475-2.1.968-4.194l.042.09-3.658-1.733-3.648-1.753-7.291-3.515q-7.279-3.539-14.534-7.128l-7.248-3.6q-3.621-1.806-7.232-3.634l-7.219-3.661-3.6-1.853c-1.2-.617-2.4-1.237-3.587-1.875" transform="translate(-1134.637 -1037.295)" fill="#455260"/>
          <path id="Trazado_875802" data-name="Trazado 875802" d="M995.449,1000.686l-.894-11.615-.6,11.428Z" transform="translate(-846.686 -842.528)" fill="#e59493"/>
          <path id="Trazado_875803" data-name="Trazado 875803" d="M1163.578,1183.645a11.5,11.5,0,0,1-.209-1.481c-.044-.5-.06-.993-.063-1.49a14.269,14.269,0,0,1,.081-1.494,4.637,4.637,0,0,1,.359-1.46,13.247,13.247,0,0,0-.048,1.477l.007,1.477c0,.493-.006.987-.025,1.482s-.042.991-.1,1.489" transform="translate(-990.949 -1003.228)" fill="#aa4636"/>
          <path id="Trazado_875804" data-name="Trazado 875804" d="M1183.8,1184.635a16.7,16.7,0,0,1-.092-1.742c-.006-.58.012-1.16.043-1.739s.085-1.158.17-1.735c.038-.288.091-.576.152-.862.035-.143.063-.285.11-.426.023-.07.041-.141.068-.209l.091-.2a3.76,3.76,0,0,0-.05.431c-.013.143-.018.288-.025.432-.015.287-.025.576-.037.864-.022.576-.052,1.153-.082,1.729s-.074,1.153-.131,1.729-.118,1.153-.218,1.729" transform="translate(-1008.328 -1003.228)" fill="#aa4636"/>
          <path id="Trazado_875805" data-name="Trazado 875805" d="M1205.782,1182.441a8.019,8.019,0,0,1-.107-1.193c-.009-.4,0-.795.026-1.191a10.734,10.734,0,0,1,.147-1.186,4.106,4.106,0,0,1,.355-1.151c-.029.4-.028.791-.046,1.185s-.029.786-.058,1.179-.065.786-.114,1.178a10.418,10.418,0,0,1-.2,1.178" transform="translate(-1027.038 -1003.228)" fill="#aa4636"/>
          <path id="Trazado_875806" data-name="Trazado 875806" d="M665.119,598.449a6.007,6.007,0,0,0,.136,2.037,4.507,4.507,0,0,0,.878,1.774,5.326,5.326,0,0,0,1.541,1.267,11.212,11.212,0,0,0,1.892.821,6.253,6.253,0,0,1-2.034-.544l-.242-.114-.233-.134c-.158-.085-.3-.2-.451-.3a4.9,4.9,0,0,1-.783-.749,4.162,4.162,0,0,1-.872-1.963,4.312,4.312,0,0,1,.167-2.1" transform="translate(-566.382 -509.782)" fill="#1e2633"/>
          <path id="Trazado_875807" data-name="Trazado 875807" d="M1013.627,752.15a7.121,7.121,0,0,0,1.627-.237,4.742,4.742,0,0,0,1.447-.659,4.23,4.23,0,0,0,1.105-1.131,7.489,7.489,0,0,0,.73-1.472,4.152,4.152,0,0,1-.462,1.631,3.669,3.669,0,0,1-1.146,1.3,3.989,3.989,0,0,1-1.608.634,4.059,4.059,0,0,1-1.692-.066" transform="translate(-863.447 -637.73)" fill="#1e2633"/>
          <path id="Trazado_875808" data-name="Trazado 875808" d="M1337.863,523.409a7.122,7.122,0,0,0,1.49-1.277c.1-.127.214-.243.307-.374s.194-.258.279-.394.167-.274.25-.411l.208-.434.054-.108.042-.113.083-.226.084-.226c.026-.076.039-.156.062-.233l.123-.468c.022-.16.047-.32.075-.48l.04-.241.014-.244.034-.491c.011-.328-.011-.658,0-1,.075.324.15.654.194.988l.031.506.012.254-.018.254c-.011.17-.024.34-.04.51l-.1.5c-.018.084-.033.168-.059.25l-.085.243-.085.243-.043.122-.056.116a5.188,5.188,0,0,1-1.185,1.666,4.673,4.673,0,0,1-1.712,1.061" transform="translate(-1139.644 -440.139)" fill="#1e2633"/>
          <path id="Trazado_875809" data-name="Trazado 875809" d="M956.553,1329.076a8.353,8.353,0,0,1-1.715-2.128,11.409,11.409,0,0,1-1.081-2.533,13.831,13.831,0,0,1-.358-5.492,21.024,21.024,0,0,1,1.46-5.32l.568-1.256.285-.627.32-.609.643-1.217c.216-.4.463-.791.693-1.187s.463-.791.716-1.173l.755-1.147.377-.573.4-.56.8-1.118c.265-.372.551-.729.826-1.095s.55-.73.836-1.086c.576-.709,1.137-1.431,1.737-2.119a87.628,87.628,0,0,1,7.552-7.917c-1.255,1.322-2.493,2.658-3.682,4.036-.3.339-.6.688-.894,1.031s-.594.688-.883,1.04l-.876,1.046-.857,1.061c-.287.352-.571.707-.846,1.069l-.837,1.075c-.279.359-.542.729-.814,1.092s-.546.726-.8,1.1l-.78,1.115-.391.557-.371.57-.742,1.14c-.249.379-.467.776-.7,1.163a41.039,41.039,0,0,0-2.5,4.809,21.527,21.527,0,0,0-1.52,5.165,14.027,14.027,0,0,0,.179,5.354,10.177,10.177,0,0,0,2.515,4.736" transform="translate(-812.038 -1100.506)" fill="#1e2633"/>
          <path id="Trazado_875810" data-name="Trazado 875810" d="M1519.754,1040.512a45.884,45.884,0,0,1-5.763,7.63c-1.086,1.159-2.2,2.288-3.388,3.34a44.151,44.151,0,0,1-3.675,3.009c-.625.487-1.282.929-1.93,1.385-.664.433-1.323.872-2,1.277-.668.428-1.362.811-2.052,1.2-.343.2-.7.369-1.052.558s-.7.384-1.057.551a71.739,71.739,0,0,1-8.875,3.627,40.275,40.275,0,0,0,9.295-2.718,41.239,41.239,0,0,0,8.442-4.856,40.141,40.141,0,0,0,7.05-6.722,30.9,30.9,0,0,0,5.01-8.285" transform="translate(-1269.204 -886.348)" fill="#082952"/>
          <path id="Trazado_875811" data-name="Trazado 875811" d="M1521.979,1060.2a37.328,37.328,0,0,1-3.959,4.173c-.344.329-.717.628-1.069.947s-.724.617-1.1.913c-.724.615-1.493,1.177-2.255,1.745-.78.544-1.544,1.112-2.35,1.622-.4.26-.784.545-1.2.786s-.817.495-1.221.752-.821.493-1.236.733l-1.245.731c-.836.48-1.693.922-2.525,1.441q1.408-.381,2.792-.87c.9-.375,1.824-.7,2.692-1.155q1.325-.631,2.586-1.39c.855-.482,1.652-1.056,2.459-1.615.394-.292.773-.606,1.16-.908s.763-.618,1.125-.951.729-.658,1.072-1.012.7-.691,1.016-1.068a17.871,17.871,0,0,0,3.25-4.874" transform="translate(-1281.019 -903.119)" fill="#082952"/>
          <path id="Trazado_875812" data-name="Trazado 875812" d="M1623.021,1132.043c-.729,1.517-1.509,3-2.307,4.482-.394.741-.807,1.472-1.211,2.208l-1.24,2.191L1617,1143.1c-.433.719-.855,1.444-1.3,2.158-.874,1.433-1.767,2.856-2.71,4.25.728-1.517,1.508-3.005,2.306-4.482.394-.742.807-1.472,1.211-2.208l1.24-2.191,1.268-2.175c.432-.72.856-1.444,1.3-2.158.874-1.433,1.767-2.856,2.71-4.25" transform="translate(-1374.007 -964.318)" fill="#455260"/>
          <path id="Trazado_875813" data-name="Trazado 875813" d="M1423.2,1224.388c1.989.41,3.963.878,5.931,1.365.986.238,1.966.5,2.948.747l2.939.779,2.931.81c.974.281,1.951.551,2.922.843,1.945.572,3.885,1.165,5.809,1.815-1.989-.41-3.963-.877-5.932-1.364-.986-.238-1.965-.5-2.948-.747l-2.939-.779-2.931-.811c-.974-.281-1.951-.551-2.922-.843-1.945-.572-3.885-1.165-5.81-1.814" transform="translate(-1212.34 -1042.981)" fill="#455260"/>
          <path id="Trazado_875814" data-name="Trazado 875814" d="M1991.806,889.6a2.7,2.7,0,0,1,4.143,1.234,2.533,2.533,0,0,1-1.454,3.138s4.009,1.659,4.082,3.008a2.123,2.123,0,0,1-1.3,1.922s2.041,1.361,2.053,2.533-2.241,1.753-2.241,1.753,1.867,1.711,1.526,2.712-2.3,1.58-2.3,1.58a2.543,2.543,0,0,1,.757,2.193c-.622,2.178-11.473,2.025-11.262-.208s4.2-1.77,4.2-1.77-5.314-1.076-5.435-2.813c-.138-1.971,6.473-1.57,6.473-1.57s-7.1-.546-7.115-2.142c-.02-2.2,7.516-2.613,7.516-2.613s-5.983,0-5.891-1.971c.082-1.761,6.364-2.519,6.364-2.519-1.417-2.014-1.175-3.755-.114-4.468" transform="translate(-1689.989 -757.364)" fill="#efa48f"/>
          <path id="Trazado_875815" data-name="Trazado 875815" d="M1207.963,1161.573a7.392,7.392,0,0,1,1.319-.075c.44.006.877.045,1.312.095s.868.127,1.295.227a8.822,8.822,0,0,1,1.265.375c-.444,0-.879-.03-1.313-.068s-.865-.088-1.3-.139c-.862-.111-1.717-.232-2.582-.415" transform="translate(-1028.99 -989.407)" fill="#aa4636"/>
          <path id="Trazado_875816" data-name="Trazado 875816" d="M1232.134,827.013a9.575,9.575,0,0,1,.174-1.218q.12-.6.281-1.189c.107-.393.23-.781.366-1.165a9.454,9.454,0,0,1,.474-1.135,9.464,9.464,0,0,1-.173,1.218c-.08.4-.173.8-.282,1.188s-.23.78-.367,1.165a9.578,9.578,0,0,1-.473,1.136" transform="translate(-1049.58 -700.472)" fill="#aa4636"/>
          <path id="Trazado_875817" data-name="Trazado 875817" d="M1251.735,835.219a9.4,9.4,0,0,1,.228-1.2q.146-.59.334-1.166c.124-.384.265-.763.417-1.139a9.338,9.338,0,0,1,.524-1.1,9.355,9.355,0,0,1-.228,1.2c-.1.393-.208.782-.334,1.166s-.265.763-.418,1.138a9.444,9.444,0,0,1-.523,1.1" transform="translate(-1066.277 -707.547)" fill="#aa4636"/>
          <path id="Trazado_875818" data-name="Trazado 875818" d="M1272.142,846.553a9.764,9.764,0,0,1,.214-1.222q.139-.6.32-1.189c.12-.392.255-.78.4-1.164a9.628,9.628,0,0,1,.511-1.131,9.626,9.626,0,0,1-.213,1.222c-.093.4-.2.8-.32,1.189s-.256.78-.4,1.163a9.692,9.692,0,0,1-.51,1.131" transform="translate(-1083.66 -717.119)" fill="#aa4636"/>
          <path id="Trazado_875819" data-name="Trazado 875819" d="M2031.323,952.748c.531-.057,1.06-.074,1.589-.078s1.056.011,1.583.033,1.054.063,1.579.121a15.887,15.887,0,0,1,1.574.232,15.806,15.806,0,0,1-1.589.079c-.529.006-1.056-.011-1.583-.033s-1.054-.064-1.579-.122-1.051-.124-1.574-.232" transform="translate(-1730.36 -811.52)" fill="#d37c75"/>
          <path id="Trazado_875820" data-name="Trazado 875820" d="M2019.9,983.424c.651-.09,1.3-.141,1.955-.179s1.3-.056,1.957-.068,1.305,0,1.958.02,1.306.057,1.959.132c-.651.091-1.3.142-1.955.179s-1.3.056-1.957.067-1.3,0-1.958-.021-1.306-.057-1.959-.131" transform="translate(-1720.633 -837.507)" fill="#d37c75"/>
          <path id="Trazado_875821" data-name="Trazado 875821" d="M2019.9,1012.2c.587-.086,1.175-.133,1.762-.165s1.175-.047,1.763-.055,1.176.005,1.763.033,1.176.066,1.764.145c-.587.086-1.175.133-1.762.166s-1.176.047-1.763.054-1.176-.005-1.764-.034-1.176-.065-1.764-.145" transform="translate(-1720.633 -862.047)" fill="#d37c75"/>
          <path id="Trazado_875822" data-name="Trazado 875822" d="M1743.5,1506.632c3.719.354,9.386-31.432,9.386-31.432l-8.551-3.409-5.97,12.307s1.417,22.18,5.135,22.534" transform="translate(-1480.803 -1253.729)" fill="#1e2633"/>
          <path id="Trazado_875823" data-name="Trazado 875823" d="M1739.762,1570.6a3.451,3.451,0,0,1,.68-.234,5.782,5.782,0,0,1,1.395-.157.368.368,0,1,1,.035.312,5.555,5.555,0,0,1-.693.121,5.7,5.7,0,0,1-.7.035,3.464,3.464,0,0,1-.715-.077" transform="translate(-1481.997 -1337.565)" fill="#455260"/>
          <path id="Trazado_875824" data-name="Trazado 875824" d="M1741.695,1591.052a3.439,3.439,0,0,1,.684-.219,5.7,5.7,0,0,1,.694-.106,5.606,5.606,0,0,1,.7-.02.368.368,0,1,1,.028.313,5.579,5.579,0,0,1-.694.1,5.649,5.649,0,0,1-.7.02,3.437,3.437,0,0,1-.712-.093" transform="translate(-1483.644 -1355.023)" fill="#455260"/>
          <path id="Trazado_875825" data-name="Trazado 875825" d="M1744.192,1609.512a3.448,3.448,0,0,1,.68-.234,5.726,5.726,0,0,1,.693-.121,5.582,5.582,0,0,1,.7-.036.368.368,0,1,1,.035.312,5.606,5.606,0,0,1-.693.121,5.725,5.725,0,0,1-.7.035,3.463,3.463,0,0,1-.715-.077" transform="translate(-1485.771 -1370.712)" fill="#455260"/>
          <path id="Trazado_875826" data-name="Trazado 875826" d="M1746.8,1629.964a3.448,3.448,0,0,1,.684-.218,5.685,5.685,0,0,1,.694-.106,5.605,5.605,0,0,1,.7-.02.368.368,0,1,1,.028.313,5.6,5.6,0,0,1-.694.105,5.7,5.7,0,0,1-.7.02,3.42,3.42,0,0,1-.712-.093" transform="translate(-1487.988 -1388.17)" fill="#455260"/>
          <path id="Trazado_875827" data-name="Trazado 875827" d="M1781.144,1477a9.347,9.347,0,0,0-.051,2.487,7,7,0,0,0,.685,2.337,5.765,5.765,0,0,0,.651,1.027,6.614,6.614,0,0,0,.836.894,10.406,10.406,0,0,0,2.065,1.389,6.948,6.948,0,0,1-2.264-1.15,5.843,5.843,0,0,1-1.644-1.981,6.229,6.229,0,0,1-.638-2.491,6.5,6.5,0,0,1,.36-2.512" transform="translate(-1516.935 -1258.168)" fill="#455260"/>
          <path id="Trazado_875828" data-name="Trazado 875828" d="M1783.194,1500.093c-.109,1.232-.3,2.454-.495,3.675-.1.611-.215,1.218-.323,1.826s-.241,1.213-.361,1.82c-.5,2.422-1.094,4.824-1.73,7.213s-1.348,4.758-2.1,7.114c-.373,1.178-.778,2.346-1.171,3.518-.418,1.163-.83,2.328-1.262,3.486.347-1.187.721-2.363,1.077-3.546l1.059-3.549c.336-1.188.7-2.366,1.025-3.558l.5-1.781.482-1.787q.963-3.574,1.812-7.177c.274-1.2.549-2.406.8-3.615s.488-2.42.686-3.639" transform="translate(-1512.656 -1277.837)" fill="#455260"/>
          <path id="Trazado_875829" data-name="Trazado 875829" d="M1738.695,1534.389a18.443,18.443,0,0,1,2.047-2.4c.191-.183.384-.365.592-.533a3.6,3.6,0,0,1,.679-.463,1.77,1.77,0,0,1,.844-.213,1.05,1.05,0,0,1,.462.118.9.9,0,0,1,.356.345,1.09,1.09,0,0,1,.042.925,1.609,1.609,0,0,1-.535.7c-.056.046-.118.082-.177.123l-.175.1c-.115.069-.234.131-.353.19a7.354,7.354,0,0,1-.728.326,12.729,12.729,0,0,1-3.056.781m0,0a21.435,21.435,0,0,0,2.932-1.067c.117-.054.234-.109.347-.17s.23-.115.341-.179.224-.124.33-.194l.162-.1c.047-.036.1-.067.142-.106a1.269,1.269,0,0,0,.4-.536.7.7,0,0,0-.024-.592.557.557,0,0,0-.487-.271,1.467,1.467,0,0,0-.663.162,3.244,3.244,0,0,0-.628.4c-.2.155-.4.321-.6.488-.78.683-1.518,1.423-2.257,2.168" transform="translate(-1481.088 -1303.98)" fill="#455260"/>
          <path id="Trazado_875830" data-name="Trazado 875830" d="M1706.421,1554.748a18.437,18.437,0,0,1-2.55,1.852c-.228.134-.458.266-.7.38a3.593,3.593,0,0,1-.768.292,1.77,1.77,0,0,1-.87.01,1.046,1.046,0,0,1-.422-.223.9.9,0,0,1-.266-.418,1.09,1.09,0,0,1,.175-.91,1.609,1.609,0,0,1,.683-.552c.065-.032.134-.052.2-.078l.193-.057c.128-.04.258-.073.388-.1a7.36,7.36,0,0,1,.784-.147,12.724,12.724,0,0,1,3.154-.047m0,0a21.4,21.4,0,0,0-3.1.353c-.127.025-.253.052-.377.084s-.25.058-.373.095-.247.069-.367.111l-.181.06c-.054.024-.111.042-.162.07a1.266,1.266,0,0,0-.518.427.7.7,0,0,0-.115.581.557.557,0,0,0,.411.377,1.466,1.466,0,0,0,.683,0,3.25,3.25,0,0,0,.7-.241c.234-.1.465-.218.7-.335.918-.482,1.809-1.03,2.7-1.581" transform="translate(-1448.814 -1324.33)" fill="#455260"/>
          <path id="Trazado_875831" data-name="Trazado 875831" d="M613.862,1389.063l-8.524,25.929-9.79-1.189,9.868-30.761Z" transform="translate(-507.312 -1178.129)" fill="#fdbcba"/>
        </g>
      </g>
    </g>
  </g>
</svg>
