<svg xmlns="http://www.w3.org/2000/svg" xmlns:xlink="http://www.w3.org/1999/xlink" width="78" height="78" viewBox="0 0 78 78">
  <defs>
    <clipPath id="clip-path">
      <rect id="Rectángulo_401276" data-name="Rectángulo 401276" width="54.143" height="49.132" fill="#fff"/>
    </clipPath>
  </defs>
  <g id="Grupo_1099076" data-name="Grupo 1099076" transform="translate(389 11154)">
    <circle id="Elipse_11497" data-name="Elipse 11497" cx="39" cy="39" r="39" transform="translate(-389 -11154)" fill="#b8aa52"/>
    <g id="Grupo_1099078" data-name="Grupo 1099078" transform="translate(-376.071 -11142.41)">
      <g id="Grupo_1099077" data-name="Grupo 1099077" clip-path="url(#clip-path)">
        <path id="Trazado_874217" data-name="Trazado 874217" d="M103.952,5.424a.765.765,0,0,1-.765-.765V.765a.765.765,0,0,1,1.53,0V4.66a.765.765,0,0,1-.765.765" transform="translate(-76.881)" fill="#fff"/>
        <path id="Trazado_874218" data-name="Trazado 874218" d="M21.75,35.551a3.86,3.86,0,0,1-1.9-.5,7.212,7.212,0,0,0-3.423-1,7.212,7.212,0,0,0-3.423,1,3.843,3.843,0,0,1-3.8,0,7.214,7.214,0,0,0-3.423-1,6.9,6.9,0,0,0-3.229.889,1.712,1.712,0,0,1-1.9-.18,1.721,1.721,0,0,1-.589-1.827c1.1-3.963,4.548-8.341,9.219-11.71a30.767,30.767,0,0,1,17.786-5.948,30.767,30.767,0,0,1,17.786,5.948c4.671,3.37,8.118,7.747,9.22,11.71a1.742,1.742,0,0,1-2.492,2.008,6.9,6.9,0,0,0-3.229-.889,7.211,7.211,0,0,0-3.423,1,3.843,3.843,0,0,1-3.8,0,7.213,7.213,0,0,0-3.423-1,7.212,7.212,0,0,0-3.423,1,3.843,3.843,0,0,1-3.8,0,7.214,7.214,0,0,0-3.423-1,7.214,7.214,0,0,0-3.423,1,3.86,3.86,0,0,1-1.9.5m-5.321-3.026A8.731,8.731,0,0,1,20.6,33.716a2.325,2.325,0,0,0,2.3,0,8.626,8.626,0,0,1,4.173-1.192,8.625,8.625,0,0,1,4.173,1.192,2.325,2.325,0,0,0,2.3,0,8.731,8.731,0,0,1,4.173-1.192,8.625,8.625,0,0,1,4.173,1.192,2.325,2.325,0,0,0,2.3,0,8.731,8.731,0,0,1,4.173-1.192A8.409,8.409,0,0,1,52.3,33.592a.2.2,0,0,0,.226-.022.2.2,0,0,0,.073-.225c-1.92-6.906-12.562-16.538-25.532-16.538S3.459,26.439,1.54,33.345a.2.2,0,0,0,.073.225.194.194,0,0,0,.226.022,8.407,8.407,0,0,1,3.947-1.068,8.627,8.627,0,0,1,4.173,1.192,2.325,2.325,0,0,0,2.3,0,8.731,8.731,0,0,1,4.173-1.192M.8,33.14h0Z" transform="translate(0 -11.382)" fill="#fff"/>
        <path id="Trazado_874219" data-name="Trazado 874219" d="M23.535,157.5a.765.765,0,0,1-.765-.765v-5.143a.765.765,0,0,1,.765-.765H33.994a1.314,1.314,0,1,0,0-2.627H16.176a4.352,4.352,0,0,0-4.347,4.347v4.188a.765.765,0,0,1-1.53,0v-4.188a5.884,5.884,0,0,1,5.877-5.877H33.994a2.843,2.843,0,1,1,0,5.687H24.3v4.378a.765.765,0,0,1-.765.765" transform="translate(-7.673 -109.278)" fill="#fff"/>
        <path id="Trazado_874220" data-name="Trazado 874220" d="M33.364,113.256a4.293,4.293,0,1,1,4.293-4.293,4.3,4.3,0,0,1-4.293,4.293m0-7.057a2.764,2.764,0,1,0,2.764,2.764,2.767,2.767,0,0,0-2.764-2.764" transform="translate(-21.66 -77.986)" fill="#fff"/>
        <path id="Trazado_874221" data-name="Trazado 874221" d="M148.244,157.5a.765.765,0,0,1-.765-.765v-4.188a4.352,4.352,0,0,0-4.347-4.347h-6.4a4.352,4.352,0,0,0-4.348,4.347v4.188a.765.765,0,0,1-1.53,0v-4.188a5.884,5.884,0,0,1,5.877-5.877h6.4a5.884,5.884,0,0,1,5.877,5.877v4.188a.765.765,0,0,1-.765.765" transform="translate(-97.491 -109.278)" fill="#fff"/>
        <path id="Trazado_874222" data-name="Trazado 874222" d="M153.917,113.256a4.293,4.293,0,1,1,4.293-4.293,4.3,4.3,0,0,1-4.293,4.293m0-7.057a2.764,2.764,0,1,0,2.764,2.764,2.767,2.767,0,0,0-2.764-2.764" transform="translate(-111.479 -77.986)" fill="#fff"/>
        <path id="Trazado_874223" data-name="Trazado 874223" d="M103.952,97.511a.765.765,0,0,1-.765-.765V83.7a.765.765,0,1,1,1.53,0V96.746a.765.765,0,0,1-.765.765" transform="translate(-76.881 -61.789)" fill="#fff"/>
        <path id="Trazado_874224" data-name="Trazado 874224" d="M91.959,179.239a2.52,2.52,0,0,1-2.517-2.517.765.765,0,0,1,1.53,0,.987.987,0,1,0,1.974,0v-1.332a.765.765,0,0,1,1.53,0v1.332a2.52,2.52,0,0,1-2.517,2.517" transform="translate(-66.64 -130.107)" fill="#fff"/>
        <path id="Trazado_874225" data-name="Trazado 874225" d="M53.979,164.5H51.925a.765.765,0,0,1,0-1.53h2.054a.765.765,0,0,1,0,1.53" transform="translate(-38.117 -121.426)" fill="#fff"/>
      </g>
    </g>
  </g>
</svg>
