<svg xmlns="http://www.w3.org/2000/svg" xmlns:xlink="http://www.w3.org/1999/xlink" width="78" height="78" viewBox="0 0 78 78">
  <defs>
    <clipPath id="clip-path">
      <rect id="Rectángulo_401277" data-name="Rectángulo 401277" width="42.462" height="48.356" fill="#fff"/>
    </clipPath>
  </defs>
  <g id="Grupo_1099082" data-name="Grupo 1099082" transform="translate(389 11154)">
    <circle id="Elipse_11497" data-name="Elipse 11497" cx="39" cy="39" r="39" transform="translate(-389 -11154)" fill="#b8aa52"/>
    <g id="Grupo_1099081" data-name="Grupo 1099081" transform="translate(-371.231 -11143.073)">
      <g id="Grupo_1099080" data-name="Grupo 1099080" clip-path="url(#clip-path)">
        <path id="Trazado_874226" data-name="Trazado 874226" d="M127.12,51.414h-1.652a.762.762,0,0,1,0-1.525h1.652a.762.762,0,0,1,0,1.525" transform="translate(-93.015 -37.211)" fill="#fff"/>
        <path id="Trazado_874227" data-name="Trazado 874227" d="M52.262,51.414H42.07a.762.762,0,0,1,0-1.525H52.262a.762.762,0,1,1,0,1.525" transform="translate(-30.81 -37.211)" fill="#fff"/>
        <path id="Trazado_874228" data-name="Trazado 874228" d="M96.906,46.822a3.135,3.135,0,1,1,3.135-3.135,3.138,3.138,0,0,1-3.135,3.135m0-4.746a1.611,1.611,0,1,0,1.611,1.611,1.612,1.612,0,0,0-1.611-1.611" transform="translate(-69.941 -30.246)" fill="#fff"/>
        <path id="Trazado_874229" data-name="Trazado 874229" d="M103.208,81.3H91.3a.762.762,0,0,1,0-1.525h11.9a.762.762,0,0,1,0,1.525" transform="translate(-67.533 -59.502)" fill="#fff"/>
        <path id="Trazado_874230" data-name="Trazado 874230" d="M38.685,81.3H35.891a.762.762,0,0,1,0-1.525h2.793a.762.762,0,0,1,0,1.525" transform="translate(-26.202 -59.502)" fill="#fff"/>
        <path id="Trazado_874231" data-name="Trazado 874231" d="M61.614,76.708a3.135,3.135,0,1,1,3.135-3.135,3.139,3.139,0,0,1-3.135,3.135m0-4.746a1.611,1.611,0,1,0,1.61,1.611,1.612,1.612,0,0,0-1.61-1.611" transform="translate(-43.618 -52.537)" fill="#fff"/>
        <path id="Trazado_874232" data-name="Trazado 874232" d="M121.084,111.187h-3.708a.762.762,0,1,1,0-1.525h3.708a.762.762,0,0,1,0,1.525" transform="translate(-86.978 -81.794)" fill="#fff"/>
        <path id="Trazado_874233" data-name="Trazado 874233" d="M50.18,111.187H42.07a.762.762,0,0,1,0-1.525h8.11a.762.762,0,0,1,0,1.525" transform="translate(-30.81 -81.794)" fill="#fff"/>
        <path id="Trazado_874234" data-name="Trazado 874234" d="M88.715,106.595a3.135,3.135,0,1,1,3.135-3.135,3.139,3.139,0,0,1-3.135,3.135m0-4.746a1.611,1.611,0,1,0,1.611,1.611,1.612,1.612,0,0,0-1.611-1.611" transform="translate(-63.832 -74.829)" fill="#fff"/>
        <path id="Trazado_874235" data-name="Trazado 874235" d="M38.445,48.356a.762.762,0,0,1-.741-.584c-2.027-8.422-.573-13,.967-17.854a47.3,47.3,0,0,0,2.079-8.472A17.747,17.747,0,0,0,37.258,7.8,16.97,16.97,0,0,0,25.091,1.62C15.265.779,10.283,5.163,8.99,6.526c-2.967,3.13-4.078,7.538-3.3,13.105.272,1.948-1.157,4.027-2.417,5.861C2.347,26.84,1.3,28.365,1.565,29.072c.138.364.32.422,1.224.381.753-.035,2.154-.1,2.438,1.47a3.839,3.839,0,0,1-.1,1.656,2.2,2.2,0,0,0-.05,1.191,3.845,3.845,0,0,0,.966,1.7,3.471,3.471,0,0,1,.916,1.613,2.8,2.8,0,0,1-.187,1.268c-.267.954-.67,2.4.11,3.173.727.726,3.163,1.6,11.31-.7a.762.762,0,1,1,.414,1.467c-6.975,1.97-11.043,2.071-12.8.315-1.411-1.408-.819-3.526-.5-4.664.057-.2.133-.478.15-.6a2.232,2.232,0,0,0-.568-.88,5.323,5.323,0,0,1-1.284-2.3,3.682,3.682,0,0,1,.039-1.919A2.392,2.392,0,0,0,3.727,31.2c-.04-.222-.047-.255-.87-.219S.69,31.072.138,29.61s.63-3.166,1.877-4.98c1.1-1.606,2.354-3.426,2.164-4.787-.844-6.049.4-10.882,3.7-14.365A17.175,17.175,0,0,1,16.121.847,27.042,27.042,0,0,1,25.221.1,18.7,18.7,0,0,1,38.448,6.847a19.257,19.257,0,0,1,3.813,14.8,48.587,48.587,0,0,1-2.136,8.73c-1.538,4.843-2.866,9.027-.938,17.035a.763.763,0,0,1-.742.941" transform="translate(0 0)" fill="#fff"/>
        <path id="Trazado_874236" data-name="Trazado 874236" d="M54.825,170.865a.781.781,0,0,1-.13-.011.762.762,0,0,1-.622-.881,18.3,18.3,0,0,0-.045-4.863.762.762,0,1,1,1.512-.2,19.406,19.406,0,0,1,.036,5.318.762.762,0,0,1-.75.633" transform="translate(-40.293 -122.509)" fill="#fff"/>
      </g>
    </g>
  </g>
</svg>
