<svg xmlns="http://www.w3.org/2000/svg" xmlns:xlink="http://www.w3.org/1999/xlink" width="400" height="192.527" viewBox="0 0 400 192.527">
  <defs>
    <clipPath id="clip-path">
      <rect id="Rectángulo_401352" data-name="Rectángulo 401352" width="222.549" height="192.527" fill="none"/>
    </clipPath>
  </defs>
  <g id="Grupo_1099394" data-name="Grupo 1099394" transform="translate(-1020 -873.613)">
    <rect id="Rectángulo_401353" data-name="Rectángulo 401353" width="400" height="134" transform="translate(1020 896)" fill="#daf2e4"/>
    <g id="Grupo_1099173" data-name="Grupo 1099173" transform="translate(1092.451 873.613)">
      <g id="Grupo_1099172" data-name="Grupo 1099172" clip-path="url(#clip-path)">
        <path id="Trazado_875340" data-name="Trazado 875340" d="M178.734,47.669c-19.5-3.857-30.61,3.1-52.8,10.27C69.33,76.227,59.2,46.031,36.267,71.015S22.089,148.632,87,146.366c36.448-1.272,63.592,68.544,105.9,50.117,58.033-25.274,65.794-133-14.167-148.815" transform="translate(-16.68 -31.335)" fill="#fff"/>
        <path id="Trazado_875341" data-name="Trazado 875341" d="M302.546,51.279h0a.387.387,0,0,1-.386-.386V49.859a.385.385,0,1,1,.771,0v1.035a.387.387,0,0,1-.385.386" transform="translate(-203.325 -33.291)" fill="#2a5241"/>
        <path id="Trazado_875342" data-name="Trazado 875342" d="M296.134,19.326s-2.908-2.836.4-6.217,4.255,4.115,4.148,4.218-4.547,2-4.547,2" transform="translate(-198.475 -8.232)" fill="#572a22" fill-rule="evenodd"/>
        <path id="Trazado_875343" data-name="Trazado 875343" d="M218.458,557.43c0,3.366-42.825,6.094-95.651,6.094S27.156,560.8,27.156,557.43s42.825-6.094,95.651-6.094,95.651,2.728,95.651,6.094" transform="translate(-18.273 -370.997)" fill="#e7ebe1"/>
        <path id="Trazado_875344" data-name="Trazado 875344" d="M263.729,381.54l-2.88,5.7c-.506,1.321-5.057,5.443-5.057,5.443.08,1.333,1.493,1.438,2.491,1.183l16.158-7.441s3.345-2.385-3.988-7.814c-2.255,2.538-4.709,4.731-6.724,2.927" transform="translate(-172.124 -254.771)" fill="#214033" fill-rule="evenodd"/>
        <rect id="Rectángulo_401349" data-name="Rectángulo 401349" width="6.746" height="9.215" transform="translate(88.77 117.384) rotate(-18.055)" fill="#db8963"/>
        <path id="Trazado_875345" data-name="Trazado 875345" d="M259.98,175.391,223.608,187.8a7.315,7.315,0,0,0-2.916,8.6l13.843,40.8,9.851-1.619-4.721-32.641,30.583-7.167Z" transform="translate(-148.242 -118.022)" fill="#578562"/>
        <path id="Trazado_875346" data-name="Trazado 875346" d="M462.205,370.343c0,20.411-15.269,36.957-34.1,36.957S394,390.754,394,370.343s15.269-36.957,34.105-36.957,34.1,16.546,34.1,36.957" transform="translate(-265.121 -224.337)" fill="#dfe6d6"/>
        <path id="Trazado_875347" data-name="Trazado 875347" d="M419.037,321.348c-20.526,0-37.224,18.6-37.224,41.455s16.7,41.455,37.224,41.455,37.225-18.6,37.225-41.455-16.7-41.455-37.225-41.455m0,76.851c-18.04,0-32.665-15.847-32.665-35.4s14.625-35.4,32.665-35.4S451.7,343.254,451.7,362.8s-14.625,35.4-32.665,35.4" transform="translate(-256.924 -216.237)" fill="#214033"/>
        <path id="Trazado_875348" data-name="Trazado 875348" d="M428.645,441.547H388.417a3.622,3.622,0,1,1,0-7.243h40.228a3.622,3.622,0,1,1,0,7.243" transform="translate(-258.931 -292.245)" fill="#89a863"/>
        <path id="Trazado_875349" data-name="Trazado 875349" d="M443.512,330.6h0a3.963,3.963,0,0,1-5.444-1.259l-33.29-53.318a3.952,3.952,0,1,1,6.7-4.186l33.29,53.318a3.963,3.963,0,0,1-1.259,5.445" transform="translate(-271.975 -181.67)" fill="#89a863"/>
        <path id="Trazado_875350" data-name="Trazado 875350" d="M367.928,253.121H355.312a7.165,7.165,0,0,1-7.143-7.143v-1.935a7.165,7.165,0,0,1,7.143-7.143h12.616a7.164,7.164,0,0,1,7.143,7.143v1.935a7.164,7.164,0,0,1-7.143,7.143" transform="translate(-234.285 -159.411)" fill="#214033"/>
        <path id="Trazado_875351" data-name="Trazado 875351" d="M346.364,204.566l-12.482-.362a7.029,7.029,0,0,1-7.009-7.009V183.8a7.029,7.029,0,0,1,7.009-7.009H350.4c3.855,0,5.014,2.127,7.009,7.009a25.98,25.98,0,0,1,0,13.391c-1.811,4.787-7.194,7.371-11.049,7.371" transform="translate(-219.955 -118.967)" fill="#578562"/>
        <path id="Trazado_875352" data-name="Trazado 875352" d="M323.8,330.194h0a3,3,0,0,1-2.008-3.731l11.959-39.832a3,3,0,0,1,5.739,1.723l-11.958,39.832a3.005,3.005,0,0,1-3.732,2.008" transform="translate(-216.452 -191.439)" fill="#b9c4ad"/>
        <path id="Trazado_875353" data-name="Trazado 875353" d="M296.259,417.83a2.046,2.046,0,0,1-.718-.605l-12.537-16.8-5.5-2.789a2.062,2.062,0,1,1,1.866-3.677l5.928,3.008a2.064,2.064,0,0,1,.719.605l12.825,17.184a2.062,2.062,0,0,1-2.587,3.071" transform="translate(-185.977 -264.949)" fill="#d8d6df"/>
        <rect id="Rectángulo_401350" data-name="Rectángulo 401350" width="6.746" height="9.215" transform="translate(85.521 119.748) rotate(-11.138)" fill="#fa82a5"/>
        <path id="Trazado_875354" data-name="Trazado 875354" d="M102.5,370.343c0,20.411-15.269,36.957-34.1,36.957s-34.105-16.546-34.105-36.957,15.269-36.957,34.105-36.957,34.1,16.546,34.1,36.957" transform="translate(-23.072 -224.337)" fill="#dfe6d6"/>
        <path id="Trazado_875355" data-name="Trazado 875355" d="M328.843,413a12.861,12.861,0,1,1-12.861-12.861A12.861,12.861,0,0,1,328.843,413" transform="translate(-203.972 -269.258)" fill="#214033"/>
        <path id="Trazado_875356" data-name="Trazado 875356" d="M216.077,338.055l-43.921-41.743a3.172,3.172,0,1,1,4.37-4.6l43.921,41.743a3.181,3.181,0,0,1,.114,4.484h0a3.181,3.181,0,0,1-4.484.114" transform="translate(-115.184 -195.711)" fill="#89a863"/>
        <path id="Trazado_875357" data-name="Trazado 875357" d="M83.518,335.162h0a3.1,3.1,0,0,1-2.072-3.85l15.292-50.934a3.092,3.092,0,1,1,5.922,1.778L87.369,333.089a3.1,3.1,0,0,1-3.85,2.072" transform="translate(-54.718 -187.186)" fill="#b9c4ad"/>
        <path id="Trazado_875358" data-name="Trazado 875358" d="M103.669,443.816l-19.528-.382a2.613,2.613,0,0,1-2.554-2.656l.012-.635a2.613,2.613,0,0,1,2.656-2.554l19.528.382a2.613,2.613,0,0,1,2.554,2.656l-.012.636a2.613,2.613,0,0,1-2.656,2.554" transform="translate(-54.9 -294.456)" fill="#b9c4ad"/>
        <path id="Trazado_875359" data-name="Trazado 875359" d="M239.113,248.445l-51.22-25.51a4.822,4.822,0,0,1,4.3-8.633l51.22,25.51a4.822,4.822,0,0,1-4.3,8.633" transform="translate(-124.637 -143.866)" fill="#b9c4ad"/>
        <path id="Trazado_875360" data-name="Trazado 875360" d="M349.47,457.645a2.061,2.061,0,0,1-1.709-.909l-11.874-17.612a2.062,2.062,0,1,1,3.418-2.305L350.549,453.5l9.008-.215h.05a2.062,2.062,0,0,1,.048,4.123l-10.136.242h-.049" transform="translate(-225.783 -293.326)" fill="#b9c4ad"/>
        <path id="Trazado_875361" data-name="Trazado 875361" d="M62.754,479.759a18.276,18.276,0,0,0,12.5,15.188" transform="translate(-42.228 -322.832)" fill="none" stroke="#fff" stroke-linecap="round" stroke-linejoin="round" stroke-width="5.971"/>
        <path id="Trazado_875362" data-name="Trazado 875362" d="M78.458,479.242a11.9,11.9,0,0,0,8.135,9.888" transform="translate(-52.795 -322.484)" fill="none" stroke="#fff" stroke-linecap="round" stroke-linejoin="round" stroke-width="5.971"/>
        <rect id="Rectángulo_401351" data-name="Rectángulo 401351" width="6.746" height="9.215" transform="translate(122.188 146.09) rotate(-21.66)" fill="#db8963"/>
        <path id="Trazado_875363" data-name="Trazado 875363" d="M59.328,321.348c-20.525,0-37.224,18.6-37.224,41.455s16.7,41.455,37.224,41.455,37.225-18.6,37.225-41.455-16.7-41.455-37.225-41.455m0,76.851c-18.04,0-32.665-15.847-32.665-35.4s14.625-35.4,32.665-35.4,32.665,15.848,32.665,35.4-14.625,35.4-32.665,35.4" transform="translate(-14.874 -216.237)" fill="#214033"/>
        <path id="Trazado_875364" data-name="Trazado 875364" d="M309.8,215.86,297.66,237.12c-4.442,5.136-4.959,12.78-1.312,19.363L316.4,292.671l11.083-3.747-15.065-35.984,21.634-27.236Z" transform="translate(-197.788 -145.253)" fill="#578562"/>
        <path id="Trazado_875365" data-name="Trazado 875365" d="M245.4,333.054h0a6.827,6.827,0,0,1-9.622.3l-20.344-19.1a6.807,6.807,0,0,1,9.317-9.926l20.344,19.1a6.827,6.827,0,0,1,.305,9.621" transform="translate(-143.527 -203.555)" fill="#214033"/>
        <path id="Trazado_875366" data-name="Trazado 875366" d="M140.667,340.056h0a3.1,3.1,0,0,1-2.072-3.85L153.848,285.4a3.092,3.092,0,1,1,5.922,1.778l-15.253,50.807a3.1,3.1,0,0,1-3.85,2.072" transform="translate(-93.174 -190.564)" fill="#b9c4ad"/>
        <path id="Trazado_875367" data-name="Trazado 875367" d="M147.415,442.885a1.211,1.211,0,1,1-1.211-1.211,1.211,1.211,0,0,1,1.211,1.211" transform="translate(-97.567 -297.205)" fill="#56445d"/>
        <path id="Trazado_875368" data-name="Trazado 875368" d="M516.938,442.885a1.211,1.211,0,1,1-1.211-1.211,1.211,1.211,0,0,1,1.211,1.211" transform="translate(-346.22 -297.205)" fill="#56445d"/>
        <path id="Trazado_875369" data-name="Trazado 875369" d="M325.365,216.623l3.128-7.173-.729-6.993" transform="translate(-218.94 -136.234)" fill="none" stroke="#2a5241" stroke-linecap="round" stroke-linejoin="round" stroke-width="2.349"/>
        <path id="Trazado_875370" data-name="Trazado 875370" d="M190.622,137.39a6.379,6.379,0,0,1-5.744,6.923l-19.659-.924,1.73-3.661,14.715-1.648Z" transform="translate(-111.177 -92.45)" fill="#c95836" fill-rule="evenodd"/>
        <path id="Trazado_875371" data-name="Trazado 875371" d="M160.176,143.016l-3.5-.8a2.849,2.849,0,0,0-2.018.266l-2.443,1.346a1.433,1.433,0,0,0-.13,2.355l4.433.762a4.241,4.241,0,0,0,2.931-.61l1.51-.934Z" transform="translate(-101.971 -95.644)" fill="#c95836"/>
        <path id="Trazado_875372" data-name="Trazado 875372" d="M224.05,72.436c-.188,5.073-18.471,22.213-20.5,22.982-2.286.866-16.005,1.485-16.005,1.485l-2.421-7.644s15.361-2.468,16.282-3.4c8.616-8.762,11.7-19.188,17-21.832Z" transform="translate(-124.569 -43.081)" fill="#b9c4ad" fill-rule="evenodd"/>
        <path id="Trazado_875373" data-name="Trazado 875373" d="M283.032,59.5a2.341,2.341,0,0,1,1.855-1.866l4.585-.863,7.339-1.539,4.306.343c4.158.643,10.467,1.4,13.114,7.071,0,0,7.17,16.046,8.069,19.586,2.8,11.007,4.333,14.748,6.535,23.182-13.36,10.406-37.887,10.11-43.731-6.006,2.017-17.661-4.71-26.3-2.071-39.909" transform="translate(-190.034 -37.168)" fill="#b9c4ad" fill-rule="evenodd"/>
        <path id="Trazado_875374" data-name="Trazado 875374" d="M303.89,53.253s-.688,9.838,5.131,8.4,6.307-9.52,6.307-9.52l-4.848-2.075Z" transform="translate(-204.472 -33.684)" fill="#c95836"/>
        <path id="Trazado_875375" data-name="Trazado 875375" d="M317.321,25.31s-.268,3.893-3.178,4.127-3.37-8.153-3.37-8.153Z" transform="translate(-209.121 -14.322)" fill="#572a22" fill-rule="evenodd"/>
        <path id="Trazado_875376" data-name="Trazado 875376" d="M304.338,32.356l2.035,7.422a2.5,2.5,0,0,0,2.01,1.752,3.216,3.216,0,0,0,2.8-.851l.694-.675a3.24,3.24,0,0,0,.861-3.533l-3.458-8.535Z" transform="translate(-204.791 -18.798)" fill="#c95836" fill-rule="evenodd"/>
        <path id="Trazado_875377" data-name="Trazado 875377" d="M305.688,48.607l.9,2.219,2.011-2.691Z" transform="translate(-205.699 -32.391)" fill="#b84827" fill-rule="evenodd"/>
        <path id="Trazado_875378" data-name="Trazado 875378" d="M305.78,18.862a2.232,2.232,0,0,0-1.906-2.505l-4.211-.559a2.353,2.353,0,0,0-2.475,1.924,24.137,24.137,0,0,0-.424,6.568,2.7,2.7,0,0,0,2.087,2.622c1.291.171,5.321-.559,5.995-2.843a32.472,32.472,0,0,0,.934-5.207" transform="translate(-199.66 -10.618)" fill="#c95836" fill-rule="evenodd"/>
        <path id="Trazado_875379" data-name="Trazado 875379" d="M311,17.8s-.491-4.724-2.376-6.447c-2.533-2.316-5.887-3.529-9.415-.371,0,0-1.966,1.275,4.51,1.937.822.084-.239,4.043.811,4.353a16.7,16.7,0,0,0,5.466.541Z" transform="translate(-201.15 -6.105)" fill="#572a22" fill-rule="evenodd"/>
        <path id="Trazado_875380" data-name="Trazado 875380" d="M320.651,35.513a1.672,1.672,0,0,1-2.169.928,1.712,1.712,0,0,1-.5-2.329,1.672,1.672,0,0,1,2.169-.928,1.712,1.712,0,0,1,.5,2.329" transform="translate(-213.811 -22.232)" fill="#c95836" fill-rule="evenodd"/>
        <path id="Trazado_875381" data-name="Trazado 875381" d="M167.746,168.747c-3.37,0-6.749-1.964-10.051-5.847-4.172-4.9-11.444-4.646-11.515-4.641-1.014.038-1.206-2.993-.193-3.037.38-.015,9.383-.335,14.709,5.927,2.637,3.1,5.164,4.671,7.3,4.55,2.642-.153,4.63-2.917,5.362-4.1,2.657-4.288,13.887-7.351,18.476-7.269a1.682,1.682,0,0,1,1.79,1.558,1.711,1.711,0,0,1-1.834,1.483h-.047c-3.99-.088-13.412,2.864-15.118,5.617-2.18,3.517-5.153,5.557-8.372,5.743-.167.01-.335.015-.5.015" transform="translate(-97.784 -103.849)" fill="#b9c4ad"/>
        <path id="Trazado_875382" data-name="Trazado 875382" d="M148.486,157.983h-8.17a2.185,2.185,0,0,1,0-4.369h8.17a2.185,2.185,0,0,1,0,4.369" transform="translate(-92.95 -103.368)" fill="#214033"/>
        <path id="Trazado_875383" data-name="Trazado 875383" d="M166.195,221.138h0a4.836,4.836,0,0,1-3.231-6l8.488-28.272a4.822,4.822,0,0,1,9.236,2.773L172.2,217.907a4.836,4.836,0,0,1-6,3.231" transform="translate(-109.522 -123.429)" fill="#89a863"/>
        <path id="Trazado_875384" data-name="Trazado 875384" d="M147.508,284.851l-16.3-.319a4.4,4.4,0,0,1-4.3-4.475l.01-.51a4.4,4.4,0,0,1,4.474-4.3l16.3.319a4.4,4.4,0,0,1,4.3,4.475l-.01.509a4.4,4.4,0,0,1-4.475,4.3" transform="translate(-85.391 -185.213)" fill="#b9c4ad"/>
        <line id="Línea_581" data-name="Línea 581" x1="2.789" y2="9.289" transform="translate(66.777 71.533)" fill="none" stroke="#2a5241" stroke-linecap="round" stroke-linejoin="round" stroke-width="2.349"/>
        <line id="Línea_582" data-name="Línea 582" x2="9.359" transform="translate(53.897 90.187)" fill="none" stroke="#2a5241" stroke-linecap="round" stroke-linejoin="round" stroke-width="2.349"/>
        <path id="Trazado_875385" data-name="Trazado 875385" d="M366.2,461.329l-2.88,5.7c-.506,1.322-5.057,5.443-5.057,5.443.08,1.333,1.493,1.438,2.491,1.183l16.158-7.441s3.345-2.385-3.988-7.814c-2.255,2.538-4.709,4.731-6.724,2.927" transform="translate(-241.077 -308.461)" fill="#214033" fill-rule="evenodd"/>
        <path id="Trazado_875386" data-name="Trazado 875386" d="M317.259,139.145a6.379,6.379,0,0,1-5.744,6.923l-19.66-.924,1.73-3.661,14.715-1.648Z" transform="translate(-196.391 -93.631)" fill="#c95836" fill-rule="evenodd"/>
        <path id="Trazado_875387" data-name="Trazado 875387" d="M286.813,144.771l-3.495-.8a2.849,2.849,0,0,0-2.018.266l-2.443,1.346a1.433,1.433,0,0,0-.13,2.355l4.432.762a4.241,4.241,0,0,0,2.931-.61l1.509-.934Z" transform="translate(-187.185 -96.825)" fill="#c95836"/>
        <path id="Trazado_875388" data-name="Trazado 875388" d="M337.1,76.821c-.188,5.073-3,18.175-5.034,18.945-2.285.866-17.89,2.033-17.89,2.033l-2.421-7.644s12.5-3.013,13.29-4.061c2.7-3.57-2.776-18.951,2.517-21.594Z" transform="translate(-209.784 -43.402)" fill="#b9c4ad" fill-rule="evenodd"/>
        <path id="Trazado_875389" data-name="Trazado 875389" d="M281.036,157.983H266.926a2.185,2.185,0,1,1,0-4.369h14.111a2.185,2.185,0,0,1,0,4.369" transform="translate(-178.146 -103.368)" fill="#214033"/>
        <path id="Trazado_875390" data-name="Trazado 875390" d="M327.768,137.053l14.255-1.4.048-.005a4.45,4.45,0,0,0,3.834-4.172l.557-7.637" transform="translate(-220.557 -83.332)" fill="none" stroke="#768a81" stroke-linecap="round" stroke-linejoin="round" stroke-width="1.745"/>
        <path id="Trazado_875391" data-name="Trazado 875391" d="M315.445,109.817c.226-.15,14.222-3.537,14.222-3.537l.677-11.89" transform="translate(-212.265 -63.516)" fill="none" stroke="#768a81" stroke-linecap="round" stroke-linejoin="round" stroke-width="1.745"/>
        <line id="Línea_583" data-name="Línea 583" x1="0.226" y1="4.289" transform="translate(93.398 33.96)" fill="none" stroke="#768a81" stroke-linecap="round" stroke-linejoin="round" stroke-width="1.745"/>
        <path id="Trazado_875392" data-name="Trazado 875392" d="M299.192,39.186l2.392.288s-.3,1.508-1.429,1.243a1.37,1.37,0,0,1-.963-1.531" transform="translate(-201.322 -26.368)" fill="#fff" fill-rule="evenodd"/>
        <path id="Trazado_875393" data-name="Trazado 875393" d="M288.264,7.6a1.087,1.087,0,0,1-.942-1.663c1.029-1.825,2.922-5.135,6.512-5.709,4.536-.725,9.033.036,10.185,5.478a1.692,1.692,0,0,1-1.631,2.173l-9.644-.08Z" transform="translate(-193.232 -0.001)" fill="#2a5241"/>
        <path id="Trazado_875394" data-name="Trazado 875394" d="M303.712,31.266s5.079.546,5.145-9.632l1.044-.028s.536,10.639-6.114,10.413Z" transform="translate(-204.369 -14.539)" fill="#2a5241"/>
        <path id="Trazado_875395" data-name="Trazado 875395" d="M293.449,10.563h0a.467.467,0,0,1-.167-.637l1.58-2.7a.466.466,0,1,1,.8.47l-1.58,2.7a.467.467,0,0,1-.637.167" transform="translate(-197.308 -4.704)" fill="#346651"/>
        <path id="Trazado_875396" data-name="Trazado 875396" d="M301.559,10.563h0a.467.467,0,0,1-.167-.637l1.579-2.7a.466.466,0,0,1,.8.47l-1.58,2.7a.467.467,0,0,1-.637.167" transform="translate(-202.765 -4.704)" fill="#346651"/>
        <path id="Trazado_875397" data-name="Trazado 875397" d="M309.668,10.563h0a.467.467,0,0,1-.167-.637l1.58-2.7a.466.466,0,1,1,.8.47l-1.58,2.7a.467.467,0,0,1-.637.167" transform="translate(-208.222 -4.704)" fill="#346651"/>
        <circle id="Elipse_11526" data-name="Elipse 11526" cx="2.638" cy="2.638" r="2.638" transform="translate(216.904 156.79)" fill="none" stroke="#28401d" stroke-linecap="round" stroke-linejoin="round" stroke-width="2.249"/>
        <circle id="Elipse_11527" data-name="Elipse 11527" cx="2.638" cy="2.638" r="2.638" transform="translate(174.709 57.353)" fill="none" stroke="#28401d" stroke-linecap="round" stroke-linejoin="round" stroke-width="2.249"/>
        <circle id="Elipse_11528" data-name="Elipse 11528" cx="2.638" cy="2.638" r="2.638" transform="translate(0.368 102.492)" fill="none" stroke="#28401d" stroke-linecap="round" stroke-linejoin="round" stroke-width="2.249"/>
      </g>
    </g>
  </g>
</svg>
